<svg width="248" height="248" viewBox="0 0 248 248" fill="none" xmlns="http://www.w3.org/2000/svg">
<path d="M127.466 104.789C141.626 105.497 155.787 104.081 169.947 104.081C181.276 104.081 183.4 106.205 184.816 116.826C188.356 135.942 185.524 155.059 184.816 174.884C184.816 184.089 181.984 193.293 178.444 201.79C172.071 220.198 158.619 232.235 140.21 239.315C126.049 244.272 110.473 247.104 95.604 247.812C82.8594 248.52 70.8228 247.104 58.7862 245.688C50.2898 244.271 46.0417 237.191 48.8738 229.403C49.5818 226.571 51.7058 224.447 54.538 223.739C57.3701 223.031 60.9104 221.614 63.7425 219.49C66.5747 217.366 68.6986 215.242 68.6986 211.702C69.4067 204.622 70.1148 198.249 70.1148 191.169C70.8228 166.388 71.5307 142.315 71.5307 117.534C71.5307 115.409 71.5307 113.285 71.5307 111.161C71.5307 106.913 72.9469 106.205 76.487 105.497C78.6111 104.789 80.7352 104.789 82.8593 104.789C97.728 104.789 112.597 103.373 127.466 104.789Z" fill="#00695B"/>
<path d="M124.633 0.708022C138.086 0.708022 151.539 0.708022 165.699 0.708022C168.531 0.708022 172.072 1.41604 174.904 1.41604C180.568 2.12408 184.108 5.66425 184.816 11.3285C185.524 17.7008 184.816 23.3651 184.816 29.7374C184.816 42.482 184.816 54.5185 184.816 67.2631C184.816 70.8033 184.108 74.3435 183.4 77.8836C182.692 81.4238 180.568 82.8399 177.028 83.5479C164.991 84.256 152.247 85.672 140.21 84.964C126.757 84.2559 112.597 84.964 99.1443 84.964C92.772 84.964 87.1077 84.964 81.4435 83.5479C77.1953 82.8399 74.363 80.7158 72.947 76.4676C72.2389 72.2194 71.5308 68.6792 71.5308 64.431C71.5308 51.6864 71.5308 39.6499 71.5308 26.9053C71.5308 20.533 70.8228 14.1607 71.5308 7.08033C72.2389 2.83213 72.2389 2.12408 76.4871 1.41604C83.5675 -2.16286e-05 90.6478 0 97.7281 0C106.933 0 116.137 0 125.341 0C124.633 0 124.633 -1.08143e-05 124.633 0.708022Z" fill="#00695B"/>
</svg>
