<svg xmlns="http://www.w3.org/2000/svg" viewBox="0 0 386.15 129.29"><defs><style>.cls-1{fill:#00695b;}</style></defs><title>Recurso 2</title><g id="Capa_2" data-name="Capa 2"><g id="Capa_1-2" data-name="Capa 1"><path class="cls-1" d="M279.16.49H233.92c-.23,27.69-.1,59-.1,86.05,0,3.13-.45,8.65-5.67,8.65-3.13,0-5.66-1.94-5.66-8,0-27.36-.13-58.82-.15-86.65H177v22.3c.33,12.81.47,25.8.47,37.37,0,11.33-.44,22.81-.44,34.13,0,7.9.15,16.85,5.81,23.26,5.66,5.51,13.71,5.66,20.87,5.66,8.2,0,16.39-.3,24.59-.3,7.75,0,15.51.3,23.26.3,7.3,0,16.09,0,22.2-6,4.92-5.52,5.37-13.71,5.37-21.17,0-11.47-.3-22.8-.3-34.28,0-10.45.07-22,.33-33.46Z"/><path class="cls-1" d="M328.39,28.26V47.34c10.73,0,21.31,0,32-.15-.15,4.62-.15,9.39-.15,14s0,9.4.15,14c-10.73-.15-21.31-.15-32-.15V94.29c12.07.15,24.14.3,36.22.6v28.27H275.78a23.43,23.43,0,0,0,2-1.76l.14-.14.14-.15c6.31-7.08,6.84-16.63,6.84-25,0-5.77-.08-11.59-.15-17.21s-.15-11.37-.15-17.07c0-12.65.11-23.55.33-33.33V.49h79.65V27.67C352.53,28.11,340.46,28.26,328.39,28.26Z"/><path class="cls-1" d="M180.44,123.16H106.93V88.38q.24-13.57.25-27.18c0-9-.08-18.88-.25-28.87V.49h44c-.14,18.94-.27,41.15-.27,59.52,0,11.48.15,23,.15,34.28,6.72.11,13.55.23,20.38.4,0,7.93.12,18.61,7.26,26.7l.15.16.15.16A22,22,0,0,0,180.44,123.16Z"/><path class="cls-1" d="M386.15,115.56c0,3.78-.23,7.92-2.72,10.72-3.09,3-7.54,3-11.24,3-1.54,0-3.08,0-4.62,0v-2.87c2.51-.06,2.73-2.76,2.73-4.29,0-4.33,0-7.94,0-12.57H386.1C386.13,111.83,386.15,113.23,386.15,115.56Z"/><rect class="cls-1" x="370.32" y="94.89" width="15.83" height="11.59"/><path class="cls-1" d="M101.21,96.39a30,30,0,0,1-8.21,21c-6.94,5.77-16.76,6-25.56,6-8.47,0-16.76-.14-25.22-.14-14.13,0-28.15.15-42.22.55V0C14.07.4,28.09.55,42.22.55,50.68.55,59,.41,67.44.41,76.24.41,86.06.69,93,6.46a29.93,29.93,0,0,1,8.21,21c0,13.93-4.49,30.67-22.94,34.48C96.72,65.72,101.21,82.46,101.21,96.39Z"/></g></g></svg>