<svg xmlns="http://www.w3.org/2000/svg" viewBox="0 0 211.46 68.78"><defs><style>.cls-1{fill:#00695b;}</style></defs><title>Recurso 1</title><g id="Capa_2" data-name="Capa 2"><g id="Capa_1-2" data-name="Capa 1"><path class="cls-1" d="M145.26.25H121.72c-.12,14.41-.06,30.7-.06,44.78,0,1.63-.23,4.5-3,4.5-1.62,0-2.94-1-2.94-4.19,0-14.23-.07-30.6-.08-45.09H92.1V11.86c.17,6.66.24,13.42.24,19.44s-.22,11.87-.22,17.76c0,4.11.07,8.77,3,12.11,2.94,2.86,7.13,2.94,10.86,2.94,4.26,0,8.53-.16,12.79-.16,4,0,8.07.16,12.11.16,3.79,0,8.37,0,11.55-3.1,2.56-2.87,2.79-7.13,2.79-11,0-6-.15-11.86-.15-17.83,0-5.44,0-11.43.17-17.41Z"/><path class="cls-1" d="M170.87,24.63h16.62v2.21c0,1.67,0,3.36,0,5s0,3.38,0,5V39H170.87l0,.07h0v10c5.54.07,11.08.14,16.62.27V64.08h-44a11,11,0,0,0,1.05-.91l.08-.08.07-.07c3.28-3.69,3.56-8.66,3.56-13,0-3,0-6-.08-9s-.08-5.92-.08-8.88c0-6.59.06-12.26.17-17.35V.25h41.45V14.4c-6.29.23-12.57.3-18.85.3Z"/><path class="cls-1" d="M93.89,64.08H55.64V46q.12-7.07.13-14.15c0-4.68,0-9.82-.13-15V.25H78.56c-.08,9.86-.15,21.42-.15,31,0,6,.08,11.94.08,17.83,3.5.06,7.05.12,10.61.21,0,4.13.06,9.68,3.77,13.89l.08.09.08.08A9.81,9.81,0,0,0,93.89,64.08Z"/><path class="cls-1" d="M52.66,50.16a15.6,15.6,0,0,1-4.27,10.91c-3.61,3-8.72,3.14-13.3,3.14-4.41,0-8.72-.07-13.12-.07-7.35,0-14.65.08-22,.29V0C7.32.21,14.62.29,22,.29c4.4,0,8.71-.08,13.12-.08,4.58,0,9.69.15,13.3,3.15a15.59,15.59,0,0,1,4.27,10.91c0,7.25-2.33,16-11.93,17.94C50.33,34.2,52.66,42.91,52.66,50.16Z"/><path class="cls-1" d="M211.46,56c0,3.51-.21,7.35-2.52,10-2.87,2.8-7,2.8-10.43,2.8-1.43,0-7,0-8.42,0V66.07c2.18-.06,2.5-2.26,2.53-3.7,0,0,0,0,0,0,0-.26,0-.51,0-.73,0-5.26,0-11.58,0-18h18.79C211.45,46.25,211.46,54,211.46,56Z"/><path class="cls-1" d="M211.46,24.62V39H192.65V28.07c0-1.18,0-2.33,0-3.45Z"/></g></g></svg>