<svg width="387" height="131" viewBox="0 0 387 131" fill="none" xmlns="http://www.w3.org/2000/svg">
<path d="M80.8 62.6414C80.9 62.9414 81.2 62.9414 81.4 63.0414C82.9 63.6414 84.4 64.3414 85.8 65.2414C86.2 65.5414 86.6 65.7414 87.1 65.9414C88.9 66.8414 90.5 68.0414 92 69.5414C92.6 70.1414 93.2 70.8414 93.9 71.4414C95.2 72.7414 96.2 74.2414 97 75.8414C97.9 77.7414 98.8 79.6414 99.6 81.5414C100.3 83.3414 100.7 85.1414 101.1 87.0414C101.7 90.0414 101.9 92.9414 101.7 95.9414C101.4 99.6414 101.1 103.241 100.1 106.841C99.6 108.741 98.8 110.541 97.6 112.141C97.4 112.341 97.3 112.641 97.2 112.841C96 115.141 94.1 116.941 92.2 118.741C92 118.941 91.8 119.041 91.6 119.141C88.5 121.141 85.3 122.641 81.6 123.141C80.5 123.341 79.5 123.441 78.4 123.441C77.5 123.541 76.6 123.641 75.6 123.741C74.9 123.841 74.2 123.841 73.5 123.841C71.7 123.841 70 123.841 68.2 123.641C68 123.641 67.8 123.641 67.6 123.641C64.2 123.641 60.7 123.441 57.3 123.441C53.1 123.541 48.8 123.441 44.6 123.441C41.6 123.441 38.7 123.441 35.7 123.441C33.5 123.441 31.3 123.541 29.1 123.641C26.5 123.741 23.8 123.841 21.2 123.841C20 123.841 18.8 123.841 17.6 123.941C15.9 124.041 14.2 124.041 12.4 123.841C11 123.741 9.7 123.741 8.3 123.841C7.7 123.941 7.1 123.941 6.4 123.941C5.6 123.941 4.9 124.041 4.1 124.141C3.2 124.241 2.3 124.241 1.4 124.141C1.2 124.141 1 124.041 0.8 124.041C0.2 124.041 0 123.841 0 123.341C0 122.641 0 121.941 0 121.241C0 120.441 -5.73695e-07 119.541 0.0999994 118.741C0.0999994 117.841 0.0999998 116.941 0.2 116.041C0.3 115.241 0.3 114.341 0.3 113.541C0.1 110.641 0.3 107.741 0.5 104.841C0.6 102.541 0.699999 100.241 0.599999 97.9414C0.499999 93.6414 0.4 89.4414 0.3 85.1414C0.2 80.1414 0.2 74.7414 0.2 69.3414C0.2 67.3414 0.2 65.4414 0.2 63.4414C0.2 60.1414 0.0999998 56.8414 0.2 53.5414C0.2 49.7414 0.2 45.8414 0.2 42.0414C0.3 34.6414 0.4 27.3414 0.3 19.9414C0.3 16.6414 0.4 13.3414 0.3 10.0414C0.3 8.44142 0.4 6.84142 0.4 5.34142C0.4 4.44142 0.4 3.44142 0.2 2.54142C0.2 2.34142 0.199999 2.14142 0.0999994 1.94142C0.0999994 1.14142 0.5 0.64142 1.2 0.34142C1.7 0.14142 2.2 0.04142 2.7 0.04142C4.9 0.14142 7.2 0.14142 9.4 0.24142C13 0.44142 16.7 0.34142 20.3 0.44142C25.2 0.54142 30 0.74142 34.9 0.84142C41.1 0.94142 47.2 0.94142 53.4 0.84142C57 0.74142 60.7 0.741419 64.3 0.641419C67.2 0.641419 70.1 0.74142 73 0.94142C75.2 1.04142 77.5 1.34142 79.7 1.64142C80.8 1.74142 81.9 1.94142 83 2.04142C86 2.54142 88.7 3.84142 91.2 5.54142C91.6 5.84142 92.1 6.24142 92.5 6.54142C95.9 8.94142 98.3 12.0414 99.7 15.8414C100.8 18.6414 101.6 21.4414 102.1 24.3414C102.4 26.5414 102.5 28.8414 102.4 31.0414C102.3 35.4414 101.6 39.6414 100.2 43.8414C98.6 48.4414 96.2 52.4414 92.8 55.8414C91.9 56.7414 91 57.5414 89.9 58.2414C87.3 60.0414 84.6 61.4414 81.6 62.3414C81.4 62.3414 81 62.4414 80.8 62.6414Z" fill="#00695B"/>
<path d="M222.7 2.74142C222.7 2.54142 222.6 2.34142 222.6 2.14142C222.7 2.34142 222.7 2.54142 222.7 2.74142Z" fill="#00695B"/>
<path d="M284.5 54.0414C284.9 45.6414 285 37.4414 284.7 29.3414C284.6 26.3414 284.6 23.3414 284.6 20.3414C284.6 17.1414 284.8 13.9414 284.8 10.7414C284.8 8.54142 284.8 6.34142 284.7 4.14142C284.7 3.64142 284.5 3.04142 284.5 2.54142C284.5 1.64142 284.9 1.24142 285.8 1.14142C288.9 1.04142 292.1 0.941421 295.2 0.941421C309.1 0.641421 323 0.441421 336.8 0.141421C343.5 0.0414209 350.2 -0.0585785 357 0.0414215C358.2 0.0414215 359.4 0.0414215 360.6 0.0414215C361.3 0.0414215 362 0.141421 362.7 0.241421C364 0.541421 364.6 1.34142 364.5 2.74142C364.5 4.74142 364.5 6.74142 364.5 8.74142C364.5 11.5414 364.6 14.2414 364.7 17.0414C364.8 19.6414 364.8 22.1414 364.9 24.7414C364.9 25.6414 365 26.4414 364.7 27.2414C364.7 27.3414 364.7 27.5414 364.6 27.6414C364.5 28.5414 364.3 28.8414 363.5 29.0414C362.8 29.2414 362 29.2414 361.3 29.3414C358.6 29.4414 355.9 29.6414 353.1 29.6414C346.6 29.8414 340.1 29.9414 333.6 30.2414C332.4 30.3414 331.1 30.3414 329.9 30.3414C329.3 30.3414 329.3 30.3414 329.3 30.9414C329.3 35.2414 329.1 39.6414 329.1 43.9414C329.1 45.0414 329.1 46.0414 329.1 47.1414C329.1 47.6414 329.1 47.6414 329.6 47.7414C333.4 47.7414 337.2 47.8414 341 47.7414C345.8 47.6414 350.5 47.4414 355.3 47.6414C356.6 47.7414 357.8 47.5414 359.1 47.7414C359.4 47.8414 359.7 47.8414 360 48.0414C360.5 48.3414 360.9 48.7414 360.8 49.3414C360.8 50.3414 361 51.3414 361 52.3414C361.2 57.2414 361.1 62.2414 361.2 67.1414C361.2 68.3414 361.3 69.5414 361.3 70.7414C361.3 71.7414 361.3 72.6414 361.3 73.6414C361.3 73.9414 361.3 74.2414 361.2 74.5414C361 75.7414 360.4 76.2414 359.2 76.2414C357.5 76.2414 355.8 76.2414 354.2 76.1414C351.2 76.0414 348.1 76.0414 345.1 76.2414C340.5 76.4414 335.8 76.7414 331.2 77.0414C330.5 77.0414 329.9 77.1414 329.2 77.1414C328.6 77.1414 328.6 77.1414 328.6 77.6414C328.5 80.9414 328.5 84.3414 328.5 87.6414C328.5 89.8414 328.6 92.0414 328.6 94.2414C328.6 94.9414 328.5 94.9414 329.3 94.9414C334.3 94.8414 339.3 94.8414 344.3 95.0414C348.1 95.1414 351.9 95.1414 355.8 95.1414C358.1 95.1414 360.4 95.3414 362.7 95.4414C362.8 95.4414 362.9 95.4414 363.1 95.4414C363.7 95.4414 364.2 95.7414 364.3 96.4414C364.4 96.9414 364.5 97.5414 364.6 98.0414C364.6 101.141 364.8 104.141 364.7 107.241C364.7 107.441 364.7 107.641 364.7 107.941C364.8 111.641 364.6 115.441 364.6 119.141C364.6 120.041 364.6 120.841 364.5 121.741C364.5 122.041 364.4 122.341 364.3 122.641C364.1 123.241 363.7 123.541 363 123.641C360.9 123.841 358.9 123.741 356.8 123.641C354.7 123.541 352.6 123.441 350.5 123.441C347.5 123.341 344.6 123.241 341.6 123.241C337.5 123.241 333.5 123.341 329.4 123.441C325.3 123.541 321.3 123.541 317.2 123.641C312 123.741 306.8 123.941 301.6 124.041C298.1 124.141 294.6 124.041 291.2 124.141C288.8 124.241 286.5 124.241 284.1 124.241C282.1 124.341 280.1 124.241 278 124.241C277.4 124.241 276.8 124.141 276.3 123.841C275.6 123.541 275.5 122.841 275.9 122.241C276.2 121.841 276.6 121.541 277 121.241C278 120.541 279 119.841 279.7 118.841C281.4 116.641 282.6 114.141 283.1 111.341C283.9 107.141 284.1 103.041 284.3 98.7414C284.5 92.1414 284.4 85.5414 284.4 78.8414C284.3 70.6414 284.4 62.2414 284.5 54.0414Z" fill="#00695B"/>
<path d="M179.7 122.841C179.5 122.441 179.2 122.041 178.8 121.641C178.3 121.141 177.9 120.641 177.6 120.041C177 119.041 176.4 117.941 175.8 116.941C174.6 115.041 173.7 113.041 173 110.841C172.1 107.841 171.6 104.741 171.6 101.641C171.6 99.8414 171.5 98.1414 171.4 96.3414C171.3 95.3414 171 94.9414 169.9 94.7414C169.4 94.6414 168.8 94.6414 168.3 94.6414C165.2 94.4414 162.1 94.3414 159 94.3414C156.7 94.3414 154.4 94.1414 152.1 94.2414C151.7 94.2414 151.6 94.1414 151.6 93.7414C151.6 93.1414 151.6 92.5414 151.6 91.9414C151.6 84.1414 151.4 76.2414 151.7 68.4414C152 59.8414 151.8 51.2414 151.6 42.6414C151.5 38.3414 151.4 33.9414 151.4 29.6414C151.4 27.2414 151.4 24.9414 151.4 22.5414C151.3 19.2414 151.3 15.9414 151.2 12.6414C151.1 9.94142 151.5 7.24142 151.4 4.44142C151.4 4.34142 151.4 4.24142 151.4 4.24142C151.3 3.64142 151.3 2.94142 151.3 2.34142C151.2 2.04142 151.1 1.64142 150.9 1.34142C150.7 1.24142 150.5 1.24142 150.4 1.14142C149.5 0.84142 148.6 0.841421 147.7 0.841421C144.9 0.94142 142.1 0.94142 139.3 0.841421C132.5 0.64142 125.7 0.34142 118.9 0.54142C115.6 0.64142 112.3 0.54142 109 0.841421C108.5 0.841421 108 0.94142 107.6 1.04142C107.1 1.14142 106.8 1.44142 106.9 1.74142C107 2.24142 106.9 2.84142 106.9 3.34142C107 6.94142 107 10.4414 107.1 14.0414C107.3 23.1414 107.1 32.2414 107.2 41.3414C107.3 48.3414 107.2 55.3414 107.2 62.3414H107.3C107.3 63.3414 107.3 64.3414 107.3 65.4414C107.4 69.0414 107.5 72.7414 107.5 76.3414C107.5 79.9414 107.4 83.4414 107.3 87.0414C107.1 97.3414 107 107.641 107.1 117.941C107.1 119.141 107.1 120.441 107.2 121.641C107.3 122.841 107.4 123.041 108.6 123.341C108.7 123.341 108.8 123.441 109 123.441C110 123.741 111.1 123.741 112.1 123.741C115.9 123.741 119.7 123.641 123.6 123.741C127.9 123.841 132.1 123.941 136.4 123.941C139.6 123.941 142.9 123.841 146.1 123.841C151.7 123.841 157.2 123.841 162.8 123.741C164.6 123.741 166.4 123.641 168.2 123.741C170.6 123.841 173.1 123.841 175.5 123.841C176.7 123.841 177.9 123.841 179.1 123.641C179.8 123.641 179.9 123.341 179.7 122.841Z" fill="#00695B"/>
<path d="M377.9 110.041C379.9 110.141 381.9 109.941 383.9 109.941C385.5 109.941 385.8 110.241 386 111.741C386.5 114.441 386.1 117.141 386 119.941C386 121.241 385.6 122.541 385.1 123.741C384.2 126.341 382.3 128.041 379.7 129.041C377.7 129.741 375.5 130.141 373.4 130.241C371.6 130.341 369.9 130.141 368.2 129.941C367 129.741 366.4 128.741 366.8 127.641C366.9 127.241 367.2 126.941 367.6 126.841C368 126.741 368.5 126.541 368.9 126.241C369.3 125.941 369.6 125.641 369.6 125.141C369.7 124.141 369.8 123.241 369.8 122.241C369.9 118.741 370 115.341 370 111.841C370 111.541 370 111.241 370 110.941C370 110.341 370.2 110.241 370.7 110.141C371 110.041 371.3 110.041 371.6 110.041C373.7 110.041 375.8 109.841 377.9 110.041Z" fill="#00695B"/>
<path d="M377.5 95.3414C379.4 95.3414 381.3 95.3414 383.3 95.3414C383.7 95.3414 384.2 95.4414 384.6 95.4414C385.4 95.5414 385.9 96.0414 386 96.8414C386.1 97.7414 386 98.5414 386 99.4414C386 101.241 386 102.941 386 104.741C386 105.241 385.9 105.741 385.8 106.241C385.7 106.741 385.4 106.941 384.9 107.041C383.2 107.141 381.4 107.341 379.7 107.241C377.8 107.141 375.8 107.241 373.9 107.241C373 107.241 372.2 107.241 371.4 107.041C370.8 106.941 370.4 106.641 370.2 106.041C370.1 105.441 370 104.941 370 104.341C370 102.541 370 100.841 370 99.0414C370 98.1414 369.9 97.2414 370 96.2414C370.1 95.6414 370.1 95.5414 370.7 95.4414C371.7 95.2414 372.7 95.2414 373.7 95.2414C375 95.2414 376.3 95.2414 377.6 95.2414C377.5 95.2414 377.5 95.2414 377.5 95.3414Z" fill="#00695B"/>
<path d="M279.3 4.14142C279.3 4.04142 279.3 3.84142 279.3 3.74142C279.3 3.64142 279.3 3.54142 279.2 3.34142C279.1 2.74142 279 2.14142 278.8 1.54142C278.8 1.54142 278.7 1.54142 278.7 1.44142C278.4 1.24142 278 1.14142 277.7 1.14142C276.8 1.14142 275.9 1.14142 275.1 1.14142C271.7 1.24142 268.3 1.34142 264.9 1.34142C257 1.24142 249 1.34142 241.1 1.44142C239 1.44142 236.9 1.54142 234.7 1.54142C234.3 1.54142 234.2 1.54142 234.1 1.74142C234.1 1.84142 234.1 1.94142 234.1 2.04142C234.1 2.44142 234.1 2.84142 234.1 3.24142C234 5.84142 233.8 8.44142 233.8 11.0414C233.8 17.4414 233.7 23.8414 233.7 30.2414C233.7 44.4414 233.8 58.6414 234.1 72.7414C234.2 75.1414 234.2 77.6414 234.3 80.0414C234.4 83.2414 234.5 86.5414 234.6 89.7414C234.6 91.1414 234.3 92.5414 233.6 93.7414C232.6 95.4414 231 96.2414 229.1 96.2414C226.6 96.2414 224.7 94.9414 223.5 92.7414C222.6 91.0414 222.2 89.3414 222.3 87.4414C222.4 84.7414 222.4 82.0414 222.4 79.2414C222.4 73.4414 222.4 67.6414 222.4 61.8414C222.4 56.1414 222.4 50.5414 222.5 44.8414C222.6 40.2414 222.6 35.6414 222.6 31.0414C222.6 29.4414 222.6 27.9414 222.7 26.3414C222.7 25.4414 222.8 24.6414 222.8 23.7414C222.7 22.1414 222.7 20.4414 222.7 18.8414C222.8 17.1414 222.7 15.4414 222.7 13.8414C222.6 10.3414 222.7 6.84142 222.6 3.44142C222.6 3.24142 222.6 3.14142 222.6 2.94142C222.6 2.84142 222.6 2.84142 222.6 2.74142C222.6 2.54142 222.5 2.34142 222.5 2.14142C222.3 1.74142 221.9 1.44142 221.4 1.24142C220.9 1.14142 220.3 1.14142 219.7 1.14142C218.9 1.14142 218 1.24142 217.2 1.24142C214.7 1.24142 212.2 1.04142 209.7 1.14142C204.8 1.24142 199.9 1.34142 195 1.14142C193.5 1.14142 192 1.04142 190.5 1.04142C186.7 1.04142 182.9 0.841418 179 1.14142C179 1.14142 179 1.14142 178.9 1.14142C178.8 1.14142 178.8 1.14142 178.7 1.14142C178.1 1.14142 177.5 1.24142 176.8 1.24142C176.7 1.34142 176.6 1.34142 176.5 1.44142C176.4 1.64142 176.4 1.84142 176.3 2.04142C176.3 2.24142 176.3 2.44142 176.3 2.64142C176.3 2.84142 176.3 3.14142 176.3 3.34142C176.3 3.34142 176.3 3.34142 176.3 3.44142C176.4 4.34142 176.6 5.34142 176.6 6.24142C176.7 8.44142 176.8 10.6414 176.8 12.8414C176.8 18.2414 176.7 23.5414 176.9 28.9414C177 32.8414 176.9 36.8414 177.1 40.7414C177.3 45.3414 177.2 49.9414 177.3 54.5414C177.3 55.5414 177.3 56.4414 177.3 57.4414C177.4 61.6414 177.4 65.9414 177.4 70.1414C177.4 72.5414 177.3 75.0414 177.4 77.4414C177.5 79.8414 177.4 82.2414 177.5 84.6414C177.5 85.6414 177.5 86.6414 177.4 87.6414C177.3 89.3414 177.2 91.0414 177.2 92.6414C177.2 94.5414 177.1 96.4414 177 98.3414C176.9 100.341 177 102.441 177.3 104.441C177.7 107.641 178.6 110.741 179.9 113.641C181.2 116.441 183.2 118.741 185.8 120.441C187.5 121.541 189.5 122.341 191.5 122.741C194.4 123.441 197.3 123.541 200.2 123.641C202.1 123.641 204.1 123.641 206 123.641C207.4 123.641 208.8 123.641 210.2 123.541C213.7 123.441 217.3 123.341 220.8 123.441C226.7 123.641 232.7 123.741 238.6 123.741C240 123.741 241.5 123.641 242.9 123.641C247.2 123.641 251.6 123.741 255.9 123.641C258.9 123.541 261.9 123.541 264.9 122.941C267 122.441 269 121.841 270.7 120.341C271.6 119.541 272.6 118.641 273.5 117.741C274.9 116.341 275.9 114.541 276.7 112.741C277.4 111.241 278 109.741 278.3 108.141C278.8 105.641 278.9 103.041 278.9 100.541C278.9 97.0414 278.9 93.6414 278.8 90.1414C278.8 87.7414 278.7 85.3414 278.7 82.9414C278.7 79.0414 278.5 75.0414 278.6 71.1414C278.8 63.9414 278.8 56.7414 278.9 49.5414C279.1 42.4414 278.9 35.4414 278.9 28.3414C279.4 20.2414 279.6 12.1414 279.3 4.14142Z" fill="#00695B"/>
</svg>
