<svg xmlns="http://www.w3.org/2000/svg" viewBox="0 0 388.15 131.32"><defs><style>.cls-1{fill:none;stroke:#00695b;stroke-miterlimit:10;stroke-width:2px;}</style></defs><title>Recurso 4</title><g id="Capa_2" data-name="Capa 2"><g id="Capa_1-2" data-name="Capa 1"><path class="cls-1" d="M280.16,1.52H234.92c-.23,27.69-.1,59-.1,86.05,0,3.13-.45,8.65-5.67,8.65-3.13,0-5.66-1.94-5.66-8,0-27.36-.13-58.82-.15-86.65H178v22.3c.33,12.81.47,25.8.47,37.37,0,11.33-.44,22.81-.44,34.13,0,7.9.15,16.85,5.81,23.26,5.66,5.51,13.71,5.66,20.87,5.66,8.2,0,16.39-.3,24.59-.3,7.75,0,15.51.3,23.26.3,7.3,0,16.09,0,22.2-6,4.92-5.52,5.37-13.71,5.37-21.17,0-11.47-.3-22.8-.3-34.28,0-10.45.07-22,.33-33.46Z"/><path class="cls-1" d="M329.39,29.29V48.37c10.73,0,21.31,0,32-.15-.15,4.62-.15,9.39-.15,14,0,4.77,0,9.4.15,14-10.73-.15-21.31-.15-32-.15V95.32c12.07.15,24.14.3,36.22.6v28.27H276.78a23.43,23.43,0,0,0,2-1.76l.14-.14.14-.15c6.31-7.08,6.84-16.63,6.84-25,0-5.77-.08-11.59-.15-17.21s-.15-11.37-.15-17.07c0-12.65.11-23.55.33-33.33v-28h79.65V28.7C353.53,29.14,341.46,29.29,329.39,29.29Z"/><path class="cls-1" d="M181.44,124.19H107.93V89.41q.24-13.57.25-27.18c0-9-.08-18.88-.25-28.87V1.52h44c-.14,18.94-.27,41.15-.27,59.52,0,11.48.15,23,.15,34.28,6.72.11,13.55.23,20.38.4,0,7.93.12,18.61,7.26,26.7l.15.16.15.16A22,22,0,0,0,181.44,124.19Z"/><path class="cls-1" d="M387.15,116.59c0,3.78-.23,7.92-2.72,10.72-3.09,3-7.54,3-11.24,3-1.54,0-3.08,0-4.62,0V127.4c2.51-.06,2.73-2.76,2.73-4.29,0-4.33,0-7.94,0-12.57H387.1C387.13,112.86,387.15,114.26,387.15,116.59Z"/><rect class="cls-1" x="371.32" y="95.92" width="15.83" height="11.59"/><path class="cls-1" d="M102.21,97.42a30,30,0,0,1-8.21,21c-6.94,5.77-16.76,6-25.56,6-8.47,0-16.76-.14-25.22-.14-14.13,0-28.15.15-42.22.55V1c14.07.4,28.09.55,42.22.55,8.46,0,16.75-.14,25.22-.14,8.8,0,18.62.28,25.56,6.05a29.93,29.93,0,0,1,8.21,21c0,13.93-4.49,30.67-22.94,34.48C97.72,66.75,102.21,83.49,102.21,97.42Z"/></g></g></svg>