<svg xmlns="http://www.w3.org/2000/svg" viewBox="0 0 293.33 129.33"><title>Recurso 4</title><g id="Capa_2" data-name="Capa 2"><g id="Capa_1-2" data-name="Capa 1"><path d="M264.66,109.52c.16-.11.23-.36.23-.76a5.73,5.73,0,0,0-.46-2,5.67,5.67,0,0,0-1.45-2.11,3.7,3.7,0,0,0-2.64-.93,5.46,5.46,0,0,0-2.54.63,4.47,4.47,0,0,0-1.92,2,7.22,7.22,0,0,0-.69,3.36l8.58.07A1.64,1.64,0,0,0,264.66,109.52Z"/><path d="M154.81,126.78c-.18-.22-.35-.3-.5-.26s-.27.2-.36.46l-.8,2.35h4.16A17.77,17.77,0,0,1,154.81,126.78Z"/><path d="M53.83,125.07a2.34,2.34,0,0,1-.33-1.13.85.85,0,0,1,.46-.79l5.74-2.9a2.51,2.51,0,0,1,1.29-.33,1.24,1.24,0,0,1,.76.46c.53.57,1.11,1.16,1.75,1.75a7.4,7.4,0,0,0,2.57,1.48,11.55,11.55,0,0,0,4.26.53,16.51,16.51,0,0,0,2.51-.29,4.3,4.3,0,0,0,1.78-.76,1.6,1.6,0,0,0,.1-2.51,5.29,5.29,0,0,0-2.48-.86l-6.73-1.19a15.8,15.8,0,0,1-7.85-3.46,9.12,9.12,0,0,1-2.91-7,10.9,10.9,0,0,1,1.82-6.17,11.37,11.37,0,0,1,3.73-3.48c-.22-.07-.45-.14-.65-.22q-5.09-2-5.09-6.1a3.81,3.81,0,0,1,1.89-3.43A16.63,16.63,0,0,1,61,86.72c.61-.17.61-.42,0-.72a12.09,12.09,0,0,1-3-2.15,4.45,4.45,0,0,1-1.32-3.33,4.15,4.15,0,0,1,1.06-2.81,11.58,11.58,0,0,1,2.7-2.24,22.71,22.71,0,0,1,3.44-1.75,1.66,1.66,0,0,0,.52-.33c.14-.13,0-.29-.33-.46a12.78,12.78,0,0,1-5-3.67A8.23,8.23,0,0,1,57.14,64q0-4.76,4.49-7.82T75,53.06a23.43,23.43,0,0,1,6.57.83A12.91,12.91,0,0,1,86,56a1.49,1.49,0,0,0,1.12.33,1.24,1.24,0,0,0,.93-.53,10.5,10.5,0,0,1,2.27-2.24A12.42,12.42,0,0,1,93.08,52a6.71,6.71,0,0,1,2.34-.56,1.32,1.32,0,0,1,.92.36,1.67,1.67,0,0,1,.4,1.29v5.94a2,2,0,0,1-.5,1.55,1.12,1.12,0,0,1-1.22.16,12.15,12.15,0,0,0-1.48-.33,10.21,10.21,0,0,0-1.42-.13c-1.19,0-1.63.51-1.32,1.52.09.31.16.64.23,1a5.36,5.36,0,0,1,.1,1.06,8.72,8.72,0,0,1-1.91,5.44,13,13,0,0,1-5.71,4,25.76,25.76,0,0,1-9.34,1.49,21.1,21.1,0,0,0-3.53.23,5.55,5.55,0,0,0-2,.62,1.13,1.13,0,0,0-.63.93,1,1,0,0,0,.72,1,9.36,9.36,0,0,0,2.18.39l10,.6q7.32.46,10.72,3.1a8.15,8.15,0,0,1,3.4,6.73q0,5-5,8.38a19.78,19.78,0,0,1-7.63,2.79,9.89,9.89,0,0,1,2.61,2.76,3.81,3.81,0,0,1,.52,1c.14.4,0,.71-.52.93L79,107.18a1.37,1.37,0,0,1-1,.1,2,2,0,0,1-.86-.63,11.31,11.31,0,0,0-2.57-2.08,7.78,7.78,0,0,0-4-.95,6.85,6.85,0,0,0-3,.59,1.86,1.86,0,0,0-1.25,1.72,1.35,1.35,0,0,0,.43.92,4.45,4.45,0,0,0,2.21.79l7,1.45q6.13,1.26,8.61,4.36A10.85,10.85,0,0,1,87,120.38a10.08,10.08,0,0,1-2.11,6.47,12.12,12.12,0,0,1-2.79,2.48H97.39a16.58,16.58,0,0,1-5.51-5.75,18.1,18.1,0,0,1-2.35-9.27A18.7,18.7,0,0,1,92,104.64a17.08,17.08,0,0,1,6.61-6.4,20.62,20.62,0,0,1,19,.1,16.87,16.87,0,0,1,6.43,6.5,19,19,0,0,1,2.31,9.47,18.19,18.19,0,0,1-2.34,9.27,16.73,16.73,0,0,1-5.47,5.75h25V63.69c0-.79-.33-1.19-1-1.19h-3.16c-1.06,0-1.59-.48-1.59-1.45V54.84c0-.83.48-1.25,1.45-1.25h3.9c.48,0,.75-.26.79-.79L145,43a1.85,1.85,0,0,1,.35-1,16.9,16.9,0,0,1-3.85-4.31A17.08,17.08,0,0,1,139,28.64a18.71,18.71,0,0,1,2.54-9.83,18,18,0,0,1,6.74-6.57,18.3,18.3,0,0,1,9.07-2.34,18.7,18.7,0,0,1,9.24,2.24A16.31,16.31,0,0,1,173,18.58a20.61,20.61,0,0,1,2.34,10.19,3.2,3.2,0,0,1-.16,1.22c-.11.25-.45.39-1,.43H153.63a1,1,0,0,0-.73.27,1.19,1.19,0,0,0-.26.86,5.74,5.74,0,0,0,.89,3.29,5.39,5.39,0,0,0,2.44,2,8.8,8.8,0,0,0,3.47.66,7.67,7.67,0,0,0,3.36-.8,15.29,15.29,0,0,0,3.83-2.9.9.9,0,0,1,.5-.3,2.37,2.37,0,0,1,.89.23l6,2.45c.79.3.88.83.27,1.58a24.41,24.41,0,0,1-4.79,5.15,14.27,14.27,0,0,1-5.28,2.57,26.56,26.56,0,0,1-6.57.73l-.52,0V52.8a.64.64,0,0,0,.72.72h6.08c1,0,1.45.42,1.45,1.26v6.27c0,1-.55,1.45-1.65,1.45h-6.14a.76.76,0,0,0-.86.86V76a3.21,3.21,0,0,0,1.09,2.61,5.63,5.63,0,0,0,3.53.89h2.84a1.08,1.08,0,0,1,.86.39,1.43,1.43,0,0,1,.33.93l-.07,5.28c0,1.05-.64,1.71-1.91,2-1,.13-2,.23-2.94.29s-2,.11-3,.14h-.64V98.86c0,.53.13.82.4.86a1,1,0,0,0,.86-.33,12.57,12.57,0,0,1,2.73-2,11.12,11.12,0,0,1,2.78-1.06,12.57,12.57,0,0,1,2.87-.33,12.22,12.22,0,0,1,7.32,2.18,13.66,13.66,0,0,1,4.66,6.17,25.53,25.53,0,0,1,1.61,9.54q0,8.37-3.86,13.39a12.54,12.54,0,0,1-2,2.09h10.05l.32-45.18c0-1,.42-1.52,1.26-1.52h4.82L181.42,55.5a1.42,1.42,0,0,1,.1-1.32,1.25,1.25,0,0,1,1.15-.59H192.9A1.67,1.67,0,0,1,194,54a1.71,1.71,0,0,1,.63.92L199.17,69c.09.4.23.6.43.6s.38-.22.56-.66l4.29-14.06a1.71,1.71,0,0,1,.63-.92,1.67,1.67,0,0,1,1.09-.4h7.19a1.59,1.59,0,0,1,1,.4,1.71,1.71,0,0,1,.63.92L219.17,69c.09.4.23.6.43.6s.38-.22.56-.66l4.49-14.06a3,3,0,0,1,.69-.92,1.43,1.43,0,0,1,1-.4H233a1.18,1.18,0,0,1,1.12.59,1.4,1.4,0,0,1,0,1.32L222.86,87.38a2,2,0,0,1-.49.93,1.58,1.58,0,0,1-1,.26h-6.87a1.86,1.86,0,0,1-1.91-1.45l-4.23-13.86c-.17-.49-.36-.73-.56-.73s-.36.24-.49.73l-4.62,14.12a1.86,1.86,0,0,1-.53.93,1.74,1.74,0,0,1-1.06.26h-3.51v40.76h7.91a10,10,0,0,1-1.47-2.12,12.78,12.78,0,0,1-1.29-6V98.6c0-1.32.68-2,2.05-2h9.63c1,0,1.52.57,1.52,1.72v21.45a3.14,3.14,0,0,0,.89,2.37,3.23,3.23,0,0,0,2.35.86,5.23,5.23,0,0,0,2.8-.79,8,8,0,0,0,2.15-1.92V98.53c0-1.27.72-1.91,2.17-1.91h9.44a1.52,1.52,0,0,1,1.72,1.72l-.26,31h12.21a16.59,16.59,0,0,1-8-14.63,18.65,18.65,0,0,1,2.54-9.83,18.12,18.12,0,0,1,6.73-6.57A18.31,18.31,0,0,1,259.75,96,18.75,18.75,0,0,1,269,98.2a16.35,16.35,0,0,1,6.36,6.44,20.51,20.51,0,0,1,2.35,10.2,3.19,3.19,0,0,1-.17,1.22c-.11.24-.45.38-1,.43H256a1,1,0,0,0-.72.26,1.17,1.17,0,0,0-.27.86,5.8,5.8,0,0,0,.89,3.3,5.46,5.46,0,0,0,2.45,2,8.71,8.71,0,0,0,3.46.66,7.81,7.81,0,0,0,3.37-.79,15.8,15.8,0,0,0,3.83-2.91.92.92,0,0,1,.49-.29,2,2,0,0,1,.89.23l6,2.44c.79.31.88.83.26,1.58a24.39,24.39,0,0,1-4.78,5.15c-.18.14-.36.25-.54.37h9.74v-9.54c0-1,.42-1.45,1.26-1.45h11V89a29.64,29.64,0,0,1-3.74.24A23.45,23.45,0,0,1,279,87.12,13.13,13.13,0,0,1,273.15,82a2.34,2.34,0,0,1-.33-1.13.86.86,0,0,1,.47-.79l5.74-2.9a2.41,2.41,0,0,1,1.29-.33,1.22,1.22,0,0,1,.75.46c.53.57,1.12,1.15,1.75,1.75a7.55,7.55,0,0,0,2.58,1.48,11.52,11.52,0,0,0,4.25.53,15.15,15.15,0,0,0,2.51-.3,4.87,4.87,0,0,0,1.17-.38V77.15a8.6,8.6,0,0,0-1.76-.46l-6.73-1.19A15.79,15.79,0,0,1,277,72a9.15,9.15,0,0,1-2.9-7,10.9,10.9,0,0,1,1.81-6.17,12.2,12.2,0,0,1,5.38-4.33,21.35,21.35,0,0,1,8.65-1.58,26.41,26.41,0,0,1,3.41.22V0H113.7V14.85l0,0c.16.07.37,0,.63-.23A20.07,20.07,0,0,1,118,11.78a13.1,13.1,0,0,1,3.47-1.45,13.84,13.84,0,0,1,3.43-.43q4.89,0,7.59,2.8c1.8,1.87,2.71,4.57,2.71,8.09V43.56a1.75,1.75,0,0,1-2,2h-9.7a1.5,1.5,0,0,1-1.18-.37,1.91,1.91,0,0,1-.33-1.28V22.37a3,3,0,0,0-.93-2.34,3.62,3.62,0,0,0-2.51-.83,5,5,0,0,0-1.88.37,4.74,4.74,0,0,0-1.61,1.09,9,9,0,0,0-1.39,1.84V57.88s0,0,0,0,.37,0,.63-.23A19.74,19.74,0,0,1,118,54.81a13.44,13.44,0,0,1,3.47-1.45,13.9,13.9,0,0,1,3.43-.43q4.89,0,7.59,2.8c1.8,1.88,2.7,4.57,2.7,8.09V86.59a1.74,1.74,0,0,1-2,2h-9.71a1.56,1.56,0,0,1-1.18-.36,1.94,1.94,0,0,1-.33-1.29V65.4a3,3,0,0,0-.93-2.34,3.63,3.63,0,0,0-2.51-.82,5,5,0,0,0-1.88.36,4.74,4.74,0,0,0-1.61,1.09,9,9,0,0,0-1.39,1.84v4.7h0V86.66c0,1.27-.73,1.91-2.18,1.91h-9.31q-1.71,0-1.71-1.65V79.26h0V0H95.88V5.94c0,.83-.48,1.25-1.45,1.25H82.75c-.53,0-.8.22-.8.66V44.09c0,1-.41,1.45-1.25,1.45H68.16c-.79,0-1.19-.44-1.19-1.32V8.12q0-.93-.72-.93H54.63c-1,0-1.52-.42-1.52-1.25V0H0V32.27H5c.8,0,1.19.44,1.19,1.32v10c0,1.28-.72,1.92-2.18,1.92H0v8.1a1.44,1.44,0,0,1,.31,0H10.94c.79,0,1.19.44,1.19,1.32v3a.55.55,0,0,0,.23.53q.23.14.63-.27a19.39,19.39,0,0,1,3-2.7,14,14,0,0,1,3.53-1.85,11.83,11.83,0,0,1,3.93-.66A10.08,10.08,0,0,1,31,55.83a10.59,10.59,0,0,1,2.87,7.79v23a1.75,1.75,0,0,1-2,2h-9.7A1.58,1.58,0,0,1,21,88.21a1.94,1.94,0,0,1-.33-1.29V65.4a2.94,2.94,0,0,0-.95-2.34,3.78,3.78,0,0,0-2.55-.82,5,5,0,0,0-1.88.36,4.74,4.74,0,0,0-1.61,1.09,8.84,8.84,0,0,0-1.39,1.85V86.66c0,1.27-.73,1.91-2.18,1.91H.78A2.28,2.28,0,0,1,0,88.45v40.88H58.23A11.88,11.88,0,0,1,53.83,125.07Zm201.41-63.3a3.93,3.93,0,0,0-2.94-1,7.13,7.13,0,0,0-2.84.63,4.63,4.63,0,0,0-2.31,2.48,1.51,1.51,0,0,1-.56.69,2.26,2.26,0,0,1-1.22,0l-8.65-1.71a1.16,1.16,0,0,1-.69-.5c-.15-.24-.08-.78.23-1.62a10.06,10.06,0,0,1,5.84-6,28.17,28.17,0,0,1,10.79-1.81,26.23,26.23,0,0,1,9.57,1.39,9.38,9.38,0,0,1,4.85,3.82,11.06,11.06,0,0,1,1.42,5.68v23a2.44,2.44,0,0,1-.29,1.38,1.46,1.46,0,0,1-1.22.4h-9.05a1.27,1.27,0,0,1-1.22-.69,5.13,5.13,0,0,1-.49-1.62l-.07-.46c-.13-.88-.73-.88-1.78,0a16.74,16.74,0,0,1-4.13,2.44,13.86,13.86,0,0,1-5.44,1,10.56,10.56,0,0,1-7.76-2.77,9.28,9.28,0,0,1-2.8-6.87A10.13,10.13,0,0,1,237,72.8a16.07,16.07,0,0,1,7-4.53,32.41,32.41,0,0,1,10.76-1.61h.46a1.57,1.57,0,0,0,.63-.17c.24-.11.36-.36.36-.76V64.61A4,4,0,0,0,255.24,61.77Zm-226-18.15c0,1.28-.72,1.92-2.18,1.92H17.21c-1.19,0-1.79-.55-1.79-1.65V33.72c0-1,.42-1.45,1.26-1.45H28.09c.8,0,1.19.44,1.19,1.32Zm22.84,43a1.82,1.82,0,0,1-.52,1.48,2.6,2.6,0,0,1-1.65.43H40.64a1.42,1.42,0,0,1-1.72-1.65V55.11c0-1,.42-1.52,1.26-1.52H50.94c.79,0,1.18.44,1.18,1.32Zm.26-43c0,1.28-.72,1.92-2.17,1.92H40.3c-1.18,0-1.78-.55-1.78-1.65V33.72c0-1,.42-1.45,1.26-1.45H51.19c.8,0,1.19.44,1.19,1.32Z"/><path d="M286.82,61.18a1.87,1.87,0,0,0-1.26,1.72,1.41,1.41,0,0,0,.43.92,4.54,4.54,0,0,0,2.21.79l5.13,1.07V61.3a8.21,8.21,0,0,0-3.54-.71A6.78,6.78,0,0,0,286.82,61.18Z"/><path d="M255.2,72.6h-.26a10.17,10.17,0,0,0-2.08.29,11.28,11.28,0,0,0-2.54.93,7.25,7.25,0,0,0-2.15,1.62,3.44,3.44,0,0,0-.89,2.37,2.84,2.84,0,0,0,1,2.25,4.13,4.13,0,0,0,2.78.85,5.57,5.57,0,0,0,2.21-.39,6,6,0,0,0,1.42-.86,10.69,10.69,0,0,0,1-1.09,1.94,1.94,0,0,0,.46-1.29V73.79C256.19,73,255.86,72.6,255.2,72.6Z"/><path d="M224.07,126.88c-.15-.06-.34,0-.56.23a15.85,15.85,0,0,1-2.28,2.22h3.07v-2C224.3,127.11,224.23,127,224.07,126.88Z"/><path d="M78,67.32a4.87,4.87,0,0,0,1.19-3.17A5.32,5.32,0,0,0,78,60.65,4.82,4.82,0,0,0,74,59.2a4.8,4.8,0,0,0-5.15,5,4.53,4.53,0,0,0,1.35,3.2A5,5,0,0,0,74,68.77,4.82,4.82,0,0,0,78,67.32Z"/><path d="M75.75,94.25a14.23,14.23,0,0,0,5.91-1c1.34-.64,2-1.44,2-2.41a2,2,0,0,0-1.12-1.65,6.37,6.37,0,0,0-3.24-.79L69.74,88a7.42,7.42,0,0,0-2.4.23,3.9,3.9,0,0,0-1.59.83,1.67,1.67,0,0,0-.56,1.25,2.79,2.79,0,0,0,.93,2.08,6.53,6.53,0,0,0,3.2,1.35A33.92,33.92,0,0,0,75.75,94.25Z"/><path d="M108,123.81a4.16,4.16,0,0,0,2.9-1,6.17,6.17,0,0,0,1.65-3.2,24.2,24.2,0,0,0,.53-5.54,24.92,24.92,0,0,0-.53-5.68,6.17,6.17,0,0,0-1.65-3.2,4.56,4.56,0,0,0-5.77,0,6.05,6.05,0,0,0-1.69,3.2,24.92,24.92,0,0,0-.53,5.68,24.12,24.12,0,0,0,.53,5.57,6,6,0,0,0,1.69,3.17A4.15,4.15,0,0,0,108,123.81Z"/><path d="M162.31,23.46c.15-.11.23-.36.23-.76a6.2,6.2,0,0,0-1.91-4.16,3.76,3.76,0,0,0-2.65-.92,5.49,5.49,0,0,0-2.54.63,4.42,4.42,0,0,0-1.91,1.94,7.27,7.27,0,0,0-.69,3.37l8.58.07A1.66,1.66,0,0,0,162.31,23.46Z"/><path d="M159.1,123.94a4.82,4.82,0,0,0,2.44.6,4.26,4.26,0,0,0,2.87-1,6.34,6.34,0,0,0,1.75-3.3,25.89,25.89,0,0,0,.59-6.14q0-5.74-1.29-7.92a4.08,4.08,0,0,0-3.72-2.18,5.19,5.19,0,0,0-2.71.7,7.88,7.88,0,0,0-2.18,1.94v12.74a6,6,0,0,0,.6,2.81A4,4,0,0,0,159.1,123.94Z"/></g></g></svg>