<?xml version="1.0" encoding="utf-8"?>
<!-- Generator: Adobe Illustrator 24.0.2, SVG Export Plug-In . SVG Version: 6.00 Build 0)  -->
<svg version="1.1" id="Capa_1" xmlns="http://www.w3.org/2000/svg" xmlns:xlink="http://www.w3.org/1999/xlink" x="0px" y="0px"
	 viewBox="0 0 107.4 91.9" style="enable-background:new 0 0 107.4 91.9;" xml:space="preserve">
<title>Recurso 3</title>
<g>
	<path d="M42,19.4H43c0.3,0,0.5-0.1,0.6-0.2c0.1-0.2,0.2-0.4,0.2-0.6c0-0.2,0-0.3-0.1-0.5c-0.1-0.1-0.2-0.2-0.3-0.3
		c-0.1-0.1-0.3-0.1-0.5-0.1H42c-0.2,0-0.2,0.1-0.2,0.2v1.2C41.8,19.3,41.9,19.4,42,19.4z"/>
	<polygon points="15.3,78.2 17.1,78.2 16.2,75.1 	"/>
	<polygon points="15,56.1 14.1,59.2 15.9,59.2 	"/>
	<path d="M44.6,13c0.5,0,0.8-0.2,1-0.5c0.2-0.4,0.3-1,0.3-1.8c0-0.9-0.1-1.5-0.3-1.9c-0.2-0.4-0.5-0.6-1-0.6c-0.5,0-0.8,0.2-1,0.6
		c-0.2,0.4-0.3,1-0.3,1.9c0,0.9,0.1,1.5,0.3,1.8C43.8,12.8,44.2,13,44.6,13z"/>
	<path d="M6.8,84.3c-0.1-0.1-0.3-0.1-0.5-0.1H5.4c-0.2,0-0.2,0.1-0.2,0.2v1.2c0,0.2,0.1,0.2,0.2,0.2h1.1c0.3,0,0.5-0.1,0.6-0.2
		c0.1-0.2,0.2-0.4,0.2-0.6c0-0.2,0-0.3-0.1-0.5C7,84.5,6.9,84.4,6.8,84.3z"/>
	<path d="M88.3,54.2c-1,0-1.4,1.4-1.4,3.8s0.4,3.8,1.4,3.8s1.4-1.5,1.4-3.8S89.3,54.2,88.3,54.2z"/>
	<path d="M58.6,66.1C58.6,66,58.6,66,58.6,66.1c-0.1-0.1-0.1,0-0.1,0l-0.7,1.8c-0.1,0.2,0,0.2,0.1,0.2h1.2c0.1,0,0.1-0.1,0.1-0.2
		L58.6,66.1z"/>
	<path d="M30.9,82.7c-1,0-1.4,1.4-1.4,3.8c0,2.4,0.4,3.8,1.4,3.8s1.4-1.5,1.4-3.8C32.3,84.2,31.9,82.7,30.9,82.7z"/>
	<path d="M56.2,76.1h1c0.1,0,0.2,0,0.3-0.1c0.1,0,0.2-0.1,0.3-0.2c0.1-0.1,0.1-0.1,0.2-0.2c0-0.1,0.1-0.2,0.1-0.3
		c0-0.2-0.1-0.4-0.3-0.6s-0.4-0.2-0.6-0.2h-0.9c-0.2,0-0.2,0.1-0.2,0.2v1.1C56,76.1,56.1,76.1,56.2,76.1z"/>
	<path d="M67.2,46.7c0-1.2-0.5-1.8-1.3-1.8h-0.2c0,0.9,0,2.2,0,3.3v0.2h0.3C67,48.4,67.2,47.6,67.2,46.7z"/>
	<path d="M10.2,65.1h-1c-0.2,0-0.2,0.1-0.2,0.2v1.2c0,0.2,0.1,0.2,0.2,0.2h1.1c0.3,0,0.5-0.1,0.6-0.2c0.1-0.1,0.2-0.3,0.2-0.6
		c0-0.3-0.1-0.5-0.3-0.6C10.7,65.2,10.5,65.1,10.2,65.1z"/>
	<path d="M50.1,20.6c0.1,0,0.1-0.1,0.1-0.2l-0.7-1.9c0,0,0-0.1-0.1-0.1c0,0-0.1,0-0.1,0.1l-0.7,1.8c-0.1,0.2,0,0.2,0.1,0.2H50.1z"/>
	<path d="M20.8,46.5c-0.3-0.2-0.7-0.3-1.2-0.3h-0.3c-0.1,0-0.1,0.1-0.1,0.2v4.3c0,0.1,0.1,0.2,0.2,0.2h0.1c0.5,0,0.8-0.1,1.2-0.2
		c0.3-0.2,0.6-0.4,0.8-0.7c0.2-0.3,0.3-0.8,0.3-1.4c0-0.5-0.1-0.9-0.2-1.3C21.3,46.9,21.1,46.6,20.8,46.5z"/>
	<path d="M9.1,11.1c0.1,0,0.1-0.1,0.1-0.2L8.5,9.1c0,0,0-0.1-0.1-0.1c0,0-0.1,0-0.1,0.1l-0.7,1.8c-0.1,0.2,0,0.2,0.1,0.2H9.1z"/>
	<path d="M102.3,44.9c0,0.9,0,2.2,0,3.3v0.5c0,1.1,0,2.5,0,3.4h0.2c1.2,0,1.9-1.4,1.9-3.7c0-2.3-0.7-3.6-2-3.6H102.3z"/>
	<path d="M15.3,0.1h1c0.1,0,0.2,0,0.3-0.1c0,0,0.1-0.1,0.1-0.1h-1.7C15.2,0.1,15.2,0.1,15.3,0.1z"/>
	<path d="M57.7,77.9c-0.1-0.1-0.3-0.1-0.5-0.1h-1c-0.2,0-0.2,0.1-0.2,0.2v1.1c0,0.2,0.1,0.2,0.2,0.2h1c0.3,0,0.6-0.1,0.7-0.3
		c0.2-0.2,0.2-0.4,0.2-0.6c0-0.2,0-0.3-0.1-0.4C57.9,78.1,57.8,78,57.7,77.9z"/>
	<path d="M9.6,18.6C9.6,18.5,9.6,18.5,9.6,18.6c-0.1-0.1-0.1,0-0.1,0l-0.7,1.8c-0.1,0.2,0,0.2,0.1,0.2h1.2c0.1,0,0.1-0.1,0.1-0.2
		L9.6,18.6z"/>
	<path d="M15.3,3.4h1c0.3,0,0.6-0.1,0.7-0.3c0.2-0.2,0.2-0.4,0.2-0.6c0-0.2,0-0.3-0.1-0.4c-0.1-0.1-0.2-0.2-0.3-0.3
		c-0.1-0.1-0.3-0.1-0.5-0.1h-1c-0.2,0-0.2,0.1-0.2,0.2v1.1C15.1,3.3,15.2,3.4,15.3,3.4z"/>
	<path d="M8.7,39.6c0.1,0,0.1-0.1,0.1-0.2l-0.7-1.9c0,0,0-0.1-0.1-0.1c0,0-0.1,0-0.1,0.1l-0.7,1.8c-0.1,0.2,0,0.2,0.1,0.2H8.7z"/>
	<polygon points="106.4,40.2 107.4,40.2 107.4,37.1 107.3,37.1 	"/>
	<polygon points="3.8,30.7 5.6,30.7 4.7,27.6 	"/>
	<path d="M73.7,0.7C73.7,0.7,73.7,0.7,73.7,0.7L73.9,0h-0.5L73.7,0.7C73.6,0.7,73.6,0.7,73.7,0.7z"/>
	<path d="M4.5,75c0-1-0.5-1.6-1.3-1.6H3.2c0,0.9,0,2.2,0,3.3h0.1C4,76.7,4.5,76.1,4.5,75z"/>
	<path d="M4.8,78.9c0-1.2-0.5-1.8-1.5-1.8H3.1v0.2c0,1.1,0,2.5,0,3.4h0.1C4.2,80.7,4.8,80,4.8,78.9z"/>
	<path d="M41.6,3.2c0,0.1,0.1,0.2,0.2,0.2h0.1c0.5,0,0.8-0.1,1.2-0.2c0.3-0.2,0.6-0.4,0.8-0.7s0.3-0.8,0.3-1.4c0-0.4-0.1-0.7-0.1-1
		h-2.3V3.2z"/>
	<path d="M92.8,11.1c0.1,0,0.1-0.1,0.1-0.2l-0.7-1.9c0,0,0-0.1-0.1-0.1c0,0-0.1,0-0.1,0.1l-0.7,1.8c-0.1,0.2,0,0.2,0.1,0.2H92.8z"/>
	<path d="M103.3,70c0.5,0,0.8-0.2,1-0.5c0.2-0.4,0.3-1,0.3-1.8c0-0.9-0.1-1.5-0.3-1.9s-0.5-0.6-1-0.6c-0.5,0-0.8,0.2-1,0.6
		s-0.3,1-0.3,1.9c0,0.9,0.1,1.5,0.3,1.8C102.5,69.8,102.8,70,103.3,70z"/>
	<path d="M58.6,44.7c-1,0-1.4,1.4-1.4,3.8s0.4,3.8,1.4,3.8c1,0,1.4-1.5,1.4-3.8S59.6,44.7,58.6,44.7z"/>
	<path d="M107.4,0.3V0h-1.1l0.5,0.1C107,0.2,107.2,0.3,107.4,0.3z"/>
	<path d="M55.6,37.2c0-1.2-0.5-1.8-1.3-1.8h-0.2c0,0.9,0,2.2,0,3.3v0.2h0.3C55.4,38.9,55.6,38.1,55.6,37.2z"/>
	<polygon points="93.6,49.7 95.5,49.7 94.6,46.6 	"/>
	<polygon points="55.6,30.7 57.5,30.7 56.6,27.6 	"/>
	<path d="M40.6,60.5c0.5,0,0.8-0.2,1-0.5c0.2-0.4,0.3-1,0.3-1.8c0-0.9-0.1-1.5-0.3-1.9s-0.5-0.6-1-0.6c-0.5,0-0.8,0.2-1,0.6
		c-0.2,0.4-0.3,1-0.3,1.9c0,0.9,0.1,1.5,0.3,1.8C39.8,60.3,40.2,60.5,40.6,60.5z"/>
	<path d="M106.6,90.6c-0.1,0-0.2,0-0.2-0.1c0,0-0.1-0.1-0.1-0.2v-7.5c0-0.2,0.1-0.2,0.2-0.2h0.9V62h-0.9h-0.7v-0.3l0.7-0.1
		c0-1,0.1-2.3,0.1-3.4v-0.5c0-1.1,0-2.3,0-3.3l-0.7-0.1v-0.3h0.7h0.9V40.5h-1l-0.6,2.1l0.8,0.1V43h-1h-0.4h-0.6v-0.3l0.7-0.1
		l2.1-6.7V14.5h-1.5c-0.2,0-0.3-0.1-0.3-0.3V6.8c0-0.1,0-0.2,0.1-0.2c0,0,0.1-0.1,0.2-0.1h0.7h0.8h0.1V4.7c-0.1,0-0.2,0.1-0.2,0.1
		c-0.5,0.2-1.1,0.3-1.9,0.3c-0.5,0-1-0.1-1.5-0.2c-0.5-0.1-0.9-0.3-1.2-0.5c-0.4-0.2-0.6-0.5-0.8-0.7c0-0.1-0.1-0.1-0.1-0.2
		c0-0.1,0-0.1,0.1-0.2l1.1-0.8c0.1-0.1,0.2-0.1,0.2-0.1c0.1,0,0.1,0,0.2,0.1c0.2,0.2,0.3,0.4,0.5,0.5c0.2,0.1,0.3,0.2,0.5,0.3
		c0.2,0.1,0.5,0.1,0.7,0.1c0.4,0,0.7-0.1,1-0.2c0.2-0.1,0.4-0.3,0.4-0.5c0-0.1,0-0.2-0.1-0.2c-0.1-0.1-0.1-0.1-0.2-0.2
		c-0.1-0.1-0.2-0.1-0.4-0.1l-1.7-0.4c-0.4-0.1-0.8-0.3-1.1-0.5c-0.3-0.2-0.6-0.5-0.7-0.8C102.1,0.3,102,0.2,102,0h-1.1v4.7
		c0,0.1,0,0.2-0.1,0.2S100.6,5,100.5,5h-1.8c-0.1,0-0.2,0-0.2-0.1c0,0-0.1-0.1-0.1-0.2V0h-1.1v4.8c0,0.1,0,0.2-0.1,0.2
		C97.2,5,97.1,5,97,5h-1.8c-0.2,0-0.4-0.1-0.4-0.3V2c0-0.1-0.1-0.2-0.2-0.2h-1.9c-0.1,0-0.2,0.1-0.2,0.2v2.7c0,0.2-0.1,0.3-0.4,0.3
		h-1.8c-0.1,0-0.2,0-0.2-0.1c0,0-0.1-0.1-0.1-0.2V0H78.4v4.7C78.4,4.9,78.2,5,78,5h-1.8C76.1,5,76,5,75.9,5c0,0-0.1-0.1-0.1-0.2V0
		h-0.2l-1.5,4.8C74.1,5,74.1,5,73.9,5h-1.1c-0.1,0-0.2-0.1-0.3-0.2L71,0h-0.1v4.8c0,0.1,0,0.2,0,0.2s-0.1,0-0.2,0h-1.4
		c-0.2,0-0.3-0.1-0.3-0.3V0h-1.1v4.7c0,0.1,0,0.2-0.1,0.2C67.6,5,67.5,5,67.4,5h-1.8c-0.1,0-0.2,0-0.2-0.1c0,0-0.1-0.1-0.1-0.2V0
		h-1.1v4.8c0,0.1,0,0.2-0.1,0.2C64.1,5,64,5,63.9,5H62c-0.2,0-0.4-0.1-0.4-0.3V2c0-0.1-0.1-0.2-0.2-0.2h-1.9c-0.1,0-0.2,0.1-0.2,0.2
		v2.7c0,0.2-0.1,0.3-0.4,0.3h-1.8c-0.1,0-0.2,0-0.2-0.1c0,0-0.1-0.1-0.1-0.2V0h-7c0,0.1,0.1,0.1,0.2,0.1h2c0.2,0,0.2,0.1,0.2,0.2
		v1.3c0,0.1,0,0.1,0,0.1c0,0-0.1,0.1-0.2,0.1h-2C50.1,1.9,50,1.9,50,2v1.1c0,0.1,0,0.2,0.1,0.2h3.5c0.2,0,0.2,0.1,0.2,0.2v1.3
		c0,0.1,0,0.1-0.1,0.2c0,0-0.1,0.1-0.2,0.1h-5.8c-0.2,0-0.3-0.1-0.3-0.3V0h-1c0.1,0.3,0.1,0.6,0.1,1c0,0.8-0.2,1.5-0.5,2.1
		c-0.3,0.6-0.8,1.1-1.4,1.4S43.3,5,42.3,5h-2.9c-0.2,0-0.3-0.1-0.3-0.3V0H38v4.7C38,4.8,38,4.9,38,5S37.8,5,37.7,5h-1.8
		c-0.1,0-0.2,0-0.2-0.1c0,0-0.1-0.1-0.1-0.2V0h-3.3l0.5,0.1c0.7,0.2,1.2,0.5,1.5,0.9c0.3,0.4,0.5,0.9,0.5,1.5c0,0.5-0.1,1-0.4,1.4
		c-0.3,0.4-0.7,0.7-1.2,0.9C32.6,5,32,5.1,31.2,5.1c-0.5,0-1-0.1-1.5-0.2c-0.5-0.1-0.9-0.3-1.2-0.5c-0.4-0.2-0.6-0.5-0.8-0.7
		c0-0.1-0.1-0.1-0.1-0.2c0-0.1,0-0.1,0.1-0.2l1.1-0.8c0.1-0.1,0.2-0.1,0.2-0.1c0.1,0,0.1,0,0.2,0.1c0.2,0.2,0.3,0.4,0.5,0.5
		c0.2,0.1,0.3,0.2,0.5,0.3c0.2,0.1,0.5,0.1,0.7,0.1c0.4,0,0.7-0.1,1-0.2s0.4-0.3,0.4-0.5c0-0.1,0-0.2-0.1-0.2
		c-0.1-0.1-0.1-0.1-0.2-0.2c-0.1-0.1-0.2-0.1-0.4-0.1L30,1.9c-0.4-0.1-0.8-0.3-1.1-0.5c-0.3-0.2-0.6-0.5-0.7-0.8
		C28.1,0.3,28,0.2,28,0h-4.8c0,0.1,0.1,0.1,0.2,0.1h2c0.2,0,0.2,0.1,0.2,0.2v1.3c0,0.1,0,0.1,0,0.1c0,0-0.1,0.1-0.2,0.1h-2
		c-0.1,0-0.2,0.1-0.2,0.2v1.1c0,0.1,0,0.2,0.1,0.2h3.5C27,3.3,27,3.3,27,3.5v1.3C27,4.9,27,4.9,27,5c0,0-0.1,0.1-0.2,0.1H21
		c-0.2,0-0.3-0.1-0.3-0.3V0h-1.3c0,0,0,0,0,0.1c-0.2,0.3-0.6,0.5-1.1,0.8c0,0,0,0,0,0c0,0,0,0,0,0c0.6,0.2,1,0.5,1.3,0.8
		c0.2,0.3,0.4,0.7,0.4,1.1c0,0.7-0.3,1.3-0.9,1.7C18.4,4.9,17.5,5,16.3,5h-3.4c-0.1,0-0.1,0-0.2-0.1s-0.1-0.1-0.1-0.2V0H7.9L7.1,1.3
		C7,1.4,7,1.5,7,1.6c0,0.1,0,0.2,0,0.5v2.7C7,4.9,6.9,5,6.6,5H4.8C4.7,5,4.6,5,4.6,5c0,0-0.1-0.1-0.1-0.2V1.9c0-0.1,0-0.2,0-0.3
		S4.4,1.5,4.4,1.4L3.5,0H1l1.6,4.7c0,0.1,0,0.2,0,0.2C2.6,5,2.6,5,2.5,5H0.4C0.2,5,0.2,5,0.1,4.9L0,4.5v2h2.1c0.6,0,1.1,0.1,1.6,0.3
		s0.9,0.5,1.2,0.9C5.2,8,5.4,8.5,5.4,9.1c0,0.5-0.1,1-0.4,1.4s-0.6,0.7-1,0.9c-0.4,0.2-1,0.3-1.6,0.3H0.9c-0.1,0-0.1,0-0.1,0.1v2.5
		c0,0.2-0.1,0.3-0.4,0.3H0v7.3h1c0.1,0,0.2,0.1,0.2,0.2v1.7c0,0.2-0.1,0.3-0.4,0.3H0v1.5h1.3l0.1,2.2H1.1l-0.9-1.8H0v2.4l0.1-0.2
		h0.3v2.7H0.1L0,30.7v2.5h0.4l0.9-2h0.3l-0.1,2.3H0V35h4.5c0.1,0,0.2,0.1,0.2,0.2l0,1.3c0,0.2-0.1,0.3-0.3,0.3H1.2
		C1.1,36.8,1,36.8,1,37v1c0,0.1,0.1,0.2,0.2,0.2h2c0.1,0,0.2,0.1,0.2,0.2v1.3c0,0.1-0.1,0.2-0.2,0.2h-2C1,39.9,1,40,1,40.1v2.6
		C1,42.9,0.9,43,0.6,43H0v3c0.1,0.2,0.2,0.5,0.3,0.8c0,0.2,0,0.2,0,0.3c0,0-0.1,0.1-0.2,0.1l-0.1,0v2.5l0.2,0c0,0,0.1,0,0.1,0.1
		c0,0,0.1,0.1,0,0.3c0,0.1-0.1,0.3-0.2,0.5C0.2,50.7,0.1,50.9,0,51v3.1h0.4h0.5h0.2c2.4,0,3.2,0.7,3.2,2c0,1-1.1,1.9-2.8,2.1
		c1.9,0.2,2.4,0.6,2.8,1.6L5,61.7l0.6,0.1V62c-0.4,0.1-0.9,0.1-1.3,0.1c-1,0-1.6-0.3-1.8-1.2l-0.4-1.4C2,58.9,1.7,58.3,1,58.3H0.9v0
		c0,1.1,0,2.4,0,3.3l0.8,0.1V62H0.9H0v1.4h2c1.1,0,2,0.2,2.6,0.5c0.6,0.4,0.9,0.9,0.9,1.6c0,0.4-0.1,0.7-0.3,1S4.6,67.1,4,67.4
		c0,0,0,0,0,0c0,0,0,0,0,0c0.6,0.2,1,0.5,1.3,0.8c0.2,0.3,0.4,0.7,0.4,1.1c0,0.7-0.3,1.3-0.9,1.7c-0.6,0.4-1.4,0.5-2.6,0.5H0v10.9
		h1.3c0.1,0,0.2,0.1,0.2,0.2v7.5c0,0.1,0,0.2-0.1,0.2c-0.1,0-0.1,0.1-0.3,0.1H0v1.3h107.4v-1.3H106.6z M106.6,48.5
		c0,2.5-1.5,4.1-4,4.1h-0.3h-0.9h-0.6h-0.8h-0.7v-0.3l0.7-0.1c0-1,0.1-2.3,0.1-3.4v-0.5c0-1.1,0-2.3,0-3.3l-0.7-0.1v-0.3h0.7h0.7
		h0.6h0.9h0.3C105.3,44.6,106.6,46.1,106.6,48.5z M102.9,61.6l0.8,0.1V62h-0.8h-2.2H100v-0.3l0.8-0.1c0-1,0.1-2.3,0.1-3.3v-0.5
		c0-1.1,0-2.4,0-3.3h-1.1l-0.9,2.1h-0.3l0.1-2.4h2.1h2.2h2.1l0.1,2.4h-0.3l-0.9-2.1h-1.1c0,0.9,0,2.2,0,3.3v0.5
		C102.9,59.4,102.9,60.7,102.9,61.6z M95.9,68.3H94c-0.1,0-0.2,0.1-0.2,0.2v2.7c0,0.2-0.1,0.3-0.4,0.3h-1.8c-0.1,0-0.2,0-0.2-0.1
		c0,0-0.1-0.1-0.1-0.2v-7.5c0-0.2,0.1-0.2,0.2-0.2h2.1c0.1,0,0.2,0.1,0.2,0.2v2.5c0,0.1,0.1,0.2,0.2,0.2h1.8c0.1,0,0.2-0.1,0.2-0.2
		v-2.5c0-0.2,0.1-0.2,0.2-0.2h2.1c0.1,0,0.2,0.1,0.2,0.2v7.5c0,0.1,0,0.2-0.1,0.2c0,0-0.1,0.1-0.2,0.1h-1.8c-0.2,0-0.4-0.1-0.4-0.3
		v-2.7C96,68.4,96,68.3,95.9,68.3z M86.1,74.7h-1.9c-0.2,0-0.2-0.1-0.2-0.2v-1.3c0-0.1,0-0.1,0.1-0.2c0,0,0.1-0.1,0.2-0.1h6.5
		c0.1,0,0.2,0,0.2,0.1s0.1,0.1,0.1,0.2v1.3c0,0.1-0.1,0.2-0.2,0.2h-1.9c-0.1,0-0.1,0-0.1,0.1v6c0,0.2-0.1,0.2-0.2,0.2h-2.1
		c-0.1,0-0.2-0.1-0.2-0.2v-5.9C86.3,74.8,86.2,74.7,86.1,74.7z M59.1,76.9c0.6,0.2,1,0.5,1.3,0.8c0.2,0.3,0.4,0.7,0.4,1.1
		c0,0.7-0.3,1.3-0.9,1.7c-0.6,0.4-1.4,0.5-2.6,0.5h-3.4c-0.1,0-0.1,0-0.2-0.1s-0.1-0.1-0.1-0.2v-7.5c0-0.1,0-0.1,0.1-0.2
		c0.1-0.1,0.1-0.1,0.2-0.1H57c1.1,0,2,0.2,2.6,0.5c0.6,0.4,0.9,0.9,0.9,1.6c0,0.4-0.1,0.7-0.3,1C60,76.3,59.6,76.6,59.1,76.9
		C59,76.9,59,76.9,59.1,76.9C59,76.9,59,76.9,59.1,76.9z M60.5,71.5c-0.1,0-0.2-0.1-0.2-0.2l-0.4-1.2c0,0,0-0.1,0-0.1
		c0,0-0.1,0-0.1,0h-2.3c-0.1,0-0.1,0-0.2,0.1l-0.4,1.3c0,0,0,0.1-0.1,0.1c0,0-0.1,0-0.2,0h-1.7c-0.1,0-0.1,0-0.2-0.1
		c0-0.1,0-0.2,0-0.3l2.6-7.4c0-0.1,0.1-0.2,0.1-0.2c0,0,0.1-0.1,0.2-0.1h2.1c0.2,0,0.3,0.1,0.4,0.3l2.6,7.4c0,0.1,0,0.2,0,0.2
		c0,0.1-0.1,0.1-0.2,0.1H60.5z M52.6,48.3l0.4-1.2h0.3v2.7H53l-0.4-1.2h-1v0.1c0,1.1,0,2.4,0,3.3l0.9,0.1v0.3h-0.9h-2.2h-0.7v-0.3
		l0.7-0.1c0-1,0.1-2.3,0.1-3.4v-0.5c0-1.1,0-2.3,0-3.3l-0.7-0.1v-0.3h0.7h0.8h0.8h0.5h2.6l0.1,2.2h-0.3l-0.9-1.8h-1.5
		c0,0.9,0,2.2,0,3.3v0H52.6z M41.4,68.3h-1.9c-0.1,0-0.2,0.1-0.2,0.2v2.7c0,0.2-0.1,0.3-0.4,0.3h-1.8c-0.1,0-0.2,0-0.2-0.1
		c0,0-0.1-0.1-0.1-0.2v-7.5c0-0.2,0.1-0.2,0.2-0.2h2.1c0.1,0,0.2,0.1,0.2,0.2v2.5c0,0.1,0.1,0.2,0.2,0.2h1.8c0.1,0,0.2-0.1,0.2-0.2
		v-2.5c0-0.2,0.1-0.2,0.2-0.2h2.1c0.1,0,0.2,0.1,0.2,0.2v7.5c0,0.1,0,0.2-0.1,0.2c0,0-0.1,0.1-0.2,0.1h-1.8c-0.2,0-0.4-0.1-0.4-0.3
		v-2.7C41.6,68.4,41.5,68.3,41.4,68.3z M31.1,65.2h-1.9c-0.2,0-0.2-0.1-0.2-0.2v-1.3c0-0.1,0-0.1,0.1-0.2c0,0,0.1-0.1,0.2-0.1h6.5
		c0.1,0,0.2,0,0.2,0.1c0,0,0.1,0.1,0.1,0.2V65c0,0.1-0.1,0.2-0.2,0.2h-1.9c-0.1,0-0.1,0-0.1,0.1v6c0,0.2-0.1,0.2-0.2,0.2h-2.1
		c-0.1,0-0.2-0.1-0.2-0.2v-5.9C31.2,65.3,31.2,65.2,31.1,65.2z M14.2,61.8V62h-1h-0.4h-0.6v-0.3l0.7-0.1l2.4-7.6h1.2l2.4,7.5
		l0.7,0.1V62h-0.6h-2.2h-0.9v-0.3l0.8-0.1L16,59.5h-2l-0.6,2.1L14.2,61.8z M12.2,68.2l1.4,3c0,0.1,0,0.2,0,0.2
		c0,0.1-0.1,0.1-0.2,0.1h-2.1c-0.2,0-0.2-0.1-0.3-0.2l-1-2.8c0-0.1-0.2-0.2-0.3-0.2H9.1c-0.1,0-0.1,0-0.1,0c0,0,0,0.1,0,0.1v2.8
		c0,0.2-0.1,0.3-0.4,0.3H6.8c-0.1,0-0.2,0-0.2-0.1c0,0-0.1-0.1-0.1-0.2v-7.5c0-0.2,0.1-0.2,0.2-0.2h3.6c1,0,1.9,0.2,2.4,0.6
		c0.6,0.4,0.9,1,0.9,1.7c0,0.3-0.1,0.7-0.2,0.9c-0.1,0.3-0.3,0.5-0.5,0.7c-0.2,0.2-0.5,0.4-0.7,0.5C12.2,68,12.2,68.1,12.2,68.2z
		 M6.7,54.5L6,54.4v-0.3h0.7h0.8h0.8h0.5h2.6l0.1,2.2h-0.3l-0.9-1.8H8.9c0,0.9,0,2.2,0,3.3v0h1.1l0.4-1.2h0.3v2.7h-0.3l-0.4-1.2H8.8
		v0.1c0,1.1,0,2.5,0,3.4h1.8l0.9-2h0.3L11.7,62H8.9H8.4H7.9H6.7H6v-0.3l0.7-0.1c0-1,0.1-2.3,0.1-3.4v-0.5
		C6.8,56.7,6.8,55.4,6.7,54.5z M10.9,25.9H9.8L8.9,28H8.6l0.1-2.4h2.1h2.2h2.1l0.1,2.4h-0.3l-0.9-2.1h-1.1c0,0.9,0,2.2,0,3.3v0.5
		c0,1.1,0,2.4,0,3.3l0.8,0.1v0.3h-0.8h-2.2h-0.8v-0.3l0.8-0.1c0-1,0.1-2.3,0.1-3.3v-0.5C11,28.2,10.9,26.9,10.9,25.9z M12.9,36.8
		c0.3-0.6,0.8-1.1,1.3-1.4s1.3-0.5,2-0.5c0.5,0,0.9,0.1,1.3,0.2c0.4,0.1,0.7,0.3,1,0.5c0.3,0.2,0.5,0.5,0.7,0.8
		c0.2,0.3,0.3,0.6,0.4,1c0,0.2,0,0.2,0,0.3c0,0-0.1,0.1-0.2,0.1l-1.9,0.1c-0.1,0-0.1,0-0.2,0c0,0,0-0.1-0.1-0.2
		c-0.1-0.3-0.2-0.6-0.3-0.8s-0.4-0.3-0.8-0.3c-0.4,0-0.7,0.2-1,0.5c-0.2,0.4-0.4,1-0.4,1.9c0,0.9,0.1,1.5,0.3,1.9s0.6,0.5,1,0.5
		c0.4,0,0.7-0.1,1-0.3c0.3-0.2,0.5-0.5,0.7-1c0-0.1,0.1-0.1,0.3-0.1l1.4,0.3c0,0,0.1,0,0.1,0.1s0.1,0.1,0,0.3c0,0.1-0.1,0.3-0.2,0.5
		c-0.1,0.2-0.2,0.4-0.4,0.7c-0.2,0.2-0.4,0.5-0.7,0.7c-0.3,0.2-0.6,0.4-1,0.5c-0.4,0.1-0.8,0.2-1.3,0.2c-0.8,0-1.4-0.2-2-0.5
		c-0.6-0.4-1-0.9-1.3-1.5c-0.3-0.6-0.5-1.4-0.5-2.2S12.5,37.4,12.9,36.8z M16.6,26l-0.7-0.1v-0.3h0.7h2.2h0.7v0.3L18.7,26
		c0,0.9,0,2.2,0,3.3v0h2.2v0c0-1.1,0-2.3,0-3.3L20,25.9v-0.3h0.7h2.2h0.7v0.3L22.9,26c0,0.9,0,2.2,0,3.3v0.5c0,1.1,0,2.4,0,3.4
		l0.7,0.1v0.3h-0.7h-2.2H20v-0.3l0.7-0.1c0-1,0-2.3,0-3.4v-0.1h-2.2v0.1c0,1.1,0,2.4,0,3.4l0.7,0.1v0.3h-0.7h-2.2h-0.7v-0.3l0.7-0.1
		c0-1,0.1-2.3,0.1-3.4v-0.5C16.6,28.2,16.6,26.9,16.6,26z M24.3,19.1h2c0.2,0,0.2,0.1,0.2,0.2v1.3c0,0.1,0,0.1,0,0.1
		s-0.1,0.1-0.2,0.1h-2c-0.1,0-0.2,0.1-0.2,0.2v1.1c0,0.1,0,0.2,0.1,0.2h3.5c0.2,0,0.2,0.1,0.2,0.2v1.3c0,0.1,0,0.1-0.1,0.2
		S27.9,24,27.8,24H22c-0.2,0-0.3-0.1-0.3-0.3v-7.5c0-0.2,0.1-0.2,0.2-0.2h5.9c0.1,0,0.2,0.1,0.2,0.2l0,1.3c0,0.2-0.1,0.3-0.3,0.3
		h-3.3c-0.2,0-0.2,0.1-0.2,0.2v0.9C24.1,19,24.2,19.1,24.3,19.1z M31,19.8l-2.2-3.4c-0.1-0.1-0.1-0.2,0-0.2c0-0.1,0.1-0.1,0.2-0.1
		H31c0.1,0,0.2,0,0.3,0.1c0.1,0,0.1,0.1,0.2,0.2l1,1.7c0,0.1,0.1,0.1,0.1,0.1s0.1,0,0.1-0.1l1-1.7c0-0.1,0.1-0.1,0.2-0.2
		c0.1,0,0.2-0.1,0.3-0.1h1.7c0.1,0,0.2,0,0.2,0.1c0,0.1,0,0.2-0.1,0.2l-2.1,3.1c-0.1,0.1-0.1,0.1-0.1,0.2c0,0.1,0,0.1,0.1,0.2
		l2.3,3.6c0.1,0.2,0.2,0.4,0.1,0.4c0,0.1-0.1,0.1-0.3,0.1h-2c-0.2,0-0.4-0.1-0.5-0.2l-1.2-2c-0.1-0.1-0.1-0.2-0.2-0.2
		c0,0-0.1,0-0.2,0.1L31,23.8c0,0.1-0.1,0.1-0.2,0.2s-0.2,0-0.3,0H29c-0.2,0-0.2,0-0.3-0.1c0-0.1,0-0.2,0.1-0.4l2.1-3.3
		C31,20.1,31,20,31,20C31,19.9,31,19.9,31,19.8z M29.5,25.6h0.7v0.3L29.5,26c0,0.9,0,2.2,0,3.3v0h2.2v0c0-1.1,0-2.3,0-3.3l-0.7-0.1
		v-0.3h0.7h2.2h0.7v0.3L33.7,26c0,0.9,0,2.2,0,3.3v0.5c0,1.1,0,2.4,0,3.4l0.7,0.1v0.3h-0.7h-2.2h-0.7v-0.3l0.7-0.1c0-1,0-2.3,0-3.4
		v-0.1h-2.2v0.1c0,1.1,0,2.4,0,3.4l0.7,0.1v0.3h-0.7h-2.2h-0.7v-0.3l0.7-0.1c0-1,0.1-2.3,0.1-3.4v-0.5c0-1.1,0-2.3,0-3.3l-0.7-0.1
		v-0.3h0.7H29.5z M33.2,61.6l0.7,0.1V62h-0.7H31h-0.7v-0.3l0.7-0.1c0-1,0-2.3,0-3.4v-0.1H29v0.1c0,1.1,0,2.4,0,3.4l0.7,0.1V62H29
		h-2.2h-0.7v-0.3l0.7-0.1c0-1,0.1-2.3,0.1-3.4v-0.5c0-1.1,0-2.3,0-3.3l-0.7-0.1v-0.3h0.7H29h0.7v0.3L29,54.5c0,0.9,0,2.2,0,3.3v0
		h2.2v0c0-1.1,0-2.3,0-3.3l-0.7-0.1v-0.3H31h2.2h0.7v0.3l-0.7,0.1c0,0.9,0,2.2,0,3.3v0.5C33.2,59.4,33.2,60.7,33.2,61.6z M20.9,43
		c-0.2,0-0.3-0.1-0.3-0.3v-7.5c0-0.2,0.1-0.2,0.2-0.2h5.9c0.1,0,0.2,0.1,0.2,0.2l0,1.3c0,0.2-0.1,0.3-0.3,0.3h-3.3
		c-0.2,0-0.2,0.1-0.2,0.2v0.9c0,0.2,0.1,0.2,0.2,0.2h2c0.2,0,0.2,0.1,0.2,0.2v1.3c0,0.1,0,0.1,0,0.1c0,0-0.1,0.1-0.2,0.1h-2
		c-0.1,0-0.2,0.1-0.2,0.2v1.1c0,0.1,0,0.2,0.1,0.2h3.5c0.2,0,0.2,0.1,0.2,0.2v1.3c0,0.1,0,0.1-0.1,0.2c0,0-0.1,0.1-0.2,0.1H20.9z
		 M24.3,48.5c0,0.8-0.2,1.5-0.5,2.1c-0.3,0.6-0.8,1.1-1.4,1.4c-0.6,0.3-1.4,0.5-2.4,0.5h-2.9c-0.2,0-0.3-0.1-0.3-0.3v-7.5
		c0-0.1,0-0.2,0.1-0.2c0,0,0.1-0.1,0.2-0.1h0.7h0.8h0.8c0.2,0,0.5,0,0.6,0c1,0,1.8,0.2,2.4,0.6c0.6,0.3,1.1,0.8,1.4,1.4
		S24.3,47.7,24.3,48.5z M32.4,52.5c-0.2,0-0.4-0.1-0.4-0.3v-2.7c0-0.1-0.1-0.2-0.2-0.2H30c-0.1,0-0.2,0.1-0.2,0.2v2.7
		c0,0.2-0.1,0.3-0.4,0.3h-1.8c-0.1,0-0.2,0-0.2-0.1c0,0-0.1-0.1-0.1-0.2v-7.5c0-0.2,0.1-0.2,0.2-0.2h2.1c0.1,0,0.2,0.1,0.2,0.2v2.5
		c0,0.1,0.1,0.2,0.2,0.2h1.8c0.1,0,0.2-0.1,0.2-0.2v-2.5c0-0.2,0.1-0.2,0.2-0.2h2.1c0.1,0,0.2,0.1,0.2,0.2v7.5c0,0.1,0,0.2-0.1,0.2
		c0,0-0.1,0.1-0.2,0.1H32.4z M33.5,43.2c-1.9,0-3.6-1.3-3.6-4.2c0-2.9,1.7-4.2,3.6-4.2c1.9,0,3.6,1.3,3.6,4.2
		C37,41.9,35.4,43.2,33.5,43.2z M15.6,44.5c0.1,0,0.2,0.1,0.2,0.2l0,1.3c0,0.2-0.1,0.3-0.3,0.3h-3.3c-0.2,0-0.2,0.1-0.2,0.2v0.9
		c0,0.2,0.1,0.2,0.2,0.2h2c0.2,0,0.2,0.1,0.2,0.2v1.3c0,0.1,0,0.1,0,0.1c0,0-0.1,0.1-0.2,0.1h-2c-0.1,0-0.2,0.1-0.2,0.2v1.1
		c0,0.1,0,0.2,0.1,0.2h3.5c0.2,0,0.2,0.1,0.2,0.2v1.3c0,0.1,0,0.1-0.1,0.2s-0.1,0.1-0.2,0.1H9.8c-0.2,0-0.3-0.1-0.3-0.3v-7.5
		c0-0.2,0.1-0.2,0.2-0.2H15.6z M14.6,63.7c0-0.2,0.1-0.2,0.2-0.2h5.9c0.1,0,0.2,0.1,0.2,0.2l0,1.3c0,0.2-0.1,0.3-0.3,0.3h-3.3
		c-0.2,0-0.2,0.1-0.2,0.2v0.9c0,0.2,0.1,0.2,0.2,0.2h2c0.2,0,0.2,0.1,0.2,0.2v1.3c0,0.1,0,0.1,0,0.1s-0.1,0.1-0.2,0.1h-2
		c-0.1,0-0.2,0.1-0.2,0.2v1.1c0,0.1,0,0.2,0.1,0.2h3.5c0.2,0,0.2,0.1,0.2,0.2v1.3c0,0.1,0,0.1-0.1,0.2c0,0-0.1,0.1-0.2,0.1h-5.8
		c-0.2,0-0.3-0.1-0.3-0.3V63.7z M20.4,62v-0.3l0.8-0.1c0-1,0.1-2.3,0.1-3.3v-0.5c0-1.1,0-2.4,0-3.3h-1.1l-0.9,2.1h-0.3l0.1-2.4h2.1
		h2.2h2.1l0.1,2.4h-0.3l-0.9-2.1h-1.1c0,0.9,0,2.2,0,3.3v0.5c0,1.1,0,2.4,0,3.3l0.8,0.1V62h-0.8h-2.2H20.4z M21.6,71.1l2.6-7.4
		c0-0.1,0.1-0.2,0.1-0.2c0,0,0.1-0.1,0.2-0.1h2.1c0.2,0,0.3,0.1,0.4,0.3l2.6,7.4c0,0.1,0,0.2,0,0.2c0,0.1-0.1,0.1-0.2,0.1h-2.1
		c-0.1,0-0.2-0.1-0.2-0.2l-0.4-1.2c0,0,0-0.1,0-0.1c0,0-0.1,0-0.1,0h-2.3c-0.1,0-0.1,0-0.2,0.1l-0.4,1.3c0,0,0,0.1-0.1,0.1
		c0,0-0.1,0-0.2,0h-1.7c-0.1,0-0.1,0-0.2-0.1C21.5,71.4,21.6,71.3,21.6,71.1z M35.9,52.5c-0.1,0-0.2,0-0.2-0.1c0,0-0.1-0.1-0.1-0.2
		v-7.5c0-0.2,0.1-0.2,0.2-0.2h2.1c0.1,0,0.2,0.1,0.2,0.2v7.5c0,0.1,0,0.2-0.1,0.2c-0.1,0-0.1,0.1-0.3,0.1H35.9z M37.2,55.8
		c0.3-0.6,0.8-1.1,1.4-1.4c0.6-0.3,1.3-0.5,2.1-0.5s1.5,0.2,2,0.5c0.6,0.3,1,0.8,1.4,1.4c0.3,0.6,0.5,1.4,0.5,2.2
		c0,0.8-0.2,1.6-0.5,2.2s-0.8,1.1-1.4,1.4s-1.3,0.5-2.1,0.5c-0.8,0-1.5-0.2-2.1-0.5c-0.6-0.3-1-0.8-1.4-1.4
		c-0.3-0.6-0.5-1.3-0.5-2.2C36.7,57.2,36.9,56.5,37.2,55.8z M42.7,79.1c0-0.2,0.1-0.2,0.2-0.2h1.9c0.1,0,0.2,0.1,0.2,0.2v1.7
		c0,0.2-0.1,0.3-0.4,0.3H43c-0.2,0-0.3-0.1-0.3-0.3V79.1z M44.4,52.3c-0.5,0.2-1.1,0.3-1.9,0.3c-0.5,0-1-0.1-1.5-0.2
		c-0.5-0.1-0.9-0.3-1.2-0.5c-0.4-0.2-0.6-0.5-0.8-0.7c0-0.1-0.1-0.1-0.1-0.2c0-0.1,0-0.1,0.1-0.2l1.1-0.8c0.1-0.1,0.2-0.1,0.2-0.1
		c0.1,0,0.1,0,0.2,0.1c0.2,0.2,0.3,0.4,0.5,0.5c0.2,0.1,0.3,0.2,0.5,0.3S42,51,42.3,51c0.4,0,0.7-0.1,1-0.2s0.4-0.3,0.4-0.5
		c0-0.1,0-0.2-0.1-0.2c-0.1-0.1-0.1-0.1-0.2-0.2c-0.1-0.1-0.2-0.1-0.4-0.1l-1.7-0.4c-0.4-0.1-0.8-0.3-1.1-0.5
		c-0.3-0.2-0.6-0.5-0.7-0.8c-0.2-0.3-0.3-0.7-0.3-1.1c0-0.5,0.1-0.9,0.4-1.3s0.7-0.7,1.2-0.9c0.5-0.2,1.1-0.3,1.8-0.3
		c0.4,0,0.8,0,1.2,0.1c0.4,0.1,0.7,0.2,1.1,0.4c0.3,0.2,0.5,0.4,0.7,0.6c0,0.1,0.1,0.1,0.1,0.2c0,0.1,0,0.1-0.1,0.2l-1.2,0.9
		c-0.1,0-0.1,0-0.1,0c0,0-0.1-0.1-0.2-0.1c-0.1-0.1-0.3-0.3-0.5-0.4c-0.2-0.1-0.5-0.2-0.9-0.2c-0.4,0-0.7,0.1-0.9,0.2
		c-0.2,0.1-0.2,0.2-0.2,0.4c0,0.1,0,0.1,0.1,0.2c0,0.1,0.1,0.1,0.2,0.2c0.1,0.1,0.2,0.1,0.4,0.2l1.8,0.5c0.7,0.2,1.2,0.5,1.5,0.9
		C45.8,49,46,49.4,46,50c0,0.5-0.1,1-0.4,1.4S44.9,52.1,44.4,52.3z M41.6,30.4l-0.3-0.2c-0.9-0.5-1.8-1.1-1.8-2.5
		c0-1.3,0.9-2.4,2.8-2.4c0.8,0,1.5,0.3,1.9,0.6l0,1.9h-0.3L43,25.9c-0.2-0.1-0.4-0.2-0.7-0.2c-0.8,0-1.4,0.6-1.4,1.3
		c0,0.8,0.7,1.2,1.4,1.6l0.3,0.2c0.9,0.5,1.8,1.1,1.8,2.5c0,1.3-0.8,2.5-2.9,2.5c-0.8,0-1.5-0.2-2.2-0.6l0.1-1.9h0.3l0.8,2
		c0.3,0.2,0.6,0.2,1,0.2c0.8,0,1.4-0.6,1.4-1.4C42.9,31.2,42.3,30.8,41.6,30.4z M45.5,35.5l-0.7-0.1v-0.3h0.7h0.8h0.8h0.5h2.6
		l0.1,2.2h-0.3l-0.9-1.8h-1.6c0,0.9,0,2.2,0,3.3v0h1.1l0.4-1.2h0.3v2.7h-0.3l-0.4-1.2h-1.1v0.1c0,1.1,0,2.5,0,3.4h1.8l0.9-2h0.3
		L50.5,43h-2.8h-0.5h-0.5h-1.1h-0.7v-0.3l0.7-0.1c0-1,0.1-2.3,0.1-3.4v-0.5C45.5,37.7,45.5,36.4,45.5,35.5z M48.4,26l-0.7-0.1v-0.3
		h0.7h2.2h0.7v0.3L50.6,26c0,0.9,0,2.2,0,3.3v0.5c0,1.1,0,2.5,0,3.4h1.6l0.9-2.2h0.3l-0.1,2.5h-2.7H50h-0.5h-1.1h-0.7v-0.3l0.7-0.1
		c0-1,0.1-2.3,0.1-3.4v-0.5C48.5,28.2,48.5,26.9,48.4,26z M45.4,54.2c0-0.2,0.1-0.2,0.2-0.2h1.8c0.1,0,0.2,0,0.2,0
		c0,0,0.1,0.1,0.2,0.2l2.6,3.6c0.1,0.1,0.1,0.1,0.1,0.1c0,0,0,0,0-0.1v-3.6c0-0.2,0.1-0.2,0.2-0.2h1.6c0.1,0,0.2,0.1,0.2,0.2v7.7
		c0,0.1,0,0.1-0.1,0.1S52.4,62,52.3,62h-1.5c-0.1,0-0.1,0-0.1,0c0,0-0.1-0.1-0.1-0.1l-3-4.1c0,0-0.1-0.1-0.1,0c0,0,0,0,0,0.1v4
		c0,0.2-0.1,0.2-0.3,0.2h-1.5c-0.2,0-0.3-0.1-0.3-0.2V54.2z M54.1,43h-2.2h-0.7v-0.3l0.7-0.1c0-1,0.1-2.3,0.1-3.4v-0.5
		c0-1.1,0-2.3,0-3.3l-0.7-0.1v-0.3h0.7h1h0.6h0.5h0.2c2.4,0,3.2,0.7,3.2,2c0,1-1.1,1.9-2.8,2.1c1.9,0.2,2.4,0.6,2.8,1.6l0.7,1.9
		l0.6,0.1V43c-0.4,0.1-0.9,0.1-1.3,0.1c-1,0-1.6-0.3-1.8-1.2l-0.4-1.4c-0.2-0.7-0.4-1.3-1.1-1.3H54v0c0,1.1,0,2.4,0,3.3l0.8,0.1V43
		H54.1z M62.3,35.5l-0.7-0.1v-0.3h0.7h2.2h0.7v0.3l-0.7,0.1c0,0.9,0,2.2,0,3.3v0h2.2v0c0-1.1,0-2.3,0-3.3l-0.7-0.1v-0.3h0.7h2.2h0.7
		v0.3l-0.7,0.1c0,0.9,0,2.2,0,3.3v0.5c0,1.1,0,2.4,0,3.4l0.7,0.1V43h-0.7h-2.2h-0.7v-0.3l0.7-0.1c0-1,0-2.3,0-3.4v-0.1h-2.2v0.1
		c0,1.1,0,2.4,0,3.4l0.7,0.1V43h-0.7h-2.2h-0.7v-0.3l0.7-0.1c0-1,0.1-2.3,0.1-3.4v-0.5C62.3,37.7,62.3,36.4,62.3,35.5z M64,30.4
		l-0.3-0.2c-0.9-0.5-1.8-1.1-1.8-2.5c0-1.3,0.9-2.4,2.8-2.4c0.8,0,1.5,0.3,1.9,0.6l0,1.9h-0.3l-0.8-1.9c-0.2-0.1-0.4-0.2-0.7-0.2
		c-0.8,0-1.4,0.6-1.4,1.3c0,0.8,0.7,1.2,1.4,1.6l0.3,0.2c0.9,0.5,1.8,1.1,1.8,2.5c0,1.3-0.8,2.5-2.9,2.5c-0.8,0-1.5-0.2-2.2-0.6
		l0.1-1.9h0.3l0.8,2c0.3,0.2,0.6,0.2,1,0.2c0.8,0,1.4-0.6,1.4-1.4C65.4,31.2,64.8,30.8,64,30.4z M72.7,29.3L72.7,29.3
		c0-1.1,0-2.4,0-3.3l-0.7-0.1v-0.3h0.7h2.2h0.7v0.3L74.8,26c0,0.9,0,2.2,0,3.3v0.5c0,1.1,0,2.4,0,3.4l0.7,0.1v0.3h-0.7h-2.2h-0.7
		v-0.3l0.7-0.1c0-1,0-2.3,0-3.4v-0.1h-2.2v0.1c0,1.1,0,2.4,0,3.4l0.7,0.1v0.3h-0.7h-2.2h-0.7v-0.3l0.7-0.1c0-1,0.1-2.3,0.1-3.4v-0.5
		c0-1.1,0-2.3,0-3.3l-0.7-0.1v-0.3h0.7h2.2h0.7v0.3L70.6,26c0,0.9,0,2.2,0,3.3v0H72.7z M76.8,26l-0.7-0.1v-0.3h0.7h0.8h0.8H79h2.6
		l0.1,2.2h-0.3l-0.9-1.8H79c0,0.9,0,2.2,0,3.3v0H80l0.4-1.2h0.3v2.7h-0.3L80,29.7h-1.1v0.1c0,1.1,0,2.5,0,3.4h1.8l0.9-2H82l-0.1,2.3
		H79h-0.5H78h-1.1h-0.7v-0.3l0.7-0.1c0-1,0.1-2.3,0.1-3.4v-0.5C76.9,28.2,76.9,26.9,76.8,26z M85,30.4l-0.3-0.2
		c-0.9-0.5-1.8-1.1-1.8-2.5c0-1.3,0.9-2.4,2.8-2.4c0.8,0,1.5,0.3,1.9,0.6l0,1.9h-0.3l-0.8-1.9c-0.2-0.1-0.4-0.2-0.7-0.2
		c-0.8,0-1.4,0.6-1.4,1.3c0,0.8,0.7,1.2,1.4,1.6l0.3,0.2c0.9,0.5,1.8,1.1,1.8,2.5c0,1.3-0.8,2.5-2.9,2.5c-0.8,0-1.5-0.2-2.2-0.6
		l0.1-1.9h0.3l0.8,2c0.3,0.2,0.6,0.2,1,0.2c0.8,0,1.4-0.6,1.4-1.4C86.4,31.2,85.7,30.8,85,30.4z M93.9,28.5h1.8
		c0.1,0,0.2-0.1,0.2-0.2v-2.5c0-0.2,0.1-0.2,0.2-0.2h2.1c0.1,0,0.2,0.1,0.2,0.2v7.5c0,0.1,0,0.2-0.1,0.2c0,0-0.1,0.1-0.2,0.1h-1.8
		c-0.2,0-0.4-0.1-0.4-0.3v-2.7c0-0.1-0.1-0.2-0.2-0.2h-1.9c-0.1,0-0.2,0.1-0.2,0.2v2.7c0,0.2-0.1,0.3-0.4,0.3h-1.8
		c-0.1,0-0.2,0-0.2-0.1c0,0-0.1-0.1-0.1-0.2v-7.5c0-0.2,0.1-0.2,0.2-0.2h2.1c0.1,0,0.2,0.1,0.2,0.2v2.5
		C93.7,28.4,93.8,28.5,93.9,28.5z M102.3,38.8l0.4-1.2h0.3v2.7h-0.3l-0.4-1.2h-1.1v0.1c0,1.1,0,2.5,0,3.4h1.8l0.9-2h0.3l-0.1,2.3
		h-2.8h-0.5h-0.5h-1.1h-0.7v-0.3l0.7-0.1c0-1,0.1-2.3,0.1-3.4v-0.5c0-1.1,0-2.3,0-3.3l-0.7-0.1v-0.3h0.7h0.8h0.8h0.5h2.6l0.1,2.2
		h-0.3l-0.9-1.8h-1.6c0,0.9,0,2.2,0,3.3v0H102.3z M95,58.9l-0.3-0.2c-0.9-0.5-1.8-1.1-1.8-2.5c0-1.3,0.9-2.4,2.8-2.4
		c0.8,0,1.5,0.3,1.9,0.6l0,1.9h-0.3l-0.8-1.9c-0.2-0.1-0.4-0.2-0.7-0.2c-0.8,0-1.4,0.6-1.4,1.3c0,0.8,0.7,1.2,1.4,1.6l0.3,0.2
		c0.9,0.5,1.8,1.1,1.8,2.5c0,1.3-0.8,2.5-2.9,2.5c-0.8,0-1.5-0.2-2.2-0.6l0.1-1.9h0.3l0.8,2c0.3,0.2,0.6,0.2,1,0.2
		c0.8,0,1.4-0.6,1.4-1.4C96.4,59.7,95.8,59.3,95,58.9z M96.3,52.5h-0.9v-0.3l0.8-0.1L95.6,50h-2l-0.6,2.1l0.8,0.1v0.3h-1h-0.4h-0.6
		v-0.3l0.7-0.1l2.4-7.6H96l2.4,7.5l0.7,0.1v0.3h-0.6H96.3z M85.6,52.3l0.7-0.1c0-1,0.1-2.3,0.1-3.4v-0.5c0-1.1,0-2.3,0-3.3l-0.7-0.1
		v-0.3h0.7h0.8h0.8h0.5h2.6l0.1,2.2H91L90,44.9h-1.6c0,0.9,0,2.2,0,3.3v0h1.1l0.4-1.2h0.3v2.7h-0.3l-0.4-1.2h-1.1v0.1
		c0,1.1,0,2.5,0,3.4h1.8l0.9-2h0.3l-0.1,2.3h-2.8h-0.5h-0.5h-1.1h-0.7V52.3z M84.4,43c-0.2,0-0.3-0.1-0.3-0.3v-1.7
		c0-0.2,0.1-0.2,0.2-0.2h1.9c0.1,0,0.2,0.1,0.2,0.2v1.7c0,0.2-0.1,0.3-0.4,0.3H84.4z M87.9,42.8v-1.7c0-0.2,0.1-0.2,0.2-0.2H90
		c0.1,0,0.2,0.1,0.2,0.2v1.7c0,0.2-0.1,0.3-0.4,0.3h-1.6C88,43,87.9,43,87.9,42.8z M90.9,43v-0.3l0.8-0.1v-6.8l-0.3-0.4l-0.6-0.1
		v-0.3h2.7l3.2,5v-1v-3.6l-1-0.1v-0.3h1h0.4h0.7v0.3l-0.7,0.1V43h-0.9l-4.2-6.6v2.6v3.6l0.9,0.1V43h-0.9h-0.4H90.9z M90.2,23.9
		c0.2,0,0.4,0,0.7-0.1l1-2.1h0.3L92,23.8c-0.5,0.3-1.3,0.4-2,0.4c-1.9,0-3.9-1.2-3.9-4.2c0-3.1,2.1-4.2,3.9-4.2c0.7,0,1.4,0.2,2,0.5
		l0.1,2h-0.3l-1-2c-0.2-0.1-0.5-0.1-0.7-0.1c-1,0-1.9,1.1-1.9,3.9C88.3,22.9,89.2,23.9,90.2,23.9z M84.3,44.6H85v0.3L84.3,45
		c0,0.9,0,2.2,0,3.3v0.5c0,1.1,0,2.4,0,3.4l0.7,0.1v0.3h-0.7h-2.2h-0.7v-0.3l0.7-0.1c0-1,0-2.3,0-3.4v-0.1H80v0.1c0,1.1,0,2.4,0,3.4
		l0.7,0.1v0.3h-0.7h-2.2h-0.7v-0.3l0.7-0.1c0-1,0.1-2.3,0.1-3.4v-0.5c0-1.1,0-2.3,0-3.3l-0.7-0.1v-0.3h0.7h2.2h0.7v0.3L80,45
		c0,0.9,0,2.2,0,3.3v0h2.2v0c0-1.1,0-2.3,0-3.3l-0.7-0.1v-0.3h0.7H84.3z M82.6,42.7c0,0.2-0.1,0.3-0.4,0.3h-1.6
		c-0.2,0-0.3-0.1-0.3-0.3v-1.7c0-0.2,0.1-0.2,0.2-0.2h1.9c0.1,0,0.2,0.1,0.2,0.2V42.7z M77.2,34.9c0.8,0,1.5,0.3,1.9,0.6l0,1.9h-0.3
		L78,35.4c-0.2-0.1-0.4-0.2-0.7-0.2c-0.8,0-1.4,0.6-1.4,1.3c0,0.8,0.7,1.2,1.4,1.6l0.3,0.2c0.9,0.5,1.8,1.1,1.8,2.5
		c0,1.3-0.8,2.5-2.9,2.5c-0.8,0-1.5-0.2-2.2-0.6l0.1-1.9h0.3l0.8,2c0.3,0.2,0.6,0.2,1,0.2c0.8,0,1.4-0.6,1.4-1.4
		c0-0.8-0.6-1.2-1.4-1.6l-0.3-0.2c-0.9-0.5-1.8-1.1-1.8-2.5C74.4,36,75.3,34.9,77.2,34.9z M72.1,59.6c-0.1-0.1-0.1-0.1-0.2-0.2
		c-0.1-0.1-0.2-0.1-0.4-0.1l-1.7-0.4c-0.4-0.1-0.8-0.3-1.1-0.5c-0.3-0.2-0.6-0.5-0.7-0.8c-0.2-0.3-0.3-0.7-0.3-1.1
		c0-0.5,0.1-0.9,0.4-1.3s0.7-0.7,1.2-0.9c0.5-0.2,1.1-0.3,1.8-0.3c0.4,0,0.8,0,1.2,0.1c0.4,0.1,0.7,0.2,1.1,0.4
		c0.3,0.2,0.6,0.4,0.7,0.6c0,0.1,0.1,0.1,0.1,0.2c0,0.1,0,0.1-0.1,0.2l-1.2,0.9c-0.1,0-0.1,0-0.1,0s-0.1-0.1-0.2-0.1
		c-0.1-0.1-0.3-0.3-0.5-0.4c-0.2-0.1-0.5-0.2-0.9-0.2c-0.4,0-0.7,0.1-0.9,0.2C70.1,55.9,70,56,70,56.1c0,0.1,0,0.1,0.1,0.2
		c0,0.1,0.1,0.1,0.2,0.2c0.1,0.1,0.2,0.1,0.4,0.2l1.8,0.5c0.7,0.2,1.2,0.5,1.5,0.9c0.3,0.4,0.5,0.9,0.5,1.5c0,0.5-0.1,1-0.4,1.4
		c-0.3,0.4-0.7,0.7-1.2,0.9c-0.5,0.2-1.1,0.3-1.9,0.3c-0.5,0-1-0.1-1.5-0.2s-0.9-0.3-1.2-0.5s-0.6-0.5-0.8-0.7
		c0-0.1-0.1-0.1-0.1-0.2c0-0.1,0-0.1,0.1-0.2l1.1-0.8c0.1-0.1,0.2-0.1,0.2-0.1c0.1,0,0.1,0,0.2,0.1c0.2,0.2,0.3,0.4,0.5,0.5
		s0.3,0.2,0.5,0.3c0.2,0.1,0.5,0.1,0.7,0.1c0.4,0,0.7-0.1,1-0.2s0.4-0.3,0.4-0.5C72.1,59.8,72.1,59.7,72.1,59.6z M70.6,35.5
		l-0.7-0.1v-0.3h0.7h2.2h0.7v0.3l-0.7,0.1c0,0.9-0.1,2.2-0.1,3.3v0.5c0,1.1,0,2.4,0,3.4l0.7,0.1V43h-0.7h-2.2h-0.7v-0.3l0.7-0.1
		c0-1,0.1-2.3,0.1-3.4v-0.5C70.7,37.7,70.7,36.4,70.6,35.5z M73.6,52.5h-0.5h-0.5h-1.1h-0.7v-0.3l0.7-0.1c0-1,0.1-2.3,0.1-3.4v-0.5
		c0-1.1,0-2.3,0-3.3l-0.7-0.1v-0.3h0.7h0.8h0.8h0.5h2.6l0.1,2.2h-0.3l-0.9-1.8h-1.6c0,0.9,0,2.2,0,3.3v0h1.1l0.4-1.2h0.3v2.7H75
		l-0.4-1.2h-1.1v0.1c0,1.1,0,2.5,0,3.4h1.8l0.9-2h0.3l-0.1,2.3H73.6z M69.3,17.5c0,0.1-0.1,0.2-0.2,0.2h-1.9c-0.1,0-0.1,0-0.1,0.1v6
		C67,24,67,24,66.8,24h-2.1c-0.1,0-0.2-0.1-0.2-0.2v-5.9c0-0.1,0-0.2-0.1-0.2h-1.9c-0.2,0-0.2-0.1-0.2-0.2v-1.3c0-0.1,0-0.1,0.1-0.2
		c0,0,0.1-0.1,0.2-0.1h6.5c0.1,0,0.2,0,0.2,0.1c0,0,0.1,0.1,0.1,0.2V17.5z M62.2,48.6c0,2.9-1.7,4.2-3.6,4.2c-1.9,0-3.6-1.3-3.6-4.2
		s1.7-4.2,3.6-4.2C60.5,44.4,62.2,45.7,62.2,48.6z M61.1,33.5h-0.6h-2.2h-0.9v-0.3l0.8-0.1L57.6,31h-2l-0.6,2.1l0.8,0.1v0.3h-1h-0.4
		h-0.6v-0.3l0.7-0.1l2.4-7.6H58l2.4,7.5l0.7,0.1V33.5z M62.7,62h-1.8c-0.2,0-0.4-0.1-0.4-0.3V59c0-0.1-0.1-0.2-0.2-0.2h-1.9
		c-0.1,0-0.2,0.1-0.2,0.2v2.7c0,0.2-0.1,0.3-0.4,0.3h-1.8C56,62,56,62,55.9,62c0,0-0.1-0.1-0.1-0.2v-7.5c0-0.2,0.1-0.2,0.2-0.2h2.1
		c0.1,0,0.2,0.1,0.2,0.2v2.5c0,0.1,0.1,0.2,0.2,0.2h1.8c0.1,0,0.2-0.1,0.2-0.2v-2.5c0-0.2,0.1-0.2,0.2-0.2h2.1
		c0.1,0,0.2,0.1,0.2,0.2v7.5c0,0.1,0,0.2-0.1,0.2C62.9,62,62.8,62,62.7,62z M62.8,52.5v-0.3l0.7-0.1c0-1,0.1-2.3,0.1-3.4v-0.5
		c0-1.1,0-2.3,0-3.3l-0.7-0.1v-0.3h0.7h1h0.6h0.5h0.2c2.4,0,3.2,0.7,3.2,2c0,1-1.1,1.9-2.8,2.1c1.9,0.2,2.4,0.6,2.8,1.6l0.7,1.9
		l0.6,0.1v0.3c-0.4,0.1-0.9,0.1-1.3,0.1c-1,0-1.6-0.3-1.8-1.2l-0.4-1.4c-0.2-0.7-0.4-1.3-1.1-1.3h-0.1v0c0,1.1,0,2.4,0,3.3l0.8,0.1
		v0.3h-0.8h-2.2H62.8z M66.6,54.2v7.5c0,0.1,0,0.2-0.1,0.2c-0.1,0-0.1,0.1-0.3,0.1h-1.8c-0.1,0-0.2,0-0.2-0.1c0,0-0.1-0.1-0.1-0.2
		v-7.5c0-0.2,0.1-0.2,0.2-0.2h2.1C66.5,54,66.6,54.1,66.6,54.2z M63.7,63.7c0-0.2,0.1-0.2,0.2-0.2h3c0.1,0,0.2,0,0.2,0
		s0.1,0.1,0.1,0.2l1.1,3.5c0,0.1,0,0.1,0.1,0.1c0,0,0.1,0,0.1-0.1l1-3.3c0.1-0.2,0.2-0.3,0.3-0.3H73c0.1,0,0.2,0.1,0.2,0.2v7.5
		c0,0.2-0.1,0.3-0.3,0.3H71c-0.1,0-0.2,0-0.2-0.1c0,0-0.1-0.1-0.1-0.2v-4.9c0-0.1,0-0.1,0-0.1c0,0-0.1,0-0.1,0.1L69,71.4
		c-0.1,0.1-0.1,0.2-0.3,0.2h-1.1c-0.1,0-0.2-0.1-0.3-0.2l-1.6-4.9c0-0.1-0.1-0.1-0.1-0.1c0,0,0,0.1,0,0.1v4.8c0,0.1,0,0.2,0,0.2
		c0,0-0.1,0-0.2,0H64c-0.2,0-0.3-0.1-0.3-0.3V63.7z M69.6,73.2c0-0.2,0.1-0.2,0.2-0.2h5.9c0.1,0,0.2,0.1,0.2,0.2l0,1.3
		c0,0.2-0.1,0.3-0.3,0.3h-3.3c-0.2,0-0.2,0.1-0.2,0.2v0.9c0,0.2,0.1,0.2,0.2,0.2h2c0.2,0,0.2,0.1,0.2,0.2v1.3c0,0.1,0,0.1,0,0.1
		c0,0-0.1,0.1-0.2,0.1h-2c-0.1,0-0.2,0.1-0.2,0.2v1.1c0,0.1,0,0.2,0.1,0.2h3.5c0.2,0,0.2,0.1,0.2,0.2v1.3c0,0.1,0,0.1-0.1,0.2
		c0,0-0.1,0.1-0.2,0.1h-5.8c-0.2,0-0.3-0.1-0.3-0.3V73.2z M74.6,71.5c-0.2,0-0.3-0.1-0.3-0.3v-7.5c0-0.2,0.1-0.2,0.2-0.2h5.9
		c0.1,0,0.2,0.1,0.2,0.2l0,1.3c0,0.2-0.1,0.3-0.3,0.3H77c-0.2,0-0.2,0.1-0.2,0.2v0.9c0,0.2,0.1,0.2,0.2,0.2h2c0.2,0,0.2,0.1,0.2,0.2
		v1.3c0,0.1,0,0.1,0,0.1c0,0-0.1,0.1-0.2,0.1h-2c-0.1,0-0.2,0.1-0.2,0.2v1.1c0,0.1,0,0.2,0.1,0.2h3.5c0.2,0,0.2,0.1,0.2,0.2v1.3
		c0,0.1,0,0.1-0.1,0.2c0,0-0.1,0.1-0.2,0.1H74.6z M78.4,55.5v2.6v3.6l0.9,0.1V62h-0.9H78h-0.8v-0.3l0.8-0.1v-6.8l-0.3-0.4l-0.6-0.1
		v-0.3h2.7l3.2,5v-1v-3.6l-1-0.1v-0.3h1h0.4h0.7v0.3l-0.7,0.1V62h-0.9L78.4,55.5z M83.5,69.9l1.1-0.8c0.1-0.1,0.2-0.1,0.2-0.1
		c0.1,0,0.1,0,0.2,0.1c0.2,0.2,0.3,0.4,0.5,0.5c0.2,0.1,0.3,0.2,0.5,0.3c0.2,0.1,0.5,0.1,0.7,0.1c0.4,0,0.7-0.1,1-0.2
		c0.2-0.1,0.4-0.3,0.4-0.5c0-0.1,0-0.2-0.1-0.2C88,69,87.9,69,87.9,68.9c-0.1-0.1-0.2-0.1-0.4-0.1l-1.7-0.4
		c-0.4-0.1-0.8-0.3-1.1-0.5c-0.3-0.2-0.6-0.5-0.7-0.8c-0.2-0.3-0.3-0.7-0.3-1.1c0-0.5,0.1-0.9,0.4-1.3s0.7-0.7,1.2-0.9
		c0.5-0.2,1.1-0.3,1.8-0.3c0.4,0,0.8,0,1.2,0.1c0.4,0.1,0.7,0.2,1.1,0.4c0.3,0.2,0.5,0.4,0.7,0.6c0,0.1,0.1,0.1,0.1,0.2
		c0,0.1,0,0.1-0.1,0.2l-1.2,0.9c-0.1,0-0.1,0-0.1,0s-0.1-0.1-0.2-0.1c-0.1-0.1-0.3-0.3-0.5-0.4c-0.2-0.1-0.5-0.2-0.9-0.2
		c-0.4,0-0.7,0.1-0.9,0.2c-0.2,0.1-0.2,0.2-0.2,0.4c0,0.1,0,0.1,0.1,0.2c0,0.1,0.1,0.1,0.2,0.2c0.1,0.1,0.2,0.1,0.4,0.2l1.8,0.5
		c0.7,0.2,1.2,0.5,1.5,0.9c0.3,0.4,0.5,0.9,0.5,1.5c0,0.5-0.1,1-0.4,1.4c-0.3,0.4-0.7,0.7-1.2,0.9c-0.5,0.2-1.1,0.3-1.9,0.3
		c-0.5,0-1-0.1-1.5-0.2c-0.5-0.1-0.9-0.3-1.2-0.5c-0.4-0.2-0.6-0.5-0.8-0.7c0-0.1-0.1-0.1-0.1-0.2C83.4,70,83.5,69.9,83.5,69.9z
		 M88.3,62.2c-1.9,0-3.6-1.3-3.6-4.2c0-2.9,1.7-4.2,3.6-4.2c1.9,0,3.6,1.3,3.6,4.2C91.9,60.9,90.2,62.2,88.3,62.2z M105.9,33.3
		c0,0.1,0,0.1-0.1,0.2c0,0-0.1,0.1-0.2,0.1h-5.8c-0.2,0-0.3-0.1-0.3-0.3v-7.5c0-0.2,0.1-0.2,0.2-0.2h5.9c0.1,0,0.2,0.1,0.2,0.2
		l0,1.3c0,0.2-0.1,0.3-0.3,0.3h-3.3c-0.2,0-0.2,0.1-0.2,0.2v0.9c0,0.2,0.1,0.2,0.2,0.2h2c0.2,0,0.2,0.1,0.2,0.2v1.3
		c0,0.1,0,0.1,0,0.1c0,0-0.1,0.1-0.2,0.1h-2c-0.1,0-0.2,0.1-0.2,0.2v1.1c0,0.1,0,0.2,0.1,0.2h3.5c0.2,0,0.2,0.1,0.2,0.2V33.3z
		 M106.4,20.1c0,2.9-1.7,4.2-3.6,4.2c-1.9,0-3.6-1.3-3.6-4.2c0-2.9,1.7-4.2,3.6-4.2C104.7,15.9,106.4,17.2,106.4,20.1z M97.3,6.7
		c0-0.2,0.1-0.2,0.2-0.2h1.8c0.1,0,0.2,0,0.2,0c0,0,0.1,0.1,0.2,0.2l2.6,3.6c0.1,0.1,0.1,0.1,0.1,0.1c0,0,0,0,0-0.1V6.7
		c0-0.2,0.1-0.2,0.2-0.2h1.6c0.1,0,0.2,0.1,0.2,0.2v7.7c0,0.1,0,0.1-0.1,0.1c0,0-0.1,0.1-0.2,0.1h-1.5c-0.1,0-0.1,0-0.1,0
		c0,0-0.1-0.1-0.1-0.1l-3-4.1c0,0-0.1-0.1-0.1,0c0,0,0,0,0,0.1v4c0,0.2-0.1,0.2-0.3,0.2h-1.5c-0.2,0-0.3-0.1-0.3-0.2V6.7z
		 M95.9,23.7h1.6l0.9-2.2h0.3L98.5,24h-2.7h-0.5h-0.5h-1.1H93v-0.3l0.7-0.1c0-1,0.1-2.3,0.1-3.4v-0.5c0-1.1,0-2.3,0-3.3L93,16.4
		v-0.3h0.7h2.2h0.7v0.3l-0.7,0.1c0,0.9,0,2.2,0,3.3v0.5C95.8,21.4,95.8,22.7,95.9,23.7z M91,6.7c0-0.1,0.1-0.2,0.1-0.2
		c0,0,0.1-0.1,0.2-0.1h2.1c0.2,0,0.3,0.1,0.4,0.3l2.6,7.4c0,0.1,0,0.2,0,0.2c0,0.1-0.1,0.1-0.2,0.1h-2.1c-0.1,0-0.2-0.1-0.2-0.2
		l-0.4-1.2c0,0,0-0.1,0-0.1c0,0-0.1,0-0.1,0H91c-0.1,0-0.1,0-0.2,0.1l-0.4,1.3c0,0,0,0.1-0.1,0.1c0,0-0.1,0-0.2,0h-1.7
		c-0.1,0-0.1,0-0.2-0.1c0-0.1,0-0.2,0-0.3L91,6.7z M86.9,3.1c0-0.2,0.1-0.2,0.2-0.2H89c0.1,0,0.2,0.1,0.2,0.2v1.7
		C89.1,4.9,89,5,88.8,5h-1.6c-0.2,0-0.3-0.1-0.3-0.3V3.1z M83.1,3.1c0-0.2,0.1-0.2,0.2-0.2h1.9c0.1,0,0.2,0.1,0.2,0.2v1.7
		C85.3,4.9,85.2,5,85,5h-1.6c-0.2,0-0.3-0.1-0.3-0.3V3.1z M82.8,6.7v2.5c0,0.1,0.1,0.2,0.2,0.2h1.8c0.1,0,0.2-0.1,0.2-0.2V6.7
		c0-0.2,0.1-0.2,0.2-0.2h2.1c0.1,0,0.2,0.1,0.2,0.2v7.5c0,0.1,0,0.2-0.1,0.2c0,0-0.1,0.1-0.2,0.1h-1.8c-0.2,0-0.4-0.1-0.4-0.3v-2.7
		c0-0.1-0.1-0.2-0.2-0.2H83c-0.1,0-0.2,0.1-0.2,0.2v2.7c0,0.2-0.1,0.3-0.4,0.3h-1.8c-0.1,0-0.2,0-0.2-0.1c0,0-0.1-0.1-0.1-0.2V6.7
		c0-0.2,0.1-0.2,0.2-0.2h2.1C82.7,6.5,82.8,6.6,82.8,6.7z M79.3,3.1c0-0.2,0.1-0.2,0.2-0.2h1.9c0.1,0,0.2,0.1,0.2,0.2v1.7
		c0,0.2-0.1,0.3-0.4,0.3h-1.6c-0.2,0-0.3-0.1-0.3-0.3V3.1z M78.1,16c0,0,0.1,0.1,0.1,0.2l1.3,2.4c0,0.1,0.1,0.1,0.1,0.1
		c0,0,0.1,0,0.1-0.1l1.3-2.4c0-0.1,0.1-0.2,0.1-0.2c0.1,0,0.1,0,0.2,0h1.7c0.1,0,0.2,0,0.2,0.1c0,0,0,0.1,0,0.2l-2.5,4.1
		c-0.1,0.1-0.1,0.2-0.1,0.2c0,0.1,0,0.2,0,0.5v2.7c0,0.2-0.1,0.3-0.4,0.3h-1.8c-0.1,0-0.2,0-0.2-0.1c0,0-0.1-0.1-0.1-0.2v-2.9
		c0-0.1,0-0.2,0-0.3c0-0.1-0.1-0.1-0.1-0.2l-2.5-4.1c-0.1-0.1-0.1-0.2,0-0.2c0-0.1,0.1-0.1,0.2-0.1h2.2C78,16,78.1,16,78.1,16z
		 M70.3,12.9l1.1-0.8c0.1-0.1,0.2-0.1,0.2-0.1c0.1,0,0.1,0,0.2,0.1c0.2,0.2,0.3,0.4,0.5,0.5c0.2,0.1,0.3,0.2,0.5,0.3
		c0.2,0.1,0.5,0.1,0.7,0.1c0.4,0,0.7-0.1,1-0.2c0.2-0.1,0.4-0.3,0.4-0.5c0-0.1,0-0.2-0.1-0.2c-0.1-0.1-0.1-0.1-0.2-0.2
		s-0.2-0.1-0.4-0.1l-1.7-0.4c-0.4-0.1-0.8-0.3-1.1-0.5c-0.3-0.2-0.6-0.5-0.7-0.8c-0.2-0.3-0.3-0.7-0.3-1.1c0-0.5,0.1-0.9,0.4-1.3
		s0.7-0.7,1.2-0.9c0.5-0.2,1.1-0.3,1.8-0.3c0.4,0,0.8,0,1.2,0.1c0.4,0.1,0.7,0.2,1.1,0.4c0.3,0.2,0.6,0.4,0.7,0.6
		c0,0.1,0.1,0.1,0.1,0.2s0,0.1-0.1,0.2l-1.2,0.9c-0.1,0-0.1,0-0.1,0c0,0-0.1-0.1-0.2-0.1c-0.1-0.1-0.3-0.3-0.5-0.4
		c-0.2-0.1-0.5-0.2-0.9-0.2c-0.4,0-0.7,0.1-0.9,0.2c-0.2,0.1-0.2,0.2-0.2,0.4c0,0.1,0,0.1,0.1,0.2c0,0.1,0.1,0.1,0.2,0.2
		c0.1,0.1,0.2,0.1,0.4,0.2l1.8,0.5c0.7,0.2,1.2,0.5,1.5,0.9c0.3,0.4,0.5,0.9,0.5,1.5c0,0.5-0.1,1-0.4,1.4c-0.3,0.4-0.7,0.7-1.2,0.9
		c-0.5,0.2-1.1,0.3-1.9,0.3c-0.5,0-1-0.1-1.5-0.2s-0.9-0.3-1.2-0.5c-0.4-0.2-0.6-0.5-0.8-0.7c0-0.1-0.1-0.1-0.1-0.2
		C70.2,13,70.3,12.9,70.3,12.9z M70.2,16.2c0-0.2,0.1-0.2,0.2-0.2h2.1c0.1,0,0.2,0.1,0.2,0.2v5.9c0,0.1,0,0.2,0.1,0.2h3.3
		c0.2,0,0.2,0.1,0.2,0.2v1.3c0,0.1,0,0.1-0.1,0.2c0,0-0.1,0.1-0.2,0.1h-5.5c-0.1,0-0.2,0-0.2-0.1c0,0-0.1-0.1-0.1-0.2V16.2z
		 M66.9,6.7c0-0.2,0.1-0.2,0.2-0.2h2.1c0.1,0,0.2,0.1,0.2,0.2v7.5c0,0.1,0,0.2-0.1,0.2c-0.1,0-0.1,0.1-0.3,0.1h-1.8
		c-0.1,0-0.2,0-0.2-0.1c0,0-0.1-0.1-0.1-0.2V6.7z M58.7,6.7c0-0.2,0.1-0.2,0.2-0.2h2.1c0.1,0,0.2,0.1,0.2,0.2v2.5
		c0,0.1,0.1,0.2,0.2,0.2h1.8c0.1,0,0.2-0.1,0.2-0.2V6.7c0-0.2,0.1-0.2,0.2-0.2h2.1c0.1,0,0.2,0.1,0.2,0.2v7.5c0,0.1,0,0.2-0.1,0.2
		c0,0-0.1,0.1-0.2,0.1h-1.8c-0.2,0-0.4-0.1-0.4-0.3v-2.7c0-0.1-0.1-0.2-0.2-0.2h-1.9c-0.1,0-0.2,0.1-0.2,0.2v2.7
		c0,0.2-0.1,0.3-0.4,0.3H59c-0.1,0-0.2,0-0.2-0.1c0,0-0.1-0.1-0.1-0.2V6.7z M58.5,16c1,0,1.9,0.2,2.4,0.6c0.6,0.4,0.9,1,0.9,1.7
		c0,0.3-0.1,0.7-0.2,0.9c-0.1,0.3-0.3,0.5-0.5,0.7c-0.2,0.2-0.5,0.4-0.7,0.5c-0.1,0-0.1,0.1,0,0.2l1.4,3c0,0.1,0,0.2,0,0.2
		c0,0.1-0.1,0.1-0.2,0.1h-2.1c-0.2,0-0.2-0.1-0.3-0.2l-1-2.8c0-0.1-0.2-0.2-0.3-0.2h-0.5c-0.1,0-0.1,0-0.1,0c0,0,0,0.1,0,0.1v2.8
		c0,0.2-0.1,0.3-0.4,0.3h-1.8c-0.1,0-0.2,0-0.2-0.1c0,0-0.1-0.1-0.1-0.2v-7.5c0-0.2,0.1-0.2,0.2-0.2H58.5z M49.4,6.7
		c0-0.2,0.1-0.2,0.2-0.2h5.8c0.1,0,0.2,0.1,0.2,0.2l0,1.3c0,0.2-0.1,0.3-0.3,0.3h-3.2c-0.2,0-0.2,0.1-0.2,0.2v1
		c0,0.1,0.1,0.2,0.2,0.2h2c0.1,0,0.2,0.1,0.2,0.2v1.3c0,0.1-0.1,0.2-0.2,0.2h-2c-0.1,0-0.2,0.1-0.2,0.2v2.6c0,0.2-0.1,0.3-0.4,0.3
		h-1.8c-0.1,0-0.2,0-0.2-0.1c0,0-0.1-0.1-0.1-0.2V6.7z M50.8,16c0.2,0,0.3,0.1,0.4,0.3l2.6,7.4c0,0.1,0,0.2,0,0.2
		c0,0.1-0.1,0.1-0.2,0.1h-2.1c-0.1,0-0.2-0.1-0.2-0.2l-0.4-1.2c0,0,0-0.1,0-0.1c0,0-0.1,0-0.1,0h-2.3c-0.1,0-0.1,0-0.2,0.1l-0.4,1.3
		c0,0,0,0.1-0.1,0.1c0,0-0.1,0-0.2,0h-1.7c-0.1,0-0.1,0-0.2-0.1c0-0.1,0-0.2,0-0.3l2.6-7.4c0-0.1,0.1-0.2,0.1-0.2
		c0,0,0.1-0.1,0.2-0.1H50.8z M41.2,8.3c0.3-0.6,0.8-1.1,1.4-1.4c0.6-0.3,1.3-0.5,2.1-0.5c0.8,0,1.5,0.2,2,0.5c0.6,0.3,1,0.8,1.4,1.4
		c0.3,0.6,0.5,1.4,0.5,2.2c0,0.8-0.2,1.6-0.5,2.2c-0.3,0.6-0.8,1.1-1.4,1.4c-0.6,0.3-1.3,0.5-2.1,0.5c-0.8,0-1.5-0.2-2.1-0.5
		c-0.6-0.3-1-0.8-1.4-1.4c-0.3-0.6-0.5-1.3-0.5-2.2C40.7,9.7,40.9,9,41.2,8.3z M39.3,16.2c0-0.2,0.1-0.2,0.2-0.2h3.6
		c0.6,0,1.1,0.1,1.6,0.3c0.5,0.2,0.9,0.5,1.2,0.9c0.3,0.4,0.4,0.9,0.4,1.5c0,0.5-0.1,1-0.4,1.4c-0.3,0.4-0.6,0.7-1,0.9
		c-0.4,0.2-1,0.3-1.6,0.3h-1.5c-0.1,0-0.1,0-0.1,0.1v2.5c0,0.2-0.1,0.3-0.4,0.3h-1.8c-0.1,0-0.2,0-0.2-0.1c0,0-0.1-0.1-0.1-0.2V16.2
		z M39.9,35.1h1v0.3L40,35.5l1.6,5.5l1.6-5.6l-0.8-0.1v-0.3h1h0.4h0.6v0.3l-0.7,0.1L41.3,43h-1.2l-2.3-7.5l-0.7-0.1v-0.3h0.5H39.9z
		 M38.6,25.6v0.3L37.9,26c0,0.9-0.1,2.2-0.1,3.3v0.5c0,1.1,0,2.4,0,3.4l0.7,0.1v0.3h-0.7h-2.2H35v-0.3l0.7-0.1c0-1,0.1-2.3,0.1-3.4
		v-0.5c0-1.1,0-2.3-0.1-3.3L35,25.9v-0.3h0.7h2.2H38.6z M31,12.9l1.1-0.8c0.1-0.1,0.2-0.1,0.2-0.1c0.1,0,0.1,0,0.2,0.1
		c0.2,0.2,0.3,0.4,0.5,0.5c0.2,0.1,0.3,0.2,0.5,0.3c0.2,0.1,0.5,0.1,0.7,0.1c0.4,0,0.7-0.1,1-0.2c0.2-0.1,0.4-0.3,0.4-0.5
		c0-0.1,0-0.2-0.1-0.2c-0.1-0.1-0.1-0.1-0.2-0.2s-0.2-0.1-0.4-0.1l-1.7-0.4c-0.4-0.1-0.8-0.3-1.1-0.5c-0.3-0.2-0.6-0.5-0.7-0.8
		c-0.2-0.3-0.3-0.7-0.3-1.1c0-0.5,0.1-0.9,0.4-1.3s0.7-0.7,1.2-0.9c0.5-0.2,1.1-0.3,1.8-0.3c0.4,0,0.8,0,1.2,0.1
		c0.4,0.1,0.7,0.2,1.1,0.4c0.3,0.2,0.6,0.4,0.7,0.6c0,0.1,0.1,0.1,0.1,0.2s0,0.1-0.1,0.2l-1.2,0.9c-0.1,0-0.1,0-0.1,0
		c0,0-0.1-0.1-0.2-0.1c-0.1-0.1-0.3-0.3-0.5-0.4c-0.2-0.1-0.5-0.2-0.9-0.2c-0.4,0-0.7,0.1-0.9,0.2c-0.2,0.1-0.2,0.2-0.2,0.4
		c0,0.1,0,0.1,0.1,0.2c0,0.1,0.1,0.1,0.2,0.2c0.1,0.1,0.2,0.1,0.4,0.2L36,9.6c0.7,0.2,1.2,0.5,1.5,0.9s0.5,0.9,0.5,1.5
		c0,0.5-0.1,1-0.4,1.4c-0.3,0.4-0.7,0.7-1.2,0.9c-0.5,0.2-1.1,0.3-1.9,0.3c-0.5,0-1-0.1-1.5-0.2s-0.9-0.3-1.2-0.5
		c-0.4-0.2-0.6-0.5-0.8-0.7c0-0.1-0.1-0.1-0.1-0.2C30.9,13,30.9,12.9,31,12.9z M20.6,6.7c0-0.2,0.1-0.2,0.2-0.2h3c0.1,0,0.2,0,0.2,0
		c0,0,0.1,0.1,0.1,0.2l1.1,3.5c0,0.1,0,0.1,0.1,0.1c0,0,0.1,0,0.1-0.1l1-3.3c0.1-0.2,0.2-0.3,0.3-0.3h3.1c0.1,0,0.2,0.1,0.2,0.2v7.5
		c0,0.2-0.1,0.3-0.3,0.3h-1.8c-0.1,0-0.2,0-0.2-0.1c0,0-0.1-0.1-0.1-0.2V9.4c0-0.1,0-0.1,0-0.1c0,0-0.1,0-0.1,0.1l-1.6,4.9
		c-0.1,0.1-0.1,0.2-0.3,0.2h-1.1c-0.1,0-0.2-0.1-0.3-0.2l-1.6-4.9c0-0.1-0.1-0.1-0.1-0.1c0,0,0,0.1,0,0.1v4.8c0,0.1,0,0.2,0,0.2
		c0,0-0.1,0-0.2,0h-1.4c-0.2,0-0.3-0.1-0.3-0.3V6.7z M20.5,22.3c0.2,0,0.2,0.1,0.2,0.2v1.3c0,0.1,0,0.1-0.1,0.2S20.6,24,20.5,24H15
		c-0.1,0-0.2,0-0.2-0.1c0,0-0.1-0.1-0.1-0.2v-7.5c0-0.2,0.1-0.2,0.2-0.2H17c0.1,0,0.2,0.1,0.2,0.2v5.9c0,0.1,0,0.2,0.1,0.2H20.5z
		 M13.6,6.7c0-0.2,0.1-0.2,0.2-0.2h2.1c0.1,0,0.2,0.1,0.2,0.2v5.9c0,0.1,0,0.2,0.1,0.2h3.3c0.2,0,0.2,0.1,0.2,0.2v1.3
		c0,0.1,0,0.1-0.1,0.2s-0.1,0.1-0.2,0.1h-5.5c-0.1,0-0.2,0-0.2-0.1c0,0-0.1-0.1-0.1-0.2V6.7z M13.8,23.7c0,0.1,0,0.2,0,0.2
		c0,0.1-0.1,0.1-0.2,0.1h-2.1c-0.1,0-0.2-0.1-0.2-0.2l-0.4-1.2c0,0,0-0.1,0-0.1c0,0-0.1,0-0.1,0H8.4c-0.1,0-0.1,0-0.2,0.1l-0.4,1.3
		c0,0,0,0.1-0.1,0.1c0,0-0.1,0-0.2,0H5.9c-0.1,0-0.1,0-0.2-0.1c0-0.1,0-0.2,0-0.3l2.6-7.4c0-0.1,0.1-0.2,0.1-0.2
		c0,0,0.1-0.1,0.2-0.1h2.1c0.2,0,0.3,0.1,0.4,0.3L13.8,23.7z M4.7,14.1l2.6-7.4c0-0.1,0.1-0.2,0.1-0.2s0.1-0.1,0.2-0.1h2.1
		c0.2,0,0.3,0.1,0.4,0.3l2.6,7.4c0,0.1,0,0.2,0,0.2c0,0.1-0.1,0.1-0.2,0.1h-2.1c-0.1,0-0.2-0.1-0.2-0.2l-0.4-1.2c0,0,0-0.1,0-0.1
		c0,0-0.1,0-0.1,0H7.3c-0.1,0-0.1,0-0.2,0.1l-0.4,1.3c0,0,0,0.1-0.1,0.1c0,0-0.1,0-0.2,0H4.8c-0.1,0-0.1,0-0.2-0.1
		C4.6,14.3,4.6,14.3,4.7,14.1z M2.8,22.1c0-0.2,0.1-0.2,0.2-0.2h1.9C5,21.9,5,21.9,5,22.1v1.7C5,23.9,4.9,24,4.7,24H3.1
		c-0.2,0-0.3-0.1-0.3-0.3V22.1z M3.7,31l-0.6,2.1l0.8,0.1v0.3h-1H2.5H1.9v-0.3l0.7-0.1L5,25.6h1.2l2.4,7.5l0.7,0.1v0.3H8.7H6.5H5.5
		v-0.3l0.8-0.1L5.7,31H3.7z M4.2,42.6l2.6-7.4c0-0.1,0.1-0.2,0.1-0.2C7,35,7.1,35,7.2,35h2.1c0.2,0,0.3,0.1,0.4,0.3l2.6,7.4
		c0,0.1,0,0.2,0,0.2c0,0.1-0.1,0.1-0.2,0.1H10c-0.1,0-0.2-0.1-0.2-0.2l-0.4-1.2c0,0,0-0.1,0-0.1c0,0-0.1,0-0.1,0H6.9
		c-0.1,0-0.1,0-0.2,0.1l-0.4,1.3c0,0,0,0.1-0.1,0.1c0,0-0.1,0-0.2,0H4.4c-0.1,0-0.1,0-0.2-0.1C4.2,42.9,4.2,42.8,4.2,42.6z
		 M3.9,49.3c-0.1,0-0.2,0.1-0.2,0.2v2.7c0,0.2-0.1,0.3-0.4,0.3H1.5c-0.1,0-0.2,0-0.2-0.1c0,0-0.1-0.1-0.1-0.2v-7.5
		c0-0.2,0.1-0.2,0.2-0.2h2.1c0.1,0,0.2,0.1,0.2,0.2v2.5c0,0.1,0.1,0.2,0.2,0.2h1.8c0.1,0,0.2-0.1,0.2-0.2v-2.5
		c0-0.2,0.1-0.2,0.2-0.2h2.1c0.1,0,0.2,0.1,0.2,0.2v7.5c0,0.1,0,0.2-0.1,0.2c0,0-0.1,0.1-0.2,0.1H6.3c-0.2,0-0.4-0.1-0.4-0.3v-2.7
		c0-0.1-0.1-0.2-0.2-0.2H3.9z M1.7,81.1H1H0.3v-0.3L1,80.6c0-1,0.1-2.3,0.1-3.4v-0.5c0-1.1,0-2.3,0-3.3l-0.7-0.1v-0.3H1h0.7H2h1.2
		h0.2c2.5,0,3.1,0.8,3.1,1.9c0,1-0.8,1.7-2.6,1.9c1.8,0.1,3,0.8,3,2c0,1.7-1.8,2.2-3.6,2.2H3.2H2H1.7z M9.4,86.5
		c-0.3,0.4-0.6,0.7-1,0.9c-0.4,0.2-1,0.3-1.6,0.3H5.3c-0.1,0-0.1,0-0.1,0.1v2.5c0,0.2-0.1,0.3-0.4,0.3H2.9c-0.1,0-0.2,0-0.2-0.1
		c0,0-0.1-0.1-0.1-0.2v-7.5c0-0.2,0.1-0.2,0.2-0.2h3.6c0.6,0,1.1,0.1,1.6,0.3C8.6,83,9,83.3,9.3,83.7s0.4,0.9,0.4,1.5
		C9.7,85.6,9.6,86.1,9.4,86.5z M9.6,81.1H9.1H7.9H7.2v-0.3L8,80.6c0-1,0.1-2.3,0.1-3.4v-0.5c0-1.1,0-2.3,0-3.3l-0.7-0.1v-0.3H8h0.8
		h0.8h0.5h2.6l0.1,2.2h-0.3l-0.9-1.8h-1.6c0,0.9,0,2.2,0,3.3v0h1.1l0.4-1.2h0.3v2.7h-0.3l-0.4-1.2h-1.1v0.1c0,1.1,0,2.5,0,3.4h1.8
		l0.9-2h0.3L13,81.1h-2.8H9.6z M16.9,89.4c-0.3,0.4-0.7,0.7-1.2,0.9c-0.5,0.2-1.1,0.3-1.9,0.3c-0.5,0-1-0.1-1.5-0.2
		c-0.5-0.1-0.9-0.3-1.2-0.5c-0.4-0.2-0.6-0.5-0.8-0.7c0-0.1-0.1-0.1-0.1-0.2c0-0.1,0-0.1,0.1-0.2l1.1-0.8c0.1-0.1,0.2-0.1,0.2-0.1
		s0.1,0,0.2,0.1c0.2,0.2,0.3,0.4,0.5,0.5s0.3,0.2,0.5,0.3c0.2,0.1,0.5,0.1,0.7,0.1c0.4,0,0.7-0.1,1-0.2c0.2-0.1,0.4-0.3,0.4-0.5
		c0-0.1,0-0.2-0.1-0.2s-0.1-0.1-0.2-0.2c-0.1-0.1-0.2-0.1-0.4-0.1l-1.7-0.4c-0.4-0.1-0.8-0.3-1.1-0.5S11,86.3,10.8,86
		c-0.2-0.3-0.3-0.7-0.3-1.1c0-0.5,0.1-0.9,0.4-1.3c0.3-0.4,0.7-0.7,1.2-0.9c0.5-0.2,1.1-0.3,1.8-0.3c0.4,0,0.8,0,1.2,0.1
		c0.4,0.1,0.7,0.2,1.1,0.4c0.3,0.2,0.6,0.4,0.7,0.6c0,0.1,0.1,0.1,0.1,0.2c0,0.1,0,0.1-0.1,0.2l-1.2,0.9c-0.1,0-0.1,0-0.1,0
		s-0.1-0.1-0.2-0.1c-0.1-0.1-0.3-0.3-0.5-0.4c-0.2-0.1-0.5-0.2-0.9-0.2c-0.4,0-0.7,0.1-0.9,0.2c-0.2,0.1-0.2,0.2-0.2,0.4
		c0,0.1,0,0.1,0.1,0.2S13,85,13.1,85s0.2,0.1,0.4,0.2l1.8,0.5c0.7,0.2,1.2,0.5,1.5,0.9c0.3,0.4,0.5,0.9,0.5,1.5
		C17.4,88.5,17.2,89,16.9,89.4z M17,81.1v-0.3l0.8-0.1l-0.6-2.1h-2l-0.6,2.1l0.8,0.1v0.3h-1H14h-0.6v-0.3l0.7-0.1l2.4-7.6h1.2
		l2.4,7.5l0.7,0.1v0.3h-0.6H18H17z M26.5,85l-0.9-2.1h-1.1c0,0.9,0,2.2,0,3.3v0.5c0,1.1,0,2.4,0,3.3l0.8,0.1v0.3h-0.8h-2.2h-0.8
		v-0.3l0.8-0.1c0-1,0.1-2.3,0.1-3.3v-0.5c0-1.1,0-2.4,0-3.3h-1.1L20.3,85H20l0.1-2.4h2.1h2.2h2.1l0.1,2.4H26.5z M26.9,77.8
		c0,2.5-0.8,3.5-2.6,3.5c-1.7,0-3-0.7-3-2.8v-1.6c0-1.1,0-2.4,0-3.3l-0.7-0.1v-0.3h0.7h2.2h0.7v0.3l-0.7,0.1c0,0.9,0,2.2,0,3.3V78
		c0,1.7,0.5,2.2,1.5,2.2c1,0,1.6-0.6,1.6-2.2v-4.6l-0.8-0.1v-0.3h0.8h0.4h0.7v0.3l-0.7,0.1V77.8z M30.9,90.7c-1.9,0-3.6-1.3-3.6-4.2
		c0-2.9,1.7-4.2,3.6-4.2c1.9,0,3.6,1.3,3.6,4.2C34.5,89.4,32.8,90.7,30.9,90.7z M34.6,75.5l-0.9-2.1h-1.1c0,0.9,0,2.2,0,3.3v0.5
		c0,1.1,0,2.4,0,3.3l0.8,0.1v0.3h-0.8h-2.2h-0.8v-0.3l0.8-0.1c0-1,0.1-2.3,0.1-3.3v-0.5c0-1.1,0-2.4,0-3.3h-1.1l-0.9,2.1h-0.3
		l0.1-2.4h2.1h2.2h2.1l0.1,2.4H34.6z M42.1,82.9L41.3,83v4.3c0,2.5-0.8,3.5-2.6,3.5c-1.7,0-3-0.7-3-2.8v-1.6c0-1.1,0-2.4,0-3.3
		L35,82.9v-0.3h0.7h2.2h0.7v0.3L37.9,83c0,0.9,0,2.2,0,3.3v1.2c0,1.7,0.5,2.2,1.5,2.2c1,0,1.6-0.6,1.6-2.2V83l-0.8-0.1v-0.3H41h0.4
		h0.7V82.9z M42.2,73.4l-0.7,0.1l-1.7,4.1c0,1.1,0,2,0,3l0.8,0.1v0.3h-0.8h-2.2h-0.8v-0.3l0.8-0.1c0-1,0-1.8,0-2.9l-1.8-4.3
		l-0.5-0.1v-0.3h0.4H38h0.9v0.3l-0.8,0.1l1.5,3.6l1.4-3.6l-0.8-0.1v-0.3h1h0.4h0.5V73.4z M46.6,90.4c0.2,0,0.4,0,0.7-0.1l1-2.1h0.3
		l-0.1,2.2c-0.5,0.3-1.3,0.4-2,0.4c-1.9,0-3.9-1.2-3.9-4.2c0-3.1,2.1-4.2,3.9-4.2c0.7,0,1.4,0.2,2,0.5l0.1,2h-0.3l-1-2
		c-0.2-0.1-0.5-0.1-0.7-0.1c-1,0-1.9,1.1-1.9,3.9C44.8,89.4,45.6,90.4,46.6,90.4z M48.8,80.7c0,0.2-0.1,0.3-0.4,0.3h-1.6
		c-0.2,0-0.3-0.1-0.3-0.3v-1.7c0-0.2,0.1-0.2,0.2-0.2h1.9c0.1,0,0.2,0.1,0.2,0.2V80.7z M47.6,69.6c-0.3-0.6-0.5-1.4-0.5-2.2
		s0.2-1.5,0.5-2.1c0.3-0.6,0.8-1.1,1.3-1.4s1.3-0.5,2-0.5c0.5,0,0.9,0.1,1.3,0.2c0.4,0.1,0.7,0.3,1,0.5c0.3,0.2,0.5,0.5,0.7,0.8
		c0.2,0.3,0.3,0.6,0.4,1c0,0.2,0,0.2,0,0.3s-0.1,0.1-0.2,0.1l-1.9,0.1c-0.1,0-0.1,0-0.2,0c0,0,0-0.1-0.1-0.2
		c-0.1-0.3-0.2-0.6-0.3-0.8c-0.2-0.2-0.4-0.3-0.8-0.3c-0.4,0-0.7,0.2-1,0.5c-0.2,0.4-0.4,1-0.4,1.9c0,0.9,0.1,1.5,0.3,1.9
		c0.2,0.4,0.6,0.5,1,0.5c0.4,0,0.7-0.1,1-0.3c0.3-0.2,0.5-0.5,0.7-1c0-0.1,0.1-0.1,0.3-0.1l1.4,0.3c0,0,0.1,0,0.1,0.1
		c0,0,0.1,0.1,0,0.3c0,0.1-0.1,0.3-0.2,0.5s-0.2,0.4-0.4,0.7c-0.2,0.2-0.4,0.5-0.7,0.7c-0.3,0.2-0.6,0.4-1,0.5s-0.8,0.2-1.3,0.2
		c-0.8,0-1.4-0.2-2-0.5C48.3,70.7,47.9,70.2,47.6,69.6z M52.6,79.1v1.7c0,0.2-0.1,0.3-0.4,0.3h-1.6c-0.2,0-0.3-0.1-0.3-0.3v-1.7
		c0-0.2,0.1-0.2,0.2-0.2h1.9C52.5,78.9,52.6,78.9,52.6,79.1z M57.2,82.9L56.5,83c0,0.9,0,2.2,0,3.3v0.5c0,1.1,0,2.4,0,3.4l0.7,0.1
		v0.3h-0.7h-2.2h-0.7v-0.3l0.7-0.1c0-1,0-2.3,0-3.4v-0.1h-2.2v0.1c0,1.1,0,2.4,0,3.4l0.7,0.1v0.3h-0.7h-2.2h-0.7v-0.3l0.7-0.1
		c0-1,0.1-2.3,0.1-3.4v-0.5c0-1.1,0-2.3,0-3.3l-0.7-0.1v-0.3h0.7h2.2H53v0.3L52.3,83c0,0.9,0,2.2,0,3.3v0h2.2v0c0-1.1,0-2.3,0-3.3
		l-0.7-0.1v-0.3h0.7h2.2h0.7V82.9z M63.5,90.6h-2.8h-0.5h-0.5h-1.1h-0.7v-0.3l0.7-0.1c0-1,0.1-2.3,0.1-3.4v-0.5c0-1.1,0-2.3,0-3.3
		l-0.7-0.1v-0.3h0.7h0.8h0.8h0.5h2.6l0.1,2.2h-0.3l-0.9-1.8h-1.6c0,0.9,0,2.2,0,3.3v0h1.1l0.4-1.2h0.3v2.7h-0.3l-0.4-1.2h-1.1v0.1
		c0,1.1,0,2.5,0,3.4h1.8l0.9-2h0.3L63.5,90.6z M64,77.9C64,77.9,64,78,64,77.9l0,2.8c0,0.2-0.1,0.3-0.4,0.3h-1.8
		c-0.1,0-0.2,0-0.2-0.1c0,0-0.1-0.1-0.1-0.2v-7.5c0-0.2,0.1-0.2,0.2-0.2h3.6c1,0,1.9,0.2,2.4,0.6c0.6,0.4,0.9,1,0.9,1.7
		c0,0.3-0.1,0.7-0.2,0.9c-0.1,0.3-0.3,0.5-0.5,0.7c-0.2,0.2-0.5,0.4-0.7,0.5c-0.1,0-0.1,0.1,0,0.2l1.4,3c0,0.1,0,0.2,0,0.2
		c0,0.1-0.1,0.1-0.2,0.1h-2.1c-0.2,0-0.2-0.1-0.3-0.2L65,78c0-0.1-0.2-0.2-0.3-0.2h-0.5C64.1,77.8,64.1,77.9,64,77.9z M67.5,90.6
		h-0.3h-0.9h-0.6H65h-0.7v-0.3l0.7-0.1c0-1,0.1-2.3,0.1-3.4v-0.5c0-1.1,0-2.3,0-3.3l-0.7-0.1v-0.3H65h0.7h0.6h0.9h0.3
		c2.7,0,4,1.5,4,3.9C71.4,89,70,90.6,67.5,90.6z M82.3,82.9L81.5,83c0,0.9,0,2.2,0,3.3v0.5c0,1.1,0,2.4,0,3.4l0.7,0.1v0.3h-0.7h-2.2
		h-0.7v-0.3l0.7-0.1c0-1,0-2.3,0-3.4v-0.1h-2.2v0.1c0,1.1,0,2.4,0,3.4l0.7,0.1v0.3h-0.7h-2.2h-0.7v-0.3l0.7-0.1c0-1,0.1-2.3,0.1-3.4
		v-0.5c0-1.1,0-2.3,0-3.3l-0.7-0.1v-0.3h0.7h2.2h0.7v0.3L77.3,83c0,0.9,0,2.2,0,3.3v0h2.2v0c0-1.1,0-2.3,0-3.3l-0.7-0.1v-0.3h0.7
		h2.2h0.7V82.9z M82.2,80.9l-0.4-1.2c0,0,0-0.1,0-0.1c0,0-0.1,0-0.1,0h-2.3c-0.1,0-0.1,0-0.2,0.1l-0.4,1.3c0,0,0,0.1-0.1,0.1
		c0,0-0.1,0-0.2,0h-1.7c-0.1,0-0.1,0-0.2-0.1c0-0.1,0-0.2,0-0.3l2.6-7.4c0-0.1,0.1-0.2,0.1-0.2c0,0,0.1-0.1,0.2-0.1h2.1
		c0.2,0,0.3,0.1,0.4,0.3l2.6,7.4c0,0.1,0,0.2,0,0.2c0,0.1-0.1,0.1-0.2,0.1h-2.1C82.3,81.1,82.2,81,82.2,80.9z M86.5,82.9L85.7,83
		c0,0.9-0.1,2.2-0.1,3.3v0.5c0,1.1,0,2.4,0,3.4l0.7,0.1v0.3h-0.7h-2.2h-0.7v-0.3l0.7-0.1c0-1,0.1-2.3,0.1-3.4v-0.5
		c0-1.1,0-2.3-0.1-3.3l-0.7-0.1v-0.3h0.7h2.2h0.7V82.9z M89.5,90.7c-0.8,0-1.5-0.2-2.2-0.6l0.1-1.9h0.3l0.8,2c0.3,0.2,0.6,0.2,1,0.2
		c0.8,0,1.4-0.6,1.4-1.4c0-0.8-0.6-1.2-1.4-1.6l-0.3-0.2c-0.9-0.5-1.8-1.1-1.8-2.5c0-1.3,0.9-2.4,2.8-2.4c0.8,0,1.5,0.3,1.9,0.6
		l0,1.9h-0.3l-0.8-1.9c-0.2-0.1-0.4-0.2-0.7-0.2c-0.8,0-1.4,0.6-1.4,1.3c0,0.8,0.7,1.2,1.4,1.6l0.3,0.2c0.9,0.5,1.8,1.1,1.8,2.5
		C92.4,89.6,91.6,90.7,89.5,90.7z M95.6,90.2c0,0.2-0.1,0.3-0.4,0.3h-1.6c-0.2,0-0.3-0.1-0.3-0.3v-1.7c0-0.2,0.1-0.2,0.2-0.2h1.9
		c0.1,0,0.2,0.1,0.2,0.2V90.2z M96.6,80.7V78c0-0.1-0.1-0.2-0.2-0.2h-1.9c-0.1,0-0.2,0.1-0.2,0.2v2.7c0,0.2-0.1,0.3-0.4,0.3h-1.8
		c-0.1,0-0.2,0-0.2-0.1c0,0-0.1-0.1-0.1-0.2v-7.5c0-0.2,0.1-0.2,0.2-0.2h2.1c0.1,0,0.2,0.1,0.2,0.2v2.5c0,0.1,0.1,0.2,0.2,0.2h1.8
		c0.1,0,0.2-0.1,0.2-0.2v-2.5c0-0.2,0.1-0.2,0.2-0.2h2.1c0.1,0,0.2,0.1,0.2,0.2v7.5c0,0.1,0,0.2-0.1,0.2c0,0-0.1,0.1-0.2,0.1h-1.8
		C96.7,81.1,96.6,80.9,96.6,80.7z M99.4,90.2c0,0.2-0.1,0.3-0.4,0.3h-1.6c-0.2,0-0.3-0.1-0.3-0.3v-1.7c0-0.2,0.1-0.2,0.2-0.2h1.9
		c0.1,0,0.2,0.1,0.2,0.2V90.2z M99.4,67.5c0-0.8,0.2-1.6,0.5-2.2c0.3-0.6,0.8-1.1,1.4-1.4s1.3-0.5,2.1-0.5s1.5,0.2,2,0.5
		s1,0.8,1.4,1.4c0.3,0.6,0.5,1.4,0.5,2.2c0,0.8-0.2,1.6-0.5,2.2c-0.3,0.6-0.8,1.1-1.4,1.4s-1.3,0.5-2.1,0.5c-0.8,0-1.5-0.2-2.1-0.5
		c-0.6-0.3-1-0.8-1.4-1.4S99.4,68.4,99.4,67.5z M103.2,90.2c0,0.2-0.1,0.3-0.4,0.3h-1.6c-0.2,0-0.3-0.1-0.3-0.3v-1.7
		c0-0.2,0.1-0.2,0.2-0.2h1.9c0.1,0,0.2,0.1,0.2,0.2V90.2z M100.5,81.1c-0.2,0-0.3-0.1-0.3-0.3v-7.5c0-0.2,0.1-0.2,0.2-0.2h5.9
		c0.1,0,0.2,0.1,0.2,0.2l0,1.3c0,0.2-0.1,0.3-0.3,0.3h-3.3c-0.2,0-0.2,0.1-0.2,0.2v0.9c0,0.2,0.1,0.2,0.2,0.2h2
		c0.2,0,0.2,0.1,0.2,0.2v1.3c0,0.1,0,0.1,0,0.1s-0.1,0.1-0.2,0.1h-2c-0.1,0-0.2,0.1-0.2,0.2v1.1c0,0.1,0,0.2,0.1,0.2h3.5
		c0.2,0,0.2,0.1,0.2,0.2v1.3c0,0.1,0,0.1-0.1,0.2c0,0-0.1,0.1-0.2,0.1H100.5z"/>
	<path d="M0.9,9.9H2c0.3,0,0.5-0.1,0.6-0.2c0.1-0.2,0.2-0.4,0.2-0.6c0-0.2,0-0.3-0.1-0.5C2.6,8.5,2.5,8.4,2.4,8.3
		C2.2,8.3,2.1,8.2,1.9,8.2H1c-0.2,0-0.2,0.1-0.2,0.2v1.2C0.7,9.8,0.8,9.9,0.9,9.9z"/>
	<path d="M57.3,19.2h1.1c0.3,0,0.5-0.1,0.6-0.2c0.1-0.1,0.2-0.3,0.2-0.6c0-0.3-0.1-0.5-0.3-0.6c-0.2-0.1-0.4-0.2-0.6-0.2h-1
		c-0.2,0-0.2,0.1-0.2,0.2V19C57.1,19.1,57.2,19.2,57.3,19.2z"/>
	<path d="M1,69.7c0,0.2,0.1,0.2,0.2,0.2h1c0.3,0,0.6-0.1,0.7-0.3c0.2-0.2,0.2-0.4,0.2-0.6c0-0.2,0-0.3-0.1-0.4
		c-0.1-0.1-0.2-0.2-0.3-0.3c-0.1-0.1-0.3-0.1-0.5-0.1h-1c-0.2,0-0.2,0.1-0.2,0.2V69.7z"/>
	<path d="M2.2,66.6c0.1,0,0.2,0,0.3-0.1c0.1,0,0.2-0.1,0.3-0.2s0.1-0.1,0.2-0.2S3,66,3,65.9c0-0.2-0.1-0.4-0.3-0.6
		c-0.2-0.1-0.4-0.2-0.6-0.2H1.2c-0.2,0-0.2,0.1-0.2,0.2v1.1c0,0.2,0.1,0.2,0.2,0.2H2.2z"/>
	<path d="M2.5,56.2c0-1.2-0.5-1.8-1.3-1.8H0.9c0,0.9,0,2.2,0,3.3v0.2h0.3C2.3,57.9,2.5,57.1,2.5,56.2z"/>
	<path d="M67.3,82.9h-0.2c0,0.9,0,2.2,0,3.3v0.5c0,1.1,0,2.5,0,3.4h0.2c1.2,0,1.9-1.4,1.9-3.7C69.3,84.3,68.5,82.9,67.3,82.9z"/>
	<path d="M65.9,76c0.1-0.1,0.2-0.3,0.2-0.6c0-0.3-0.1-0.5-0.3-0.6c-0.2-0.1-0.4-0.2-0.6-0.2h-1c-0.2,0-0.2,0.1-0.2,0.2V76
		c0,0.2,0.1,0.2,0.2,0.2h1.1C65.6,76.2,65.8,76.2,65.9,76z"/>
	<path d="M101.5,20c0,2.4,0.4,3.8,1.4,3.8c1,0,1.4-1.5,1.4-3.8s-0.4-3.8-1.4-3.8C101.9,16.2,101.5,17.7,101.5,20z"/>
	<path d="M26,68.1c0.1,0,0.1-0.1,0.1-0.2l-0.7-1.9c0,0,0-0.1-0.1-0.1c0,0-0.1,0-0.1,0.1l-0.7,1.8c-0.1,0.2,0,0.2,0.1,0.2H26z"/>
	<path d="M33.5,35.2c-1,0-1.4,1.4-1.4,3.8s0.4,3.8,1.4,3.8c1,0,1.4-1.5,1.4-3.8S34.5,35.2,33.5,35.2z"/>
	<path d="M80.5,75.6C80.5,75.5,80.5,75.5,80.5,75.6c-0.1-0.1-0.1,0-0.1,0l-0.7,1.8c-0.1,0.2,0,0.2,0.1,0.2H81c0.1,0,0.1-0.1,0.1-0.2
		L80.5,75.6z"/>
</g>
</svg>
