<svg xmlns="http://www.w3.org/2000/svg" viewBox="0 0 30.73 43.94"><defs><style>.cls-1{fill:#fff;}.cls-2{fill:none;}</style></defs><title>Isotipo_Negativo</title><g id="Capa_2" data-name="Capa 2"><g id="Capa_4" data-name="Capa 4"><path class="cls-1" d="M24.78,31.2c0,3.51-.22,7.35-2.53,10-2.86,2.79-7,2.79-10.42,2.79-1.44,0-7,0-8.42,0V41.23c2.18,0,2.49-2.25,2.53-3.7h0c0-.26,0-.5,0-.72,0-5.27,0-11.53,0-18H24.74C24.76,21.46,24.78,29.16,24.78,31.2Z"/><path class="cls-1" d="M24.78,0V14.34H6V3.45C6,2.28,6,1.12,6,0Z"/><line class="cls-2" x2="30.73"/><line class="cls-2" x1="30.73" y1="43.94" y2="43.94"/></g></g></svg>