<?xml version="1.0" encoding="utf-8"?>
<!-- Generator: Adobe Illustrator 24.0.2, SVG Export Plug-In . SVG Version: 6.00 Build 0)  -->
<svg version="1.1" id="Capa_1" xmlns="http://www.w3.org/2000/svg" xmlns:xlink="http://www.w3.org/1999/xlink" x="0px" y="0px"
	 viewBox="0 0 33.4 68.6" style="enable-background:new 0 0 33.4 68.6;" xml:space="preserve">
<title>Recurso 10</title>
<path d="M33.4,48.7c0,5.5-0.3,11.5-3.9,15.5c-4.5,4.4-10.9,4.4-16.3,4.4c-2.2,0-10.9,0-13.1,0v-4.2c3.4-0.1,3.9-3.5,3.9-5.8l0,0
	c0-0.4,0-0.8,0-1.1c0-8.2,0-18,0-28.1h29.3C33.3,33.5,33.4,45.5,33.4,48.7z"/>
<path d="M33.4,0v22.4H4v-17C4,3.6,4,1.8,4,0H33.4z"/>
</svg>
