<?xml version="1.0" encoding="utf-8"?>
<!-- Generator: Adobe Illustrator 24.0.2, SVG Export Plug-In . SVG Version: 6.00 Build 0)  -->
<svg version="1.1" id="Capa_1" xmlns="http://www.w3.org/2000/svg" xmlns:xlink="http://www.w3.org/1999/xlink" x="0px" y="0px"
	 viewBox="0 0 211.5 68.6" style="enable-background:new 0 0 211.5 68.6;" xml:space="preserve">
<title>Recurso 10</title>
<g id="Capa_2_1_">
	<g id="Capa_1-2">
		<g>
			<path d="M144.3,1.3l0,13.5c-0.2,6-0.2,12.1-0.2,17.4c0,3,0,6,0.1,8.9c0,2.9,0.1,5.9,0.1,8.9c0,3.6-0.2,7.7-2.5,10.3
				c-2.9,2.8-7.1,2.8-10.8,2.8c-2,0-4.1,0-6.1-0.1c-2,0-4-0.1-6-0.1c-2.1,0-4.3,0-6.4,0.1c-2.1,0-4.3,0.1-6.4,0.1
				c-3.3,0-7.4,0-10.1-2.6c-2.7-3.1-2.7-7.7-2.7-11.4c0-2.9,0.1-5.9,0.1-8.8c0.1-2.9,0.1-6,0.1-9c0-6.6-0.1-13.3-0.2-19.4V1.3h21.5
				c0,6.4,0,13.1,0,19.8c0,8.3,0,16.6,0,24.2c0,4.5,2.5,5.2,3.9,5.2c1.8,0,4-1,4-5.5c0-3.4,0-7,0-10.7c0-11.1,0-22.5,0.1-33.1H144.3
				 M145.3,0.3h-23.5c-0.1,14.4-0.1,30.7-0.1,44.8c0,1.6-0.2,4.5-3,4.5c-1.6,0-2.9-1-2.9-4.2c0-14.2-0.1-30.6-0.1-45.1H92.1v11.6
				c0.2,6.7,0.2,13.4,0.2,19.4s-0.2,11.9-0.2,17.8c0,4.1,0.1,8.8,3,12.1c2.9,2.9,7.1,2.9,10.9,2.9c4.3,0,8.5-0.2,12.8-0.2
				c4,0,8.1,0.2,12.1,0.2c3.8,0,8.4,0,11.6-3.1c2.6-2.9,2.8-7.1,2.8-11c0-6-0.1-11.9-0.1-17.8c0-5.4,0-11.4,0.2-17.4L145.3,0.3
				L145.3,0.3z"/>
		</g>
		<g>
			<path d="M188.7,1.3v12.2c-5.3,0.2-11,0.3-17.9,0.3h-1v1v9.9v1h1h15.6v1.2v5v5V38h-15.6h-1v1v10.1l0,1l1,0
				c5.1,0.1,10.4,0.1,15.6,0.2v12.8h-40.5c3-3.9,3.3-8.8,3.3-13.1c0-3,0-6-0.1-9c-0.1-3-0.1-5.8-0.1-8.9c0-6.4,0.1-12,0.2-17.3V1.3
				H188.7 M189.7,0.3h-41.4v14.5c-0.1,5.1-0.2,10.8-0.2,17.3c0,3,0,5.9,0.1,8.9s0.1,6,0.1,9c0,4.3-0.3,9.3-3.6,13l-0.1,0.1l-0.1,0.1
				c-0.3,0.3-0.7,0.6-1.1,0.9h44V49.3c-5.5-0.1-11.1-0.2-16.6-0.3V39h16.6v-2.2c0-1.6,0-3.4,0-5s0-3.3,0-5v-2.2h-16.6v-9.9
				c6.3,0,12.6-0.1,18.9-0.3V0.3L189.7,0.3z"/>
		</g>
		<g>
			<path d="M77.6,1.3c-0.1,8.4-0.1,20.1-0.1,30c0,3,0,6,0,9c0,3,0,5.9,0,8.8v1l1,0l0.3,0c3.1,0.1,6.2,0.1,9.3,0.2
				c0,3.7,0.3,8.7,3.4,12.8H56.6l0-17.1c0.1-4.7,0.1-9.5,0.1-14.2c0-4.6,0-9.8-0.1-15V1.3H77.6 M78.6,0.3H55.6v16.6
				c0.1,5.2,0.1,10.3,0.1,15c0,4.7,0,9.4-0.1,14.1v18.1h38.3c-0.3-0.2-0.6-0.5-0.9-0.7l-0.1-0.1l-0.1-0.1c-3.7-4.2-3.8-9.8-3.8-13.9
				c-3.6-0.1-7.1-0.2-10.6-0.2c0-5.9-0.1-11.8-0.1-17.8C78.4,21.7,78.5,10.1,78.6,0.3L78.6,0.3z"/>
		</g>
		<g>
			<path d="M1,1c6.5,0.2,13.4,0.3,21,0.3c2.2,0,4.4,0,6.6,0c2.2,0,4.4,0,6.6,0c4.8,0,9.4,0.2,12.6,2.9c2.6,2.8,4,6.4,4,10.2
				c0,6.7-1.9,15.1-11.1,17l-4.8,1l4.8,1c9.2,1.9,11.1,10.3,11.1,17c0,3.8-1.4,7.4-4,10.2c-3.2,2.7-7.8,2.9-12.6,2.9
				c-2.2,0-4.4,0-6.6,0c-2.2,0-4.4,0-6.6,0c-7.6,0-14.5,0.1-21,0.3V1 M0,0v64.4c7.3-0.2,14.7-0.3,22-0.3c4.4,0,8.7,0.1,13.1,0.1
				c4.6,0,9.7-0.1,13.3-3.1c2.8-2.9,4.3-6.9,4.3-10.9c0-7.3-2.3-16-11.9-18c9.6-1.9,11.9-10.7,11.9-17.9c0-4.1-1.5-8-4.3-10.9
				c-3.6-3-8.7-3.2-13.3-3.2c-4.4,0-8.7,0.1-13.1,0.1C14.6,0.3,7.3,0.2,0,0L0,0z"/>
		</g>
		<g>
			<path d="M210.5,44.5c0,3.2,0,9.5,0,11.4c0,3.2-0.2,6.9-2.3,9.3c-2.6,2.5-6.4,2.5-9.7,2.5h-7.4v-0.9c1.2-0.4,2.5-1.5,2.5-4.5v-0.7
				v-17H210.5 M211.4,43.5h-18.8c0,6.5,0,12.7,0,18c0,0.2,0,0.5,0,0.7c0,1.4-0.3,3.6-2.5,3.7v2.7c1.4,0,7,0,8.4,0
				c3.4,0,7.6,0,10.4-2.8c2.3-2.6,2.5-6.4,2.5-10C211.5,53.8,211.5,46.1,211.4,43.5L211.4,43.5z"/>
		</g>
		<g>
			<path d="M210.5,25.7V38h-16.8v-9.9v-2.5H210.5 M211.5,24.7h-18.8c0,1.1,0,2.3,0,3.5V39h18.8V24.7L211.5,24.7z"/>
		</g>
	</g>
</g>
</svg>
