<svg xmlns="http://www.w3.org/2000/svg" viewBox="0 0 498.18 167.5"><title>Logotipo_Display</title><g id="Capa_2" data-name="Capa 2"><g id="Capa_1-2" data-name="Capa 1"><path d="M498.18,154.76c0,3.5-.21,7.34-2.52,10-2.87,2.79-7,2.79-10.43,2.79-1.43,0-7,0-8.42-.05v-2.66c2.18,0,2.5-2.26,2.53-3.7h0c0-.26,0-.51,0-.72,0-5.27,0-11.53,0-18h18.79C498.16,145,498.18,152.72,498.18,154.76Z"/><path d="M498.18,123.56v14.33H479.37V127c0-1.17,0-2.32,0-3.44Z"/><path d="M365.59.64H306.34c-.3,36.26-.13,77.26-.13,112.69,0,4.1-.59,11.33-7.42,11.33-4.1,0-7.42-2.54-7.42-10.54,0-35.83-.17-77-.19-113.48H231.8V29.85c.43,16.77.62,33.78.62,48.94,0,14.83-.58,29.87-.58,44.69,0,10.35.2,22.07,7.61,30.46,7.41,7.22,17.95,7.42,27.33,7.42,10.74,0,21.46-.4,32.2-.4,10.15,0,20.32.4,30.46.4,9.57,0,21.08,0,29.08-7.81,6.44-7.23,7-18,7-27.72,0-15-.39-29.86-.39-44.9,0-13.68.09-28.76.43-43.82Z"/><path d="M430.06,37V62c7.91,0,15.74,0,23.6,0h19.78v5.57c-.07,4.22-.07,8.46-.07,12.62s0,8.51.07,12.68v5.32H430.06l.06.17h-.06v25.17h43.38v37.81H361.16a33,33,0,0,0,2.66-2.31l.19-.18.17-.2c8.27-9.27,9-21.78,9-32.77,0-7.56-.1-15.19-.19-22.54s-.2-14.9-.2-22.36c0-16.57.15-30.84.43-43.65V.64H479.36V36.23C463.53,36.81,445.86,37,430.06,37Z"/><path d="M236.31,161.29H140V115.74q.32-17.77.32-35.59c0-11.79-.1-24.73-.32-37.81V.64h57.67c-.18,24.81-.35,53.89-.35,78,0,15,.19,30.07.19,44.89,8.81.15,17.75.3,26.69.53,0,10.38.16,24.37,9.51,35l.2.21.2.21A25.32,25.32,0,0,0,236.31,161.29Z"/><path d="M132.55,126.23c0,9.76-3.45,20.09-10.76,27.47-9.09,7.55-22,7.92-33.47,7.92-11.09,0-21.95-.18-33-.18-18.5,0-36.86.19-55.29.72V0C18.43.52,36.79.72,55.29.72c11.08,0,21.94-.18,33-.18,11.52,0,24.38.36,33.47,7.92,7.31,7.37,10.76,17.69,10.76,27.46,0,18.25-5.88,40.17-30.05,45.16C126.67,86.07,132.55,108,132.55,126.23Z"/></g></g></svg>