<svg xmlns="http://www.w3.org/2000/svg" viewBox="0 0 510.09 175.74"><defs><style>.cls-1{fill:#fff;}.cls-2{fill:none;}</style></defs><title>Logo_Display_Negativo</title><g id="Capa_2" data-name="Capa 2"><g id="Capa_4" data-name="Capa 4"><path class="cls-1" d="M504.13,160.07c0,3.51-.21,7.35-2.52,10-2.87,2.79-7,2.79-10.43,2.79-1.43,0-7,0-8.42,0V170.1c2.18,0,2.5-2.25,2.53-3.7,0,0,0,0,0,0q0-.39,0-.72c0-5.27,0-11.53,0-18h18.79C504.12,150.33,504.13,158,504.13,160.07Z"/><path class="cls-1" d="M504.13,128.87v14.34H485.32V132.32c0-1.17,0-2.33,0-3.45Z"/><path class="cls-1" d="M371.54,6H312.3c-.3,36.26-.13,77.25-.13,112.69,0,4.1-.59,11.33-7.43,11.33-4.1,0-7.41-2.54-7.41-10.55,0-35.83-.17-77-.2-113.47H237.75v29.2c.44,16.78.62,33.79.62,48.94,0,14.84-.58,29.87-.58,44.7,0,10.34.2,22.07,7.61,30.46,7.41,7.22,18,7.41,27.33,7.41,10.74,0,21.47-.39,32.21-.39,10.15,0,20.31.39,30.46.39,9.56,0,21.07,0,29.07-7.8,6.44-7.23,7-18,7-27.73,0-15-.39-29.86-.39-44.89,0-13.69.09-28.76.43-43.82Z"/><path class="cls-1" d="M436,42.32v25c7.91,0,15.74,0,23.6,0h19.78v5.56c-.07,4.22-.07,8.47-.07,12.63s0,8.5.07,12.67v5.33H436l.06.17H436v25.16h43.38V166.6H367.11a29.54,29.54,0,0,0,2.66-2.3l.19-.19.18-.2c8.26-9.26,9-21.77,9-32.77,0-7.56-.11-15.18-.2-22.54s-.2-14.89-.2-22.36c0-16.56.15-30.84.43-43.64V6H485.31V41.54C469.49,42.13,451.82,42.32,436,42.32Z"/><path class="cls-1" d="M242.26,166.61H146V121.06q.31-17.78.33-35.6c0-11.78-.11-24.72-.33-37.8V6h57.67c-.18,24.8-.35,53.89-.35,78,0,15,.2,30.06.2,44.89,8.8.14,17.74.3,26.69.52,0,10.39.15,24.37,9.5,35l.2.21.2.21C240.81,165.39,241.53,166,242.26,166.61Z"/><path class="cls-1" d="M138.5,131.55c0,9.76-3.45,20.09-10.75,27.46-9.09,7.56-22,7.92-33.48,7.92-11.09,0-22-.18-33-.18-18.5,0-36.86.2-55.29.72V5.32C24.38,5.84,42.74,6,61.24,6c11.08,0,21.94-.19,33-.19,11.53,0,24.39.37,33.48,7.93,7.3,7.37,10.75,17.69,10.75,27.46,0,18.24-5.88,40.16-30,45.15C132.62,91.38,138.5,113.31,138.5,131.55Z"/><line class="cls-2" x1="510.09" y1="175.74" y2="175.74"/><line class="cls-2" x2="510.09"/></g></g></svg>