<svg xmlns="http://www.w3.org/2000/svg" viewBox="0 0 408.94 145.74"><defs><style>.cls-1{fill:#006a5c;}.cls-2,.cls-3{fill:none;}.cls-2{stroke:#006a5c;stroke-miterlimit:10;stroke-width:0.25px;}</style></defs><title>Recurso 8</title><g id="Capa_2" data-name="Capa 2"><g id="Capa_2-2" data-name="Capa 2"><path class="cls-1" d="M290.31,11.79v27.6c-.23,9.82-.33,20.76-.33,33.46,0,5.74.07,11.54.15,17.15s.15,11.4.15,17.13c0,7.28-.41,15.51-5.3,21-6,5.89-14.9,5.89-22,5.89-3.88,0-7.82-.08-11.63-.15s-7.76-.15-11.63-.15c-4.11,0-8.27.08-12.3.15s-8.2.15-12.29.15c-6.67,0-15,0-20.69-5.57-5.74-6.51-5.74-15.71-5.74-23.1,0-5.66.11-11.45.22-17s.22-11.41.22-17.08c0-12.52-.17-25.45-.47-37.37V11.79h44.84c0,12.66,0,26.05.07,39.47,0,15.77.08,32.08.08,46.93,0,6.86,3.21,8.3,5.91,8.3,3.92,0,5.92-3,5.92-8.9,0-7,0-14.35,0-21.81,0-21.42,0-43.56.11-64h44.75m.25-.25H245.32c-.23,27.69-.1,59-.1,86.05,0,3.13-.45,8.65-5.67,8.65-3.13,0-5.66-1.94-5.66-8,0-27.36-.13-58.82-.15-86.65H188.4v22.3c.33,12.81.47,25.8.47,37.37,0,11.33-.44,22.81-.44,34.13,0,7.9.15,16.85,5.81,23.26,5.66,5.51,13.71,5.66,20.87,5.66,8.2,0,16.39-.3,24.59-.3,7.75,0,15.51.3,23.26.3,7.3,0,16.09,0,22.2-6,4.92-5.52,5.37-13.71,5.37-21.17,0-11.47-.3-22.8-.3-34.28,0-10.45.07-22,.33-33.46V11.54Z"/><line class="cls-2" x1="239.5" y1="0.12" x2="239.5" y2="145.61"/><line class="cls-2" x1="233.61" y1="0.13" x2="233.61" y2="145.61"/><line class="cls-2" x1="245.45" y1="0.13" x2="245.45" y2="12.25"/><line class="cls-3" y1="0.12" x2="408.94" y2="0.12"/><line class="cls-3" y1="145.61" x2="408.94" y2="145.61"/><line class="cls-2" x1="227.67" y1="0.13" x2="251.39" y2="0.13"/><line class="cls-2" x1="227.67" y1="145.61" x2="245.45" y2="145.61"/></g></g></svg>