<svg xmlns="http://www.w3.org/2000/svg" viewBox="0 0 408.94 145.74"><defs><style>.cls-1{fill:#006a5c;}.cls-2{fill:none;stroke:#006a5c;stroke-miterlimit:10;stroke-width:0.25px;}</style></defs><title>Recurso 2</title><g id="Capa_2" data-name="Capa 2"><g id="Capa_2-2" data-name="Capa 2"><path class="cls-1" d="M290.56,11.54H245.32c-.23,27.69-.1,59-.1,86.05,0,3.13-.45,8.65-5.67,8.65-3.13,0-5.66-1.94-5.66-8,0-27.36-.13-58.82-.15-86.65H188.4v22.3c.33,12.81.47,25.8.47,37.37,0,11.33-.44,22.81-.44,34.13,0,7.9.15,16.85,5.81,23.26,5.66,5.51,13.71,5.66,20.87,5.66,8.2,0,16.39-.3,24.59-.3,7.75,0,15.51.3,23.26.3,7.3,0,16.09,0,22.2-6,4.92-5.52,5.37-13.71,5.37-21.17,0-11.47-.3-22.8-.3-34.28,0-10.45.07-22,.33-33.46Z"/><path class="cls-1" d="M339.79,39.31V58.39c10.73,0,21.31,0,32-.15-.15,4.62-.15,9.39-.15,14s0,9.4.15,14c-10.73-.15-21.31-.15-32-.15v19.22c12.07.15,24.14.3,36.22.6v28.27H287.18a23.43,23.43,0,0,0,2-1.76l.14-.14.14-.15c6.31-7.08,6.84-16.63,6.84-25,0-5.77-.08-11.59-.15-17.21S296,78.55,296,72.85c0-12.65.11-23.55.33-33.33v-28H376V38.72C363.93,39.16,351.86,39.31,339.79,39.31Z"/><path class="cls-1" d="M191.84,134.21H118.33V99.43q.24-13.58.25-27.18c0-9-.08-18.88-.25-28.87V11.54h44c-.14,18.94-.27,41.15-.27,59.52,0,11.48.15,23,.15,34.28,6.72.11,13.55.23,20.38.4,0,7.93.12,18.61,7.26,26.7l.15.16.15.16A22,22,0,0,0,191.84,134.21Z"/><path class="cls-1" d="M397.54,126.61c0,3.78-.23,7.92-2.72,10.72-3.09,3-7.54,3-11.24,3-1.54,0-3.08,0-4.62-.05v-2.87c2.51-.06,2.73-2.76,2.73-4.29,0-4.33,0-7.94,0-12.57h15.81C397.52,122.88,397.54,124.28,397.54,126.61Z"/><rect class="cls-1" x="381.72" y="105.94" width="15.83" height="11.59"/><path class="cls-1" d="M112.61,107.44a30,30,0,0,1-8.21,21c-6.94,5.77-16.76,6.05-25.56,6.05-8.47,0-16.76-.14-25.22-.14-14.13,0-28.15.15-42.22.55V11.05c14.07.4,28.09.55,42.22.55,8.46,0,16.75-.14,25.22-.14,8.8,0,18.62.28,25.56,6.05a29.93,29.93,0,0,1,8.21,21c0,13.93-4.49,30.67-22.94,34.48C108.12,76.77,112.61,93.51,112.61,107.44Z"/><line class="cls-2" x1="408.94" y1="11.52" y2="11.52"/><line class="cls-2" x1="408.94" y1="134.27" y2="134.27"/><line class="cls-2" x1="239.5" y1="0.13" x2="239.5" y2="145.61"/><line class="cls-2" x1="233.79" y1="0.13" x2="233.79" y2="145.61"/><line class="cls-2" x1="188.39" y1="0.13" x2="188.39" y2="145.61"/><line class="cls-2" x1="182.68" y1="0.13" x2="182.68" y2="145.61"/><line class="cls-2" x1="296.27" y1="0.13" x2="296.27" y2="145.61"/><line class="cls-2" x1="290.56" y1="0.13" x2="290.56" y2="145.61"/><line class="cls-2" x1="381.72" y1="0.13" x2="381.72" y2="145.61"/><line class="cls-2" x1="376" y1="0.13" x2="376" y2="145.61"/><line class="cls-2" y1="120.42" x2="408.94" y2="120.42"/><line class="cls-2" y1="117.53" x2="408.94" y2="117.53"/><line class="cls-2" x1="11.39" y1="0.13" x2="11.39" y2="145.34"/><line class="cls-2" x1="373.12" y1="145.61" x2="373.12" y2="0.13"/><line class="cls-2" x1="378.89" y1="0.13" x2="378.89" y2="145.61"/><line class="cls-2" x1="118.32" y1="0.13" x2="118.32" y2="145.61"/><line class="cls-2" x1="112.61" y1="0.13" x2="112.61" y2="145.61"/><line class="cls-2" x1="245.19" y1="0.13" x2="245.19" y2="145.61"/><line class="cls-2" y1="0.13" x2="408.94" y2="0.13"/><line class="cls-2" x1="397.54" y1="0.13" x2="397.54" y2="145.61"/><line class="cls-2" y1="145.61" x2="408.94" y2="145.61"/></g></g></svg>