<svg xmlns="http://www.w3.org/2000/svg" viewBox="0 0 510.09 175.99"><defs><style>.cls-1{fill:none;stroke:#000;stroke-miterlimit:10;stroke-width:0.25px;}</style></defs><title>Logotipo_Display_Construction</title><g id="Capa_2" data-name="Capa 2"><g id="Capa_4" data-name="Capa 4"><path d="M504.13,160.2c0,3.5-.21,7.34-2.52,10-2.87,2.79-7,2.79-10.43,2.79-1.43,0-7,0-8.42-.05v-2.66c2.18,0,2.5-2.26,2.53-3.7,0,0,0,0,0,0,0-.26,0-.51,0-.72,0-5.27,0-11.53,0-18h18.79C504.12,150.46,504.13,158.16,504.13,160.2Z"/><path d="M504.13,129v14.34H485.32V132.45c0-1.18,0-2.33,0-3.45Z"/><path d="M371.54,6.08H312.3c-.3,36.27-.13,77.26-.13,112.69,0,4.1-.59,11.33-7.43,11.33-4.1,0-7.41-2.54-7.41-10.54,0-35.83-.17-77-.2-113.48H237.75V35.29c.44,16.77.62,33.78.62,48.94,0,14.83-.58,29.87-.58,44.69,0,10.35.2,22.07,7.61,30.46,7.41,7.22,18,7.42,27.33,7.42,10.74,0,21.47-.4,32.21-.4,10.15,0,20.31.4,30.46.4,9.56,0,21.07,0,29.07-7.81,6.44-7.23,7-18,7-27.72,0-15-.39-29.86-.39-44.9,0-13.68.09-28.75.43-43.82Z"/><path d="M436,42.45v25c7.91,0,15.74,0,23.6,0h19.78V73c-.07,4.22-.07,8.46-.07,12.62s0,8.51.07,12.68v5.32H436l.06.17H436v25.17h43.38v37.81H367.11a33.13,33.13,0,0,0,2.66-2.3l.19-.19.18-.2c8.26-9.27,9-21.78,9-32.77,0-7.56-.11-15.19-.2-22.54s-.2-14.9-.2-22.36c0-16.57.15-30.84.43-43.65V6.08H485.31V41.67C469.49,42.25,451.82,42.45,436,42.45Z"/><path d="M242.26,166.73H146V121.18q.31-17.78.33-35.59c0-11.79-.11-24.73-.33-37.81V6.08h57.67c-.18,24.81-.35,53.89-.35,78,0,15,.2,30.07.2,44.89,8.8.15,17.74.3,26.69.53,0,10.38.15,24.37,9.5,35l.2.21.2.21C240.81,165.51,241.53,166.16,242.26,166.73Z"/><path d="M138.5,131.67c0,9.76-3.45,20.09-10.75,27.47-9.09,7.55-22,7.92-33.48,7.92-11.09,0-22-.18-33-.18-18.5,0-36.86.19-55.29.72V5.44c18.43.52,36.79.72,55.29.72,11.08,0,21.94-.18,33-.18,11.53,0,24.39.36,33.48,7.92,7.3,7.37,10.75,17.69,10.75,27.46,0,18.25-5.88,40.17-30,45.16C132.62,91.51,138.5,113.43,138.5,131.67Z"/><line class="cls-1" x1="378.78" y1="175.87" x2="378.78" y2="0.13"/><line class="cls-1" x1="504.13" y1="175.87" x2="504.13" y2="0.13"/><line class="cls-1" x1="5.95" y1="0.13" x2="5.95" y2="175.87"/><line class="cls-1" x1="510.09" y1="175.87" y2="175.87"/><line class="cls-1" x1="510.09" y1="143.34" y2="143.34"/><line class="cls-1" y1="128.94" x2="510.09" y2="128.94"/><line class="cls-1" y1="0.13" x2="510.09" y2="0.13"/><line class="cls-1" x1="510.09" y1="6.08" y2="6.08"/><line class="cls-1" x1="482.33" y1="175.87" x2="482.33" y2="0.13"/><line class="cls-1" x1="485.31" y1="0.13" x2="485.31" y2="175.87"/><line class="cls-1" x1="479.36" y1="175.87" x2="479.36" y2="0.13"/><line class="cls-1" x1="371.09" y1="0.13" x2="371.09" y2="175.87"/><line class="cls-1" x1="296.97" y1="0.13" x2="296.97" y2="175.87"/><line class="cls-1" x1="312.31" y1="0.13" x2="312.31" y2="175.87"/><line class="cls-1" x1="304.63" y1="0.13" x2="304.63" y2="175.87"/><line class="cls-1" x1="138.5" y1="0.13" x2="138.5" y2="175.87"/><line class="cls-1" x1="146.16" y1="0.13" x2="146.16" y2="175.87"/><line class="cls-1" x1="203.2" y1="0.13" x2="203.2" y2="175.87"/><line class="cls-1" x1="435.81" y1="0.13" x2="435.81" y2="175.87"/><line class="cls-1" x1="230.24" y1="0.13" x2="230.24" y2="175.87"/><line class="cls-1" x1="237.9" y1="0.13" x2="237.9" y2="175.87"/><line class="cls-1" x1="510.09" y1="172.89" y2="172.89"/><line class="cls-1" y1="169.93" x2="510.09" y2="169.93"/><line class="cls-1" y1="166.8" x2="510.09" y2="166.8"/><line class="cls-1" x1="510.09" y1="147.8" x2="0.21" y2="147.8"/></g></g></svg>