<?xml version="1.0" encoding="utf-8"?>
<!-- Generator: Adobe Illustrator 24.0.2, SVG Export Plug-In . SVG Version: 6.00 Build 0)  -->
<svg version="1.1" id="Capa_1" xmlns="http://www.w3.org/2000/svg" xmlns:xlink="http://www.w3.org/1999/xlink" x="0px" y="0px"
	 viewBox="0 0 510.1 176" style="enable-background:new 0 0 510.1 176;" xml:space="preserve">
<title>Logotipo_Display_Construction</title>
<path d="M504.1,160.2c0,3.5-0.2,7.3-2.5,10c-2.9,2.8-7,2.8-10.4,2.8c-1.4,0-7,0-8.4-0.1v-2.7c2.2,0,2.5-2.3,2.5-3.7l0,0
	c0-0.3,0-0.5,0-0.7c0-5.3,0-11.5,0-18h18.8C504.1,150.5,504.1,158.2,504.1,160.2z"/>
<path d="M504.1,129v14.3h-18.8v-10.9c0-1.2,0-2.3,0-3.4H504.1z"/>
<path d="M371.5,6.1h-59.2c-0.3,36.3-0.1,77.3-0.1,112.7c0,4.1-0.6,11.3-7.4,11.3c-4.1,0-7.4-2.5-7.4-10.5c0-35.8-0.2-77-0.2-113.5
	h-59.4v29.2c0.4,16.8,0.6,33.8,0.6,48.9c0,14.8-0.6,29.9-0.6,44.7c0,10.4,0.2,22.1,7.6,30.5c7.4,7.2,18,7.4,27.3,7.4
	c10.7,0,21.5-0.4,32.2-0.4c10.1,0,20.3,0.4,30.5,0.4c9.6,0,21.1,0,29.1-7.8c6.4-7.2,7-18,7-27.7c0-15-0.4-29.9-0.4-44.9
	c0-13.7,0.1-28.8,0.4-43.8L371.5,6.1z"/>
<path d="M436,42.5v25c7.9,0,15.7,0,23.6,0h19.8V73c-0.1,4.2-0.1,8.5-0.1,12.6s0,8.5,0.1,12.7v5.3H436l0.1,0.2H436V129h43.4v37.8
	H367.1c0.9-0.7,1.8-1.5,2.7-2.3l0.2-0.2l0.2-0.2c8.3-9.3,9-21.8,9-32.8c0-7.6-0.1-15.2-0.2-22.5s-0.2-14.9-0.2-22.4
	c0-16.6,0.1-30.8,0.4-43.7V6.1h106.1v35.6C469.5,42.3,451.8,42.5,436,42.5z"/>
<path d="M242.3,166.7H146v-45.5c0.2-11.9,0.3-23.7,0.3-35.6c0-11.8-0.1-24.7-0.3-37.8V6.1h57.7c-0.2,24.8-0.4,53.9-0.4,78
	c0,15,0.2,30.1,0.2,44.9c8.8,0.1,17.7,0.3,26.7,0.5c0,10.4,0.1,24.4,9.5,35l0.2,0.2l0.2,0.2C240.8,165.5,241.5,166.2,242.3,166.7z"
	/>
<path d="M138.5,131.7c0,9.8-3.4,20.1-10.8,27.5c-9.1,7.6-22,7.9-33.5,7.9c-11.1,0-22-0.2-33-0.2c-18.5,0-36.9,0.2-55.3,0.7V5.4
	C24.4,6,42.8,6.2,61.3,6.2c11.1,0,21.9-0.2,33-0.2c11.5,0,24.4,0.4,33.5,7.9c7.3,7.4,10.8,17.7,10.8,27.5c0,18.3-5.9,40.2-30,45.2
	C132.6,91.5,138.5,113.4,138.5,131.7z"/>
</svg>
