<svg xmlns="http://www.w3.org/2000/svg" viewBox="0 0 510.09 175.74"><defs><style>.cls-1,.cls-2{fill:none;stroke:#000;stroke-miterlimit:10;}.cls-1{stroke-width:0.25px;}.cls-2{stroke-width:0.01px;}</style></defs><title>Recurso 16</title><g id="Capa_2" data-name="Capa 2"><g id="Capa_4" data-name="Capa 4"><path d="M504.13,160.07c0,3.51-.21,7.35-2.52,10-2.87,2.79-7,2.79-10.43,2.79-1.43,0-7,0-8.42,0V170.1c2.18,0,2.5-2.25,2.53-3.7,0,0,0,0,0,0q0-.39,0-.72c0-5.27,0-11.53,0-18h18.79C504.12,150.33,504.13,158,504.13,160.07Z"/><path d="M504.13,128.87v14.34H485.32V132.32c0-1.17,0-2.33,0-3.45Z"/><path class="cls-1" d="M371.54,6H312.3c-.3,36.26-.13,77.25-.13,112.69,0,4.1-.59,11.33-7.43,11.33-4.1,0-7.41-2.54-7.41-10.55,0-35.83-.17-77-.2-113.47H237.75v29.2c.44,16.78.62,33.79.62,48.94,0,14.84-.58,29.87-.58,44.7,0,10.34.2,22.07,7.61,30.46,7.41,7.22,18,7.41,27.33,7.41,10.74,0,21.47-.39,32.21-.39,10.15,0,20.31.39,30.46.39,9.56,0,21.07,0,29.07-7.8,6.44-7.23,7-18,7-27.73,0-15-.39-29.86-.39-44.89,0-13.69.09-28.76.43-43.82Z"/><path class="cls-1" d="M436,42.32v25c7.91,0,15.74,0,23.6,0h19.78v5.56c-.07,4.22-.07,8.46-.07,12.63s0,8.5.07,12.67v5.33H436l.06.17H436v25.16h43.38V166.6H367.11a29.54,29.54,0,0,0,2.66-2.3l.19-.19.18-.2c8.26-9.26,9-21.77,9-32.77,0-7.56-.11-15.18-.2-22.54s-.2-14.89-.2-22.36c0-16.56.15-30.84.43-43.64V6H485.31V41.54C469.49,42.13,451.82,42.32,436,42.32Z"/><path class="cls-1" d="M242.26,166.61H146V121.06q.31-17.78.33-35.6c0-11.78-.11-24.72-.33-37.81V6h57.67c-.18,24.8-.35,53.89-.35,77.94,0,15,.2,30.07.2,44.9,8.8.14,17.74.3,26.69.52,0,10.39.15,24.37,9.5,35l.2.21.2.21C240.81,165.39,241.53,166,242.26,166.61Z"/><path class="cls-1" d="M138.5,131.55c0,9.76-3.45,20.09-10.75,27.46-9.09,7.56-22,7.92-33.48,7.92-11.09,0-22-.18-33-.18-18.5,0-36.86.2-55.29.72V5.32C24.38,5.84,42.74,6,61.24,6c11.08,0,21.94-.19,33-.19,11.53,0,24.39.37,33.48,7.93,7.3,7.37,10.75,17.69,10.75,27.46,0,18.24-5.88,40.16-30,45.15C132.62,91.38,138.5,113.31,138.5,131.55Z"/><path d="M437.88,104.47H414.35c-.12,14.41-.06,30.7-.06,44.78,0,1.63-.23,4.5-3,4.5-1.63,0-2.94-1-2.94-4.19,0-14.24-.07-30.61-.08-45.09H384.73v11.61c.17,6.66.24,13.42.24,19.44s-.23,11.87-.23,17.76c0,4.11.08,8.77,3,12.1,2.94,2.87,7.13,3,10.86,3,4.26,0,8.52-.16,12.79-.16,4,0,8.07.16,12.1.16,3.8,0,8.38,0,11.56-3.1,2.56-2.87,2.79-7.14,2.79-11,0-6-.16-11.86-.16-17.84,0-5.43,0-11.42.17-17.41Z"/><path d="M463.5,143.21v10.07c5.54.07,11.08.13,16.62.26V168.3h-44a12.41,12.41,0,0,0,1.05-.91l.07-.08.08-.08c3.28-3.68,3.56-8.65,3.56-13,0-3-.05-6-.08-9s-.08-5.92-.08-8.89c0-6.58.06-12.25.17-17.34V104.47h41.45v14.14c-6.29.23-12.57.31-18.85.31v9.93c3.14,0,6.25,0,9.38,0h7.24V131c0,1.68,0,3.37,0,5s0,3.38,0,5v2.11Z"/><path d="M386.52,168.3H348.27V150.21q.12-7.07.13-14.15c0-4.68,0-9.82-.13-15V104.47h22.91c-.07,9.86-.14,21.41-.14,31,0,6,.08,11.95.08,17.84,3.5.06,7.05.12,10.61.21,0,4.12.06,9.68,3.77,13.89l.08.08.08.09C385.94,167.82,386.23,168.07,386.52,168.3Z"/><path d="M345.29,154.37A15.57,15.57,0,0,1,341,165.28c-3.61,3-8.72,3.15-13.3,3.15-4.41,0-8.72-.07-13.12-.07-7.36,0-14.65.08-22,.29V104.22c7.32.21,14.61.28,22,.28,4.4,0,8.71-.07,13.12-.07,4.58,0,9.69.15,13.3,3.15a15.59,15.59,0,0,1,4.27,10.91c0,7.25-2.34,16-11.94,17.94C343,138.41,345.29,147.12,345.29,154.37Z"/><line class="cls-2" x1="286.68" y1="168.3" x2="510.09" y2="168.3"/><line class="cls-1" x1="378.78" x2="378.78" y2="175.74"/><line class="cls-1" x1="504.13" y1="175.74" x2="504.13"/><line class="cls-1" x1="5.95" x2="5.95" y2="175.74"/><line class="cls-1" x1="510.09" y1="143.21" x2="286.68" y2="143.21"/><line class="cls-1" x1="286.68" y1="128.81" x2="510.09" y2="128.81"/><line class="cls-1" x1="286.68" y1="98.52" x2="510.09" y2="98.52"/><line class="cls-1" x1="510.09" y1="104.47" x2="286.68" y2="104.47"/><line class="cls-1" x1="510.09" y1="5.95" y2="5.95"/><line class="cls-1" x1="286.68" y1="175.74" x2="286.68" y2="98.52"/><line class="cls-1" x1="292.63" y1="98.52" x2="292.63" y2="175.74"/><line class="cls-1" x1="482.33" y1="175.74" x2="482.33"/><line class="cls-1" x1="485.31" x2="485.31" y2="175.74"/><line class="cls-1" x1="479.36" y1="175.74" x2="479.36"/><line class="cls-1" x1="371.09" x2="371.09" y2="175.74"/><line class="cls-1" x1="296.96" x2="296.96" y2="175.74"/><line class="cls-1" x1="312.31" x2="312.31" y2="175.74"/><line class="cls-1" x1="304.63" x2="304.63" y2="175.74"/><line class="cls-1" x1="138.5" x2="138.5" y2="175.74"/><line class="cls-1" x1="146.16" x2="146.16" y2="175.74"/><line class="cls-1" x1="230.24" x2="230.24" y2="175.74"/><line class="cls-1" x1="237.9" x2="237.9" y2="175.74"/><line class="cls-1" x1="510.09" y1="172.77" y2="172.77"/><line class="cls-1" y1="169.8" x2="510.09" y2="169.8"/><line class="cls-1" y1="166.67" x2="510.09" y2="166.67"/><line class="cls-1" x1="510.09" y1="147.67" x2="286.77" y2="147.67"/></g></g></svg>