<svg xmlns="http://www.w3.org/2000/svg" viewBox="0 0 510.09 187.9"><defs><style>.cls-1,.cls-2{fill:none;}.cls-2{stroke:#000;stroke-miterlimit:10;stroke-width:0.25px;}</style></defs><title>Recurso 14</title><g id="Capa_2" data-name="Capa 2"><g id="Capa_4" data-name="Capa 4"><line class="cls-1" x1="510.09" y1="181.82" y2="181.82"/><line class="cls-1" y1="6.08" x2="510.09" y2="6.08"/><line class="cls-2" x1="289.49" y1="0.13" x2="319.67" y2="0.13"/><line class="cls-2" x1="319.67" y1="187.77" x2="289.49" y2="187.77"/><path class="cls-2" d="M371.4,12H312.16c-.31,36.27-.14,77.26-.14,112.7,0,4.1-.59,11.32-7.42,11.32-4.1,0-7.41-2.54-7.41-10.54,0-35.83-.17-77-.2-113.48H237.61V41.24c.44,16.78.62,33.79.62,48.94,0,14.84-.58,29.87-.58,44.7,0,10.34.2,22.06,7.61,30.46,7.41,7.21,18,7.41,27.33,7.41,10.74,0,21.47-.39,32.21-.39,10.14,0,20.31.39,30.46.39,9.56,0,21.07,0,29.07-7.81,6.44-7.22,7-17.95,7-27.72,0-15-.39-29.86-.39-44.89,0-13.69.09-28.76.43-43.82Z"/><line class="cls-2" x1="296.99" y1="0.13" x2="296.99" y2="187.77"/><line class="cls-2" x1="312.17" y1="0.13" x2="312.17" y2="12.04"/><line class="cls-2" x1="304.49" y1="0.13" x2="304.49" y2="187.77"/></g></g></svg>